<svg version="1.1"
     baseProfile="full"
     width="400" height="400"
     xmlns="http://www.w3.org/2000/svg">
<line x1="50" y1="200"  x2="150.0" y2="200.0" stroke="Black" stroke-width="2"/>
<line x1="150.0" y1="200.0"  x2="51.9214719597" y2="180.490967798" stroke="Black" stroke-width="2"/>
<line x1="51.9214719597" y1="180.490967798"  x2="144.309425211" y2="218.759311035" stroke="Black" stroke-width="2"/>
<line x1="144.309425211" y1="218.759311035"  x2="61.1624639806" y2="163.202287733" stroke="Black" stroke-width="2"/>
<line x1="61.1624639806" y1="163.202287733"  x2="131.873142099" y2="233.912965852" stroke="Black" stroke-width="2"/>
<line x1="131.873142099" y1="233.912965852"  x2="76.3161187972" y2="150.766004621" stroke="Black" stroke-width="2"/>
<line x1="76.3161187972" y1="150.766004621"  x2="114.584462034" y2="243.153957872" stroke="Black" stroke-width="2"/>
<line x1="114.584462034" y1="243.153957872"  x2="95.0754298321" y2="145.075429832" stroke="Black" stroke-width="2"/>
<line x1="95.0754298321" y1="145.075429832"  x2="95.0754298321" y2="245.075429832" stroke="Black" stroke-width="2"/>
<line x1="95.0754298321" y1="245.075429832"  x2="114.584462034" y2="146.996901792" stroke="Black" stroke-width="2"/>
<line x1="114.584462034" y1="146.996901792"  x2="76.3161187972" y2="239.384855043" stroke="Black" stroke-width="2"/>
<line x1="76.3161187972" y1="239.384855043"  x2="131.873142099" y2="156.237893813" stroke="Black" stroke-width="2"/>
<line x1="131.873142099" y1="156.237893813"  x2="61.1624639806" y2="226.948571931" stroke="Black" stroke-width="2"/>
<line x1="61.1624639806" y1="226.948571931"  x2="144.309425211" y2="171.391548629" stroke="Black" stroke-width="2"/>
<line x1="144.309425211" y1="171.391548629"  x2="51.9214719597" y2="209.659891866" stroke="Black" stroke-width="2"/>
<line x1="51.9214719597" y1="209.659891866"  x2="150.0" y2="190.150859664" stroke="Black" stroke-width="2"/>
<line x1="150.0" y1="190.150859664"  x2="50.0" y2="190.150859664" stroke="Black" stroke-width="2"/>
<line x1="50.0" y1="190.150859664"  x2="148.07852804" y2="209.659891866" stroke="Black" stroke-width="2"/>
<line x1="148.07852804" y1="209.659891866"  x2="55.6905747892" y2="171.391548629" stroke="Black" stroke-width="2"/>
<line x1="55.6905747892" y1="171.391548629"  x2="138.837536019" y2="226.948571931" stroke="Black" stroke-width="2"/>
<line x1="138.837536019" y1="226.948571931"  x2="68.1268579008" y2="156.237893813" stroke="Black" stroke-width="2"/>
<line x1="68.1268579008" y1="156.237893813"  x2="123.683881203" y2="239.384855043" stroke="Black" stroke-width="2"/>
<line x1="123.683881203" y1="239.384855043"  x2="85.4155379662" y2="146.996901792" stroke="Black" stroke-width="2"/>
<line x1="85.4155379662" y1="146.996901792"  x2="104.924570168" y2="245.075429832" stroke="Black" stroke-width="2"/>
<line x1="104.924570168" y1="245.075429832"  x2="104.924570168" y2="145.075429832" stroke="Black" stroke-width="2"/>
<line x1="104.924570168" y1="145.075429832"  x2="85.4155379662" y2="243.153957872" stroke="Black" stroke-width="2"/>
<line x1="85.4155379662" y1="243.153957872"  x2="123.683881203" y2="150.766004621" stroke="Black" stroke-width="2"/>
<line x1="123.683881203" y1="150.766004621"  x2="68.1268579008" y2="233.912965852" stroke="Black" stroke-width="2"/>
<line x1="68.1268579008" y1="233.912965852"  x2="138.837536019" y2="163.202287733" stroke="Black" stroke-width="2"/>
<line x1="138.837536019" y1="163.202287733"  x2="55.6905747892" y2="218.759311035" stroke="Black" stroke-width="2"/>
<line x1="55.6905747892" y1="218.759311035"  x2="148.07852804" y2="180.490967798" stroke="Black" stroke-width="2"/>
<line x1="148.07852804" y1="180.490967798"  x2="50.0" y2="200.0" stroke="Black" stroke-width="2"/>
</svg>
