<svg version="1.1"
     baseProfile="full"
     width="400" height="400"
     xmlns="http://www.w3.org/2000/svg">
<line x1="50" y1="200"  x2="150.0" y2="200.0" stroke="Black" stroke-width="2"/>
<line x1="150.0" y1="200.0"  x2="56.0307379214" y2="165.797985667" stroke="Black" stroke-width="2"/>
<line x1="56.0307379214" y1="165.797985667"  x2="132.635182233" y2="230.076746636" stroke="Black" stroke-width="2"/>
<line x1="132.635182233" y1="230.076746636"  x2="82.6351822333" y2="143.474206258" stroke="Black" stroke-width="2"/>
<line x1="82.6351822333" y1="143.474206258"  x2="100.0" y2="241.954981559" stroke="Black" stroke-width="2"/>
<line x1="100.0" y1="241.954981559"  x2="117.364817767" y2="143.474206258" stroke="Black" stroke-width="2"/>
<line x1="117.364817767" y1="143.474206258"  x2="67.3648177667" y2="230.076746636" stroke="Black" stroke-width="2"/>
<line x1="67.3648177667" y1="230.076746636"  x2="143.969262079" y2="165.797985667" stroke="Black" stroke-width="2"/>
<line x1="143.969262079" y1="165.797985667"  x2="50.0" y2="200.0" stroke="Black" stroke-width="2"/>
<line x1="50.0" y1="200.0"  x2="150.0" y2="200.0" stroke="Black" stroke-width="2"/>
<line x1="150.0" y1="200.0"  x2="56.0307379214" y2="165.797985667" stroke="Black" stroke-width="2"/>
<line x1="56.0307379214" y1="165.797985667"  x2="132.635182233" y2="230.076746636" stroke="Black" stroke-width="2"/>
<line x1="132.635182233" y1="230.076746636"  x2="82.6351822333" y2="143.474206258" stroke="Black" stroke-width="2"/>
<line x1="82.6351822333" y1="143.474206258"  x2="100.0" y2="241.954981559" stroke="Black" stroke-width="2"/>
<line x1="100.0" y1="241.954981559"  x2="117.364817767" y2="143.474206258" stroke="Black" stroke-width="2"/>
<line x1="117.364817767" y1="143.474206258"  x2="67.3648177667" y2="230.076746636" stroke="Black" stroke-width="2"/>
<line x1="67.3648177667" y1="230.076746636"  x2="143.969262079" y2="165.797985667" stroke="Black" stroke-width="2"/>
<line x1="143.969262079" y1="165.797985667"  x2="50.0" y2="200.0" stroke="Black" stroke-width="2"/>
<line x1="50.0" y1="200.0"  x2="150.0" y2="200.0" stroke="Black" stroke-width="2"/>
<line x1="150.0" y1="200.0"  x2="56.0307379214" y2="165.797985667" stroke="Black" stroke-width="2"/>
<line x1="56.0307379214" y1="165.797985667"  x2="132.635182233" y2="230.076746636" stroke="Black" stroke-width="2"/>
<line x1="132.635182233" y1="230.076746636"  x2="82.6351822333" y2="143.474206258" stroke="Black" stroke-width="2"/>
<line x1="82.6351822333" y1="143.474206258"  x2="100.0" y2="241.954981559" stroke="Black" stroke-width="2"/>
<line x1="100.0" y1="241.954981559"  x2="117.364817767" y2="143.474206258" stroke="Black" stroke-width="2"/>
<line x1="117.364817767" y1="143.474206258"  x2="67.3648177667" y2="230.076746636" stroke="Black" stroke-width="2"/>
<line x1="67.3648177667" y1="230.076746636"  x2="143.969262079" y2="165.797985667" stroke="Black" stroke-width="2"/>
<line x1="143.969262079" y1="165.797985667"  x2="50.0" y2="200.0" stroke="Black" stroke-width="2"/>
<line x1="50.0" y1="200.0"  x2="150.0" y2="200.0" stroke="Black" stroke-width="2"/>
<line x1="150.0" y1="200.0"  x2="56.0307379214" y2="165.797985667" stroke="Black" stroke-width="2"/>
<line x1="56.0307379214" y1="165.797985667"  x2="132.635182233" y2="230.076746636" stroke="Black" stroke-width="2"/>
<line x1="132.635182233" y1="230.076746636"  x2="82.6351822333" y2="143.474206258" stroke="Black" stroke-width="2"/>
<line x1="82.6351822333" y1="143.474206258"  x2="100.0" y2="241.954981559" stroke="Black" stroke-width="2"/>
<line x1="100.0" y1="241.954981559"  x2="117.364817767" y2="143.474206258" stroke="Black" stroke-width="2"/>
<line x1="117.364817767" y1="143.474206258"  x2="67.3648177667" y2="230.076746636" stroke="Black" stroke-width="2"/>
<line x1="67.3648177667" y1="230.076746636"  x2="143.969262079" y2="165.797985667" stroke="Black" stroke-width="2"/>
<line x1="143.969262079" y1="165.797985667"  x2="50.0" y2="200.0" stroke="Black" stroke-width="2"/>
</svg>
