<svg version="1.1"
     baseProfile="full"
     width="400" height="400"
     xmlns="http://www.w3.org/2000/svg">
<line x1="50" y1="200"  x2="150.0" y2="200.0" stroke="Black" stroke-width="2"/>
<line x1="150.0" y1="200.0"  x2="51.7026900316" y2="181.625048218" stroke="Black" stroke-width="2"/>
<line x1="51.7026900316" y1="181.625048218"  x2="144.949912972" y2="217.749214837" stroke="Black" stroke-width="2"/>
<line x1="144.949912972" y1="217.749214837"  x2="59.9281993991" y2="165.105998549" stroke="Black" stroke-width="2"/>
<line x1="59.9281993991" y1="165.105998549"  x2="133.829091121" y2="232.475562914" stroke="Black" stroke-width="2"/>
<line x1="133.829091121" y1="232.475562914"  x2="73.5656274832" y2="152.673840186" stroke="Black" stroke-width="2"/>
<line x1="73.5656274832" y1="152.673840186"  x2="118.139463061" y2="242.190169321" stroke="Black" stroke-width="2"/>
<line x1="118.139463061" y1="242.190169321"  x2="90.7731640537" y2="146.007605004" stroke="Black" stroke-width="2"/>
<line x1="90.7731640537" y1="146.007605004"  x2="100.0" y2="245.581022634" stroke="Black" stroke-width="2"/>
<line x1="100.0" y1="245.581022634"  x2="109.226835946" y2="146.007605004" stroke="Black" stroke-width="2"/>
<line x1="109.226835946" y1="146.007605004"  x2="81.8605369391" y2="242.190169321" stroke="Black" stroke-width="2"/>
<line x1="81.8605369391" y1="242.190169321"  x2="126.434372517" y2="152.673840186" stroke="Black" stroke-width="2"/>
<line x1="126.434372517" y1="152.673840186"  x2="66.1709088788" y2="232.475562914" stroke="Black" stroke-width="2"/>
<line x1="66.1709088788" y1="232.475562914"  x2="140.071800601" y2="165.105998549" stroke="Black" stroke-width="2"/>
<line x1="140.071800601" y1="165.105998549"  x2="55.050087028" y2="217.749214837" stroke="Black" stroke-width="2"/>
<line x1="55.050087028" y1="217.749214837"  x2="148.297309968" y2="181.625048218" stroke="Black" stroke-width="2"/>
<line x1="148.297309968" y1="181.625048218"  x2="50.0" y2="200.0" stroke="Black" stroke-width="2"/>
</svg>
