<svg version="1.1"
     baseProfile="full"
     width="400" height="400"
     xmlns="http://www.w3.org/2000/svg">
<line x1="50" y1="200"  x2="150.0" y2="200.0" stroke="Black" stroke-width="2"/>
<line x1="150.0" y1="200.0"  x2="53.4074173711" y2="174.11809549" stroke="Black" stroke-width="2"/>
<line x1="53.4074173711" y1="174.11809549"  x2="140.00995775" y2="224.11809549" stroke="Black" stroke-width="2"/>
<line x1="140.00995775" y1="224.11809549"  x2="69.2992796309" y2="153.407417371" stroke="Black" stroke-width="2"/>
<line x1="69.2992796309" y1="153.407417371"  x2="119.299279631" y2="240.00995775" stroke="Black" stroke-width="2"/>
<line x1="119.299279631" y1="240.00995775"  x2="93.4173751206" y2="143.417375121" stroke="Black" stroke-width="2"/>
<line x1="93.4173751206" y1="143.417375121"  x2="93.4173751206" y2="243.417375121" stroke="Black" stroke-width="2"/>
<line x1="93.4173751206" y1="243.417375121"  x2="119.299279631" y2="146.824792492" stroke="Black" stroke-width="2"/>
<line x1="119.299279631" y1="146.824792492"  x2="69.2992796309" y2="233.42733287" stroke="Black" stroke-width="2"/>
<line x1="69.2992796309" y1="233.42733287"  x2="140.00995775" y2="162.716654752" stroke="Black" stroke-width="2"/>
<line x1="140.00995775" y1="162.716654752"  x2="53.4074173711" y2="212.716654752" stroke="Black" stroke-width="2"/>
<line x1="53.4074173711" y1="212.716654752"  x2="150.0" y2="186.834750241" stroke="Black" stroke-width="2"/>
<line x1="150.0" y1="186.834750241"  x2="50.0" y2="186.834750241" stroke="Black" stroke-width="2"/>
<line x1="50.0" y1="186.834750241"  x2="146.592582629" y2="212.716654752" stroke="Black" stroke-width="2"/>
<line x1="146.592582629" y1="212.716654752"  x2="59.9900422505" y2="162.716654752" stroke="Black" stroke-width="2"/>
<line x1="59.9900422505" y1="162.716654752"  x2="130.700720369" y2="233.42733287" stroke="Black" stroke-width="2"/>
<line x1="130.700720369" y1="233.42733287"  x2="80.7007203691" y2="146.824792492" stroke="Black" stroke-width="2"/>
<line x1="80.7007203691" y1="146.824792492"  x2="106.582624879" y2="243.417375121" stroke="Black" stroke-width="2"/>
<line x1="106.582624879" y1="243.417375121"  x2="106.582624879" y2="143.417375121" stroke="Black" stroke-width="2"/>
<line x1="106.582624879" y1="143.417375121"  x2="80.7007203691" y2="240.00995775" stroke="Black" stroke-width="2"/>
<line x1="80.7007203691" y1="240.00995775"  x2="130.700720369" y2="153.407417371" stroke="Black" stroke-width="2"/>
<line x1="130.700720369" y1="153.407417371"  x2="59.9900422505" y2="224.11809549" stroke="Black" stroke-width="2"/>
<line x1="59.9900422505" y1="224.11809549"  x2="146.592582629" y2="174.11809549" stroke="Black" stroke-width="2"/>
<line x1="146.592582629" y1="174.11809549"  x2="50.0" y2="200.0" stroke="Black" stroke-width="2"/>
</svg>
