<svg version="1.1"
     baseProfile="full"
     width="400" height="400"
     xmlns="http://www.w3.org/2000/svg">
<line x1="50" y1="200"  x2="150.0" y2="200.0" stroke="Black" stroke-width="2"/>
<line x1="150.0" y1="200.0"  x2="51.3638696597" y2="183.540540972" stroke="Black" stroke-width="2"/>
<line x1="51.3638696597" y1="183.540540972"  x2="145.94559383" y2="216.010487892" stroke="Black" stroke-width="2"/>
<line x1="145.94559383" y1="216.010487892"  x2="57.9982187091" y2="168.415748589" stroke="Black" stroke-width="2"/>
<line x1="57.9982187091" y1="168.415748589"  x2="136.912269649" y2="229.837019858" stroke="Black" stroke-width="2"/>
<line x1="136.912269649" y1="229.837019858"  x2="69.1841124862" y2="156.26462879" stroke="Black" stroke-width="2"/>
<line x1="69.1841124862" y1="156.26462879"  x2="123.878928298" y2="239.981276617" stroke="Black" stroke-width="2"/>
<line x1="123.878928298" y1="239.981276617"  x2="83.7093858332" y2="148.403943951" stroke="Black" stroke-width="2"/>
<line x1="83.7093858332" y1="148.403943951"  x2="108.257934547" y2="245.343970545" stroke="Black" stroke-width="2"/>
<line x1="108.257934547" y1="245.343970545"  x2="100.0" y2="145.685521244" stroke="Black" stroke-width="2"/>
<line x1="100.0" y1="145.685521244"  x2="91.7420654528" y2="245.343970545" stroke="Black" stroke-width="2"/>
<line x1="91.7420654528" y1="245.343970545"  x2="116.290614167" y2="148.403943951" stroke="Black" stroke-width="2"/>
<line x1="116.290614167" y1="148.403943951"  x2="76.1210717015" y2="239.981276617" stroke="Black" stroke-width="2"/>
<line x1="76.1210717015" y1="239.981276617"  x2="130.815887514" y2="156.26462879" stroke="Black" stroke-width="2"/>
<line x1="130.815887514" y1="156.26462879"  x2="63.0877303512" y2="229.837019858" stroke="Black" stroke-width="2"/>
<line x1="63.0877303512" y1="229.837019858"  x2="142.001781291" y2="168.415748589" stroke="Black" stroke-width="2"/>
<line x1="142.001781291" y1="168.415748589"  x2="54.0544061702" y2="216.010487892" stroke="Black" stroke-width="2"/>
<line x1="54.0544061702" y1="216.010487892"  x2="148.63613034" y2="183.540540972" stroke="Black" stroke-width="2"/>
<line x1="148.63613034" y1="183.540540972"  x2="50.0" y2="200.0" stroke="Black" stroke-width="2"/>
</svg>
