<svg version="1.1"
     baseProfile="full"
     width="380.0" height="380.0"
     xmlns="http://www.w3.org/2000/svg">
<line x1="20.0" y1="0.0"  x2="30.0" y2="17.3205080757" stroke="Black" stroke-width="2"/>
<line x1="30.0" y1="17.3205080757"  x2="20.0" y2="0.0" stroke="Black" stroke-width="2"/>
<line x1="50.0" y1="17.3205080757"  x2="30.0" y2="17.3205080757" stroke="Black" stroke-width="2"/>
<line x1="80.0" y1="0.0"  x2="90.0" y2="17.3205080757" stroke="Black" stroke-width="2"/>
<line x1="90.0" y1="17.3205080757"  x2="80.0" y2="0.0" stroke="Black" stroke-width="2"/>
<line x1="130.0" y1="17.3205080757"  x2="110.0" y2="17.3205080757" stroke="Black" stroke-width="2"/>
<line x1="150.0" y1="17.3205080757"  x2="130.0" y2="17.3205080757" stroke="Black" stroke-width="2"/>
<line x1="170.0" y1="17.3205080757"  x2="150.0" y2="17.3205080757" stroke="Black" stroke-width="2"/>
<line x1="38.6602540378" y1="34.6410161514"  x2="18.6602540378" y2="34.6410161514" stroke="Black" stroke-width="2"/>
<line x1="28.6602540378" y1="17.3205080757"  x2="48.6602540378" y2="17.3205080757" stroke="Black" stroke-width="2"/>
<line x1="48.6602540378" y1="17.3205080757"  x2="58.6602540378" y2="34.6410161514" stroke="Black" stroke-width="2"/>
<line x1="58.6602540378" y1="34.6410161514"  x2="48.6602540378" y2="17.3205080757" stroke="Black" stroke-width="2"/>
<line x1="68.6602540378" y1="17.3205080757"  x2="78.6602540378" y2="34.6410161514" stroke="Black" stroke-width="2"/>
<line x1="78.6602540378" y1="34.6410161514"  x2="68.6602540378" y2="17.3205080757" stroke="Black" stroke-width="2"/>
<line x1="88.6602540378" y1="17.3205080757"  x2="98.6602540378" y2="34.6410161514" stroke="Black" stroke-width="2"/>
<line x1="98.6602540378" y1="34.6410161514"  x2="88.6602540378" y2="17.3205080757" stroke="Black" stroke-width="2"/>
<line x1="118.660254038" y1="34.6410161514"  x2="98.6602540378" y2="34.6410161514" stroke="Black" stroke-width="2"/>
<line x1="108.660254038" y1="17.3205080757"  x2="128.660254038" y2="17.3205080757" stroke="Black" stroke-width="2"/>
<line x1="138.660254038" y1="34.6410161514"  x2="118.660254038" y2="34.6410161514" stroke="Black" stroke-width="2"/>
<line x1="128.660254038" y1="17.3205080757"  x2="148.660254038" y2="17.3205080757" stroke="Black" stroke-width="2"/>
<line x1="148.660254038" y1="17.3205080757"  x2="168.660254038" y2="17.3205080757" stroke="Black" stroke-width="2"/>
<line x1="168.660254038" y1="17.3205080757"  x2="158.660254038" y2="34.6410161514" stroke="Black" stroke-width="2"/>
<line x1="158.660254038" y1="34.6410161514"  x2="168.660254038" y2="17.3205080757" stroke="Black" stroke-width="2"/>
<line x1="17.3205080757" y1="34.6410161514"  x2="37.3205080757" y2="34.6410161514" stroke="Black" stroke-width="2"/>
<line x1="57.3205080757" y1="34.6410161514"  x2="47.3205080757" y2="51.9615242271" stroke="Black" stroke-width="2"/>
<line x1="67.3205080757" y1="51.9615242271"  x2="47.3205080757" y2="51.9615242271" stroke="Black" stroke-width="2"/>
<line x1="47.3205080757" y1="51.9615242271"  x2="57.3205080757" y2="34.6410161514" stroke="Black" stroke-width="2"/>
<line x1="77.3205080757" y1="34.6410161514"  x2="87.3205080757" y2="51.9615242271" stroke="Black" stroke-width="2"/>
<line x1="87.3205080757" y1="51.9615242271"  x2="77.3205080757" y2="34.6410161514" stroke="Black" stroke-width="2"/>
<line x1="107.320508076" y1="51.9615242271"  x2="87.3205080757" y2="51.9615242271" stroke="Black" stroke-width="2"/>
<line x1="97.3205080757" y1="34.6410161514"  x2="117.320508076" y2="34.6410161514" stroke="Black" stroke-width="2"/>
<line x1="127.320508076" y1="51.9615242271"  x2="107.320508076" y2="51.9615242271" stroke="Black" stroke-width="2"/>
<line x1="117.320508076" y1="34.6410161514"  x2="137.320508076" y2="34.6410161514" stroke="Black" stroke-width="2"/>
<line x1="137.320508076" y1="34.6410161514"  x2="147.320508076" y2="51.9615242271" stroke="Black" stroke-width="2"/>
<line x1="157.320508076" y1="34.6410161514"  x2="147.320508076" y2="51.9615242271" stroke="Black" stroke-width="2"/>
<line x1="147.320508076" y1="51.9615242271"  x2="137.320508076" y2="34.6410161514" stroke="Black" stroke-width="2"/>
<line x1="147.320508076" y1="51.9615242271"  x2="157.320508076" y2="34.6410161514" stroke="Black" stroke-width="2"/>
<line x1="55.9807621135" y1="69.2820323028"  x2="35.9807621135" y2="69.2820323028" stroke="Black" stroke-width="2"/>
<line x1="45.9807621135" y1="51.9615242271"  x2="65.9807621135" y2="51.9615242271" stroke="Black" stroke-width="2"/>
<line x1="65.9807621135" y1="51.9615242271"  x2="75.9807621135" y2="69.2820323028" stroke="Black" stroke-width="2"/>
<line x1="75.9807621135" y1="69.2820323028"  x2="65.9807621135" y2="51.9615242271" stroke="Black" stroke-width="2"/>
<line x1="85.9807621135" y1="51.9615242271"  x2="95.9807621135" y2="69.2820323028" stroke="Black" stroke-width="2"/>
<line x1="85.9807621135" y1="51.9615242271"  x2="105.980762114" y2="51.9615242271" stroke="Black" stroke-width="2"/>
<line x1="95.9807621135" y1="69.2820323028"  x2="85.9807621135" y2="51.9615242271" stroke="Black" stroke-width="2"/>
<line x1="105.980762114" y1="51.9615242271"  x2="125.980762114" y2="51.9615242271" stroke="Black" stroke-width="2"/>
<line x1="125.980762114" y1="51.9615242271"  x2="135.980762114" y2="69.2820323028" stroke="Black" stroke-width="2"/>
<line x1="135.980762114" y1="69.2820323028"  x2="125.980762114" y2="51.9615242271" stroke="Black" stroke-width="2"/>
<line x1="34.6410161514" y1="69.2820323028"  x2="54.6410161514" y2="69.2820323028" stroke="Black" stroke-width="2"/>
<line x1="74.6410161514" y1="69.2820323028"  x2="64.6410161514" y2="86.6025403784" stroke="Black" stroke-width="2"/>
<line x1="64.6410161514" y1="86.6025403784"  x2="74.6410161514" y2="69.2820323028" stroke="Black" stroke-width="2"/>
<line x1="94.6410161514" y1="69.2820323028"  x2="84.6410161514" y2="86.6025403784" stroke="Black" stroke-width="2"/>
<line x1="84.6410161514" y1="86.6025403784"  x2="94.6410161514" y2="69.2820323028" stroke="Black" stroke-width="2"/>
<line x1="114.641016151" y1="69.2820323028"  x2="104.641016151" y2="86.6025403784" stroke="Black" stroke-width="2"/>
<line x1="114.641016151" y1="69.2820323028"  x2="124.641016151" y2="86.6025403784" stroke="Black" stroke-width="2"/>
<line x1="104.641016151" y1="86.6025403784"  x2="114.641016151" y2="69.2820323028" stroke="Black" stroke-width="2"/>
<line x1="124.641016151" y1="86.6025403784"  x2="114.641016151" y2="69.2820323028" stroke="Black" stroke-width="2"/>
<line x1="144.641016151" y1="86.6025403784"  x2="124.641016151" y2="86.6025403784" stroke="Black" stroke-width="2"/>
<line x1="63.3012701892" y1="86.6025403784"  x2="73.3012701892" y2="103.923048454" stroke="Black" stroke-width="2"/>
<line x1="73.3012701892" y1="103.923048454"  x2="63.3012701892" y2="86.6025403784" stroke="Black" stroke-width="2"/>
<line x1="83.3012701892" y1="86.6025403784"  x2="93.3012701892" y2="103.923048454" stroke="Black" stroke-width="2"/>
<line x1="93.3012701892" y1="103.923048454"  x2="83.3012701892" y2="86.6025403784" stroke="Black" stroke-width="2"/>
<line x1="113.301270189" y1="103.923048454"  x2="93.3012701892" y2="103.923048454" stroke="Black" stroke-width="2"/>
<line x1="123.301270189" y1="86.6025403784"  x2="143.301270189" y2="86.6025403784" stroke="Black" stroke-width="2"/>
<line x1="81.9615242271" y1="121.24355653"  x2="61.9615242271" y2="121.24355653" stroke="Black" stroke-width="2"/>
<line x1="91.9615242271" y1="103.923048454"  x2="81.9615242271" y2="121.24355653" stroke="Black" stroke-width="2"/>
<line x1="81.9615242271" y1="121.24355653"  x2="91.9615242271" y2="103.923048454" stroke="Black" stroke-width="2"/>
<line x1="91.9615242271" y1="103.923048454"  x2="111.961524227" y2="103.923048454" stroke="Black" stroke-width="2"/>
<line x1="111.961524227" y1="103.923048454"  x2="101.961524227" y2="121.24355653" stroke="Black" stroke-width="2"/>
<line x1="101.961524227" y1="121.24355653"  x2="111.961524227" y2="103.923048454" stroke="Black" stroke-width="2"/>
<line x1="60.6217782649" y1="121.24355653"  x2="80.6217782649" y2="121.24355653" stroke="Black" stroke-width="2"/>
<line x1="100.621778265" y1="121.24355653"  x2="90.6217782649" y2="138.564064606" stroke="Black" stroke-width="2"/>
<line x1="90.6217782649" y1="138.564064606"  x2="100.621778265" y2="121.24355653" stroke="Black" stroke-width="2"/>
<line x1="0.0" y1="0.0"  x2="200.0" y2="0.0" stroke="Black" stroke-width="2"/>
<line x1="200.0" y1="0.0"  x2="100.0" y2="173.205080757" stroke="Black" stroke-width="2"/>
<line x1="100.0" y1="173.205080757"  x2="0.0" y2="0.0" stroke="Black" stroke-width="2"/>
</svg>
