<svg version="1.1"
     baseProfile="full"
     width="1900" height="1900"
     xmlns="http://www.w3.org/2000/svg">
<line x1="950" y1="1800"  x2="1050.0" y2="1800.0" stroke="Black" stroke-width="2"/>
<line x1="1050.0" y1="1800.0"  x2="1144.58172417" y2="1767.53005308" stroke="Black" stroke-width="2"/>
<line x1="1144.58172417" y1="1767.53005308"  x2="1223.49577511" y2="1706.10878181" stroke="Black" stroke-width="2"/>
<line x1="1223.49577511" y1="1706.10878181"  x2="1278.19059092" y2="1622.39213398" stroke="Black" stroke-width="2"/>
<line x1="1278.19059092" y1="1622.39213398"  x2="1302.73913964" y2="1525.45210739" stroke="Black" stroke-width="2"/>
<line x1="1302.73913964" y1="1525.45210739"  x2="1294.48120509" y2="1425.79365809" stroke="Black" stroke-width="2"/>
<line x1="1294.48120509" y1="1425.79365809"  x2="1254.31166262" y2="1334.21632542" stroke="Black" stroke-width="2"/>
<line x1="1254.31166262" y1="1334.21632542"  x2="1186.58350546" y2="1260.64393436" stroke="Black" stroke-width="2"/>
<line x1="1186.58350546" y1="1260.64393436"  x2="1098.63613034" y2="1213.04919505" stroke="Black" stroke-width="2"/>
<line x1="1098.63613034" y1="1213.04919505"  x2="1000.0" y2="1196.58973603" stroke="Black" stroke-width="2"/>
<line x1="1000.0" y1="1196.58973603"  x2="901.36386966" y2="1213.04919505" stroke="Black" stroke-width="2"/>
<line x1="901.36386966" y1="1213.04919505"  x2="813.416494539" y2="1260.64393436" stroke="Black" stroke-width="2"/>
<line x1="813.416494539" y1="1260.64393436"  x2="745.688337377" y2="1334.21632542" stroke="Black" stroke-width="2"/>
<line x1="745.688337377" y1="1334.21632542"  x2="705.518794911" y2="1425.79365809" stroke="Black" stroke-width="2"/>
<line x1="705.518794911" y1="1425.79365809"  x2="697.260860364" y2="1525.45210739" stroke="Black" stroke-width="2"/>
<line x1="697.260860364" y1="1525.45210739"  x2="721.809409078" y2="1622.39213398" stroke="Black" stroke-width="2"/>
<line x1="721.809409078" y1="1622.39213398"  x2="776.50422489" y2="1706.10878181" stroke="Black" stroke-width="2"/>
<line x1="776.50422489" y1="1706.10878181"  x2="855.41827583" y2="1767.53005308" stroke="Black" stroke-width="2"/>
<line x1="855.41827583" y1="1767.53005308"  x2="950.0" y2="1800.0" stroke="Black" stroke-width="2"/>
</svg>
