<svg version="1.1"
     baseProfile="full"
     width="1800" height="1800"
     xmlns="http://www.w3.org/2000/svg">
<line x1="900" y1="1700"  x2="1000.0" y2="1700.0" stroke="Black" stroke-width="2"/>
<line x1="1000.0" y1="1700.0"  x2="1093.96926208" y2="1665.79798567" stroke="Black" stroke-width="2"/>
<line x1="1093.96926208" y1="1665.79798567"  x2="1170.57370639" y2="1601.5192247" stroke="Black" stroke-width="2"/>
<line x1="1170.57370639" y1="1601.5192247"  x2="1220.57370639" y2="1514.91668432" stroke="Black" stroke-width="2"/>
<line x1="1220.57370639" y1="1514.91668432"  x2="1237.93852416" y2="1416.43590902" stroke="Black" stroke-width="2"/>
<line x1="1237.93852416" y1="1416.43590902"  x2="1220.57370639" y2="1317.95513372" stroke="Black" stroke-width="2"/>
<line x1="1220.57370639" y1="1317.95513372"  x2="1170.57370639" y2="1231.35259334" stroke="Black" stroke-width="2"/>
<line x1="1170.57370639" y1="1231.35259334"  x2="1093.96926208" y2="1167.07383237" stroke="Black" stroke-width="2"/>
<line x1="1093.96926208" y1="1167.07383237"  x2="1000.0" y2="1132.87181804" stroke="Black" stroke-width="2"/>
<line x1="1000.0" y1="1132.87181804"  x2="900.0" y2="1132.87181804" stroke="Black" stroke-width="2"/>
<line x1="900.0" y1="1132.87181804"  x2="806.030737921" y2="1167.07383237" stroke="Black" stroke-width="2"/>
<line x1="806.030737921" y1="1167.07383237"  x2="729.42629361" y2="1231.35259334" stroke="Black" stroke-width="2"/>
<line x1="729.42629361" y1="1231.35259334"  x2="679.42629361" y2="1317.95513372" stroke="Black" stroke-width="2"/>
<line x1="679.42629361" y1="1317.95513372"  x2="662.061475843" y2="1416.43590902" stroke="Black" stroke-width="2"/>
<line x1="662.061475843" y1="1416.43590902"  x2="679.42629361" y2="1514.91668432" stroke="Black" stroke-width="2"/>
<line x1="679.42629361" y1="1514.91668432"  x2="729.42629361" y2="1601.5192247" stroke="Black" stroke-width="2"/>
<line x1="729.42629361" y1="1601.5192247"  x2="806.030737921" y2="1665.79798567" stroke="Black" stroke-width="2"/>
<line x1="806.030737921" y1="1665.79798567"  x2="900.0" y2="1700.0" stroke="Black" stroke-width="2"/>
</svg>
