<svg version="1.1"
     baseProfile="full"
     width="1700" height="1700"
     xmlns="http://www.w3.org/2000/svg">
<line x1="850" y1="1600"  x2="950.0" y2="1600.0" stroke="Black" stroke-width="2"/>
<line x1="950.0" y1="1600.0"  x2="1043.24722294" y2="1563.87583338" stroke="Black" stroke-width="2"/>
<line x1="1043.24722294" y1="1563.87583338"  x2="1117.14811466" y2="1496.50626902" stroke="Black" stroke-width="2"/>
<line x1="1117.14811466" y1="1496.50626902"  x2="1161.72195024" y2="1406.98993988" stroke="Black" stroke-width="2"/>
<line x1="1161.72195024" y1="1406.98993988"  x2="1170.94878619" y2="1307.41652225" stroke="Black" stroke-width="2"/>
<line x1="1170.94878619" y1="1307.41652225"  x2="1143.58248718" y2="1211.23395793" stroke="Black" stroke-width="2"/>
<line x1="1143.58248718" y1="1211.23395793"  x2="1083.31902354" y2="1131.43223521" stroke="Black" stroke-width="2"/>
<line x1="1083.31902354" y1="1131.43223521"  x2="998.297309968" y2="1078.78901892" stroke="Black" stroke-width="2"/>
<line x1="998.297309968" y1="1078.78901892"  x2="900.0" y2="1060.41406714" stroke="Black" stroke-width="2"/>
<line x1="900.0" y1="1060.41406714"  x2="801.702690032" y2="1078.78901892" stroke="Black" stroke-width="2"/>
<line x1="801.702690032" y1="1078.78901892"  x2="716.680976459" y2="1131.43223521" stroke="Black" stroke-width="2"/>
<line x1="716.680976459" y1="1131.43223521"  x2="656.417512821" y2="1211.23395793" stroke="Black" stroke-width="2"/>
<line x1="656.417512821" y1="1211.23395793"  x2="629.051213814" y2="1307.41652225" stroke="Black" stroke-width="2"/>
<line x1="629.051213814" y1="1307.41652225"  x2="638.27804976" y2="1406.98993988" stroke="Black" stroke-width="2"/>
<line x1="638.27804976" y1="1406.98993988"  x2="682.851885337" y2="1496.50626902" stroke="Black" stroke-width="2"/>
<line x1="682.851885337" y1="1496.50626902"  x2="756.75277706" y2="1563.87583338" stroke="Black" stroke-width="2"/>
<line x1="756.75277706" y1="1563.87583338"  x2="850.0" y2="1600.0" stroke="Black" stroke-width="2"/>
</svg>
