<svg version="1.1"
     baseProfile="full"
     width="1000" height="1000"
     xmlns="http://www.w3.org/2000/svg">
<line x1="400" y1="500"  x2="500.0" y2="500.0" stroke="Black" stroke-width="2"/>
<line x1="500.0" y1="500.0"  x2="530.901699437" y2="404.89434837" stroke="Black" stroke-width="2"/>
<line x1="530.901699437" y1="404.89434837"  x2="450.0" y2="346.115823141" stroke="Black" stroke-width="2"/>
<line x1="450.0" y1="346.115823141"  x2="369.098300563" y2="404.89434837" stroke="Black" stroke-width="2"/>
<line x1="369.098300563" y1="404.89434837"  x2="400.0" y2="500.0" stroke="Black" stroke-width="2"/>
<line x1="500.0" y1="500.0"  x2="400.0" y2="500.0" stroke="Black" stroke-width="2"/>
<line x1="400.0" y1="500.0"  x2="369.098300563" y2="595.10565163" stroke="Black" stroke-width="2"/>
<line x1="369.098300563" y1="595.10565163"  x2="450.0" y2="653.884176859" stroke="Black" stroke-width="2"/>
<line x1="450.0" y1="653.884176859"  x2="530.901699437" y2="595.10565163" stroke="Black" stroke-width="2"/>
<line x1="530.901699437" y1="595.10565163"  x2="500.0" y2="500.0" stroke="Black" stroke-width="2"/>
<line x1="530.901699437" y1="404.89434837"  x2="500.0" y2="500.0" stroke="Black" stroke-width="2"/>
<line x1="500.0" y1="500.0"  x2="580.901699437" y2="558.778525229" stroke="Black" stroke-width="2"/>
<line x1="580.901699437" y1="558.778525229"  x2="661.803398875" y2="500.0" stroke="Black" stroke-width="2"/>
<line x1="661.803398875" y1="500.0"  x2="630.901699437" y2="404.89434837" stroke="Black" stroke-width="2"/>
<line x1="630.901699437" y1="404.89434837"  x2="530.901699437" y2="404.89434837" stroke="Black" stroke-width="2"/>
<line x1="450.0" y1="346.115823141"  x2="530.901699437" y2="404.89434837" stroke="Black" stroke-width="2"/>
<line x1="530.901699437" y1="404.89434837"  x2="611.803398875" y2="346.115823141" stroke="Black" stroke-width="2"/>
<line x1="611.803398875" y1="346.115823141"  x2="580.901699437" y2="251.010171512" stroke="Black" stroke-width="2"/>
<line x1="580.901699437" y1="251.010171512"  x2="480.901699437" y2="251.010171512" stroke="Black" stroke-width="2"/>
<line x1="480.901699437" y1="251.010171512"  x2="450.0" y2="346.115823141" stroke="Black" stroke-width="2"/>
<line x1="369.098300563" y1="404.89434837"  x2="450.0" y2="346.115823141" stroke="Black" stroke-width="2"/>
<line x1="450.0" y1="346.115823141"  x2="419.098300563" y2="251.010171512" stroke="Black" stroke-width="2"/>
<line x1="419.098300563" y1="251.010171512"  x2="319.098300563" y2="251.010171512" stroke="Black" stroke-width="2"/>
<line x1="319.098300563" y1="251.010171512"  x2="288.196601125" y2="346.115823141" stroke="Black" stroke-width="2"/>
<line x1="288.196601125" y1="346.115823141"  x2="369.098300563" y2="404.89434837" stroke="Black" stroke-width="2"/>
<line x1="400.0" y1="500.0"  x2="369.098300563" y2="404.89434837" stroke="Black" stroke-width="2"/>
<line x1="369.098300563" y1="404.89434837"  x2="269.098300563" y2="404.89434837" stroke="Black" stroke-width="2"/>
<line x1="269.098300563" y1="404.89434837"  x2="238.196601125" y2="500.0" stroke="Black" stroke-width="2"/>
<line x1="238.196601125" y1="500.0"  x2="319.098300563" y2="558.778525229" stroke="Black" stroke-width="2"/>
<line x1="319.098300563" y1="558.778525229"  x2="400.0" y2="500.0" stroke="Black" stroke-width="2"/>
<line x1="400.0" y1="500.0"  x2="500.0" y2="500.0" stroke="Black" stroke-width="2"/>
<line x1="500.0" y1="500.0"  x2="530.901699437" y2="404.89434837" stroke="Black" stroke-width="2"/>
<line x1="530.901699437" y1="404.89434837"  x2="450.0" y2="346.115823141" stroke="Black" stroke-width="2"/>
<line x1="450.0" y1="346.115823141"  x2="369.098300563" y2="404.89434837" stroke="Black" stroke-width="2"/>
<line x1="369.098300563" y1="404.89434837"  x2="400.0" y2="500.0" stroke="Black" stroke-width="2"/>
<line x1="500.0" y1="500.0"  x2="400.0" y2="500.0" stroke="Black" stroke-width="2"/>
<line x1="400.0" y1="500.0"  x2="369.098300563" y2="595.10565163" stroke="Black" stroke-width="2"/>
<line x1="369.098300563" y1="595.10565163"  x2="450.0" y2="653.884176859" stroke="Black" stroke-width="2"/>
<line x1="450.0" y1="653.884176859"  x2="530.901699437" y2="595.10565163" stroke="Black" stroke-width="2"/>
<line x1="530.901699437" y1="595.10565163"  x2="500.0" y2="500.0" stroke="Black" stroke-width="2"/>
<line x1="530.901699437" y1="404.89434837"  x2="500.0" y2="500.0" stroke="Black" stroke-width="2"/>
<line x1="500.0" y1="500.0"  x2="580.901699437" y2="558.778525229" stroke="Black" stroke-width="2"/>
<line x1="580.901699437" y1="558.778525229"  x2="661.803398875" y2="500.0" stroke="Black" stroke-width="2"/>
<line x1="661.803398875" y1="500.0"  x2="630.901699437" y2="404.89434837" stroke="Black" stroke-width="2"/>
<line x1="630.901699437" y1="404.89434837"  x2="530.901699437" y2="404.89434837" stroke="Black" stroke-width="2"/>
<line x1="450.0" y1="346.115823141"  x2="530.901699437" y2="404.89434837" stroke="Black" stroke-width="2"/>
<line x1="530.901699437" y1="404.89434837"  x2="611.803398875" y2="346.115823141" stroke="Black" stroke-width="2"/>
<line x1="611.803398875" y1="346.115823141"  x2="580.901699437" y2="251.010171512" stroke="Black" stroke-width="2"/>
<line x1="580.901699437" y1="251.010171512"  x2="480.901699437" y2="251.010171512" stroke="Black" stroke-width="2"/>
<line x1="480.901699437" y1="251.010171512"  x2="450.0" y2="346.115823141" stroke="Black" stroke-width="2"/>
<line x1="369.098300563" y1="404.89434837"  x2="450.0" y2="346.115823141" stroke="Black" stroke-width="2"/>
<line x1="450.0" y1="346.115823141"  x2="419.098300563" y2="251.010171512" stroke="Black" stroke-width="2"/>
<line x1="419.098300563" y1="251.010171512"  x2="319.098300563" y2="251.010171512" stroke="Black" stroke-width="2"/>
<line x1="319.098300563" y1="251.010171512"  x2="288.196601125" y2="346.115823141" stroke="Black" stroke-width="2"/>
<line x1="288.196601125" y1="346.115823141"  x2="369.098300563" y2="404.89434837" stroke="Black" stroke-width="2"/>
<line x1="400.0" y1="500.0"  x2="369.098300563" y2="404.89434837" stroke="Black" stroke-width="2"/>
<line x1="369.098300563" y1="404.89434837"  x2="269.098300563" y2="404.89434837" stroke="Black" stroke-width="2"/>
<line x1="269.098300563" y1="404.89434837"  x2="238.196601125" y2="500.0" stroke="Black" stroke-width="2"/>
<line x1="238.196601125" y1="500.0"  x2="319.098300563" y2="558.778525229" stroke="Black" stroke-width="2"/>
<line x1="319.098300563" y1="558.778525229"  x2="400.0" y2="500.0" stroke="Black" stroke-width="2"/>
<line x1="530.901699437" y1="404.89434837"  x2="500.0" y2="500.0" stroke="Black" stroke-width="2"/>
<line x1="500.0" y1="500.0"  x2="580.901699437" y2="558.778525229" stroke="Black" stroke-width="2"/>
<line x1="580.901699437" y1="558.778525229"  x2="661.803398875" y2="500.0" stroke="Black" stroke-width="2"/>
<line x1="661.803398875" y1="500.0"  x2="630.901699437" y2="404.89434837" stroke="Black" stroke-width="2"/>
<line x1="630.901699437" y1="404.89434837"  x2="530.901699437" y2="404.89434837" stroke="Black" stroke-width="2"/>
<line x1="500.0" y1="500.0"  x2="530.901699437" y2="404.89434837" stroke="Black" stroke-width="2"/>
<line x1="530.901699437" y1="404.89434837"  x2="450.0" y2="346.115823141" stroke="Black" stroke-width="2"/>
<line x1="450.0" y1="346.115823141"  x2="369.098300563" y2="404.89434837" stroke="Black" stroke-width="2"/>
<line x1="369.098300563" y1="404.89434837"  x2="400.0" y2="500.0" stroke="Black" stroke-width="2"/>
<line x1="400.0" y1="500.0"  x2="500.0" y2="500.0" stroke="Black" stroke-width="2"/>
<line x1="580.901699437" y1="558.778525229"  x2="500.0" y2="500.0" stroke="Black" stroke-width="2"/>
<line x1="500.0" y1="500.0"  x2="419.098300563" y2="558.778525229" stroke="Black" stroke-width="2"/>
<line x1="419.098300563" y1="558.778525229"  x2="450.0" y2="653.884176859" stroke="Black" stroke-width="2"/>
<line x1="450.0" y1="653.884176859"  x2="550.0" y2="653.884176859" stroke="Black" stroke-width="2"/>
<line x1="550.0" y1="653.884176859"  x2="580.901699437" y2="558.778525229" stroke="Black" stroke-width="2"/>
<line x1="661.803398875" y1="500.0"  x2="580.901699437" y2="558.778525229" stroke="Black" stroke-width="2"/>
<line x1="580.901699437" y1="558.778525229"  x2="611.803398875" y2="653.884176859" stroke="Black" stroke-width="2"/>
<line x1="611.803398875" y1="653.884176859"  x2="711.803398875" y2="653.884176859" stroke="Black" stroke-width="2"/>
<line x1="711.803398875" y1="653.884176859"  x2="742.705098312" y2="558.778525229" stroke="Black" stroke-width="2"/>
<line x1="742.705098312" y1="558.778525229"  x2="661.803398875" y2="500.0" stroke="Black" stroke-width="2"/>
<line x1="630.901699437" y1="404.89434837"  x2="661.803398875" y2="500.0" stroke="Black" stroke-width="2"/>
<line x1="661.803398875" y1="500.0"  x2="761.803398875" y2="500.0" stroke="Black" stroke-width="2"/>
<line x1="761.803398875" y1="500.0"  x2="792.705098312" y2="404.89434837" stroke="Black" stroke-width="2"/>
<line x1="792.705098312" y1="404.89434837"  x2="711.803398875" y2="346.115823141" stroke="Black" stroke-width="2"/>
<line x1="711.803398875" y1="346.115823141"  x2="630.901699437" y2="404.89434837" stroke="Black" stroke-width="2"/>
<line x1="530.901699437" y1="404.89434837"  x2="630.901699437" y2="404.89434837" stroke="Black" stroke-width="2"/>
<line x1="630.901699437" y1="404.89434837"  x2="661.803398875" y2="309.788696741" stroke="Black" stroke-width="2"/>
<line x1="661.803398875" y1="309.788696741"  x2="580.901699437" y2="251.010171512" stroke="Black" stroke-width="2"/>
<line x1="580.901699437" y1="251.010171512"  x2="500.0" y2="309.788696741" stroke="Black" stroke-width="2"/>
<line x1="500.0" y1="309.788696741"  x2="530.901699437" y2="404.89434837" stroke="Black" stroke-width="2"/>
<line x1="580.901699437" y1="558.778525229"  x2="500.0" y2="500.0" stroke="Black" stroke-width="2"/>
<line x1="500.0" y1="500.0"  x2="419.098300563" y2="558.778525229" stroke="Black" stroke-width="2"/>
<line x1="419.098300563" y1="558.778525229"  x2="450.0" y2="653.884176859" stroke="Black" stroke-width="2"/>
<line x1="450.0" y1="653.884176859"  x2="550.0" y2="653.884176859" stroke="Black" stroke-width="2"/>
<line x1="550.0" y1="653.884176859"  x2="580.901699437" y2="558.778525229" stroke="Black" stroke-width="2"/>
<line x1="500.0" y1="500.0"  x2="580.901699437" y2="558.778525229" stroke="Black" stroke-width="2"/>
<line x1="580.901699437" y1="558.778525229"  x2="661.803398875" y2="500.0" stroke="Black" stroke-width="2"/>
<line x1="661.803398875" y1="500.0"  x2="630.901699437" y2="404.89434837" stroke="Black" stroke-width="2"/>
<line x1="630.901699437" y1="404.89434837"  x2="530.901699437" y2="404.89434837" stroke="Black" stroke-width="2"/>
<line x1="530.901699437" y1="404.89434837"  x2="500.0" y2="500.0" stroke="Black" stroke-width="2"/>
<line x1="419.098300563" y1="558.778525229"  x2="500.0" y2="500.0" stroke="Black" stroke-width="2"/>
<line x1="500.0" y1="500.0"  x2="469.098300563" y2="404.89434837" stroke="Black" stroke-width="2"/>
<line x1="469.098300563" y1="404.89434837"  x2="369.098300563" y2="404.89434837" stroke="Black" stroke-width="2"/>
<line x1="369.098300563" y1="404.89434837"  x2="338.196601125" y2="500.0" stroke="Black" stroke-width="2"/>
<line x1="338.196601125" y1="500.0"  x2="419.098300563" y2="558.778525229" stroke="Black" stroke-width="2"/>
<line x1="450.0" y1="653.884176859"  x2="419.098300563" y2="558.778525229" stroke="Black" stroke-width="2"/>
<line x1="419.098300563" y1="558.778525229"  x2="319.098300563" y2="558.778525229" stroke="Black" stroke-width="2"/>
<line x1="319.098300563" y1="558.778525229"  x2="288.196601125" y2="653.884176859" stroke="Black" stroke-width="2"/>
<line x1="288.196601125" y1="653.884176859"  x2="369.098300563" y2="712.662702088" stroke="Black" stroke-width="2"/>
<line x1="369.098300563" y1="712.662702088"  x2="450.0" y2="653.884176859" stroke="Black" stroke-width="2"/>
<line x1="550.0" y1="653.884176859"  x2="450.0" y2="653.884176859" stroke="Black" stroke-width="2"/>
<line x1="450.0" y1="653.884176859"  x2="419.098300563" y2="748.989828488" stroke="Black" stroke-width="2"/>
<line x1="419.098300563" y1="748.989828488"  x2="500.0" y2="807.768353718" stroke="Black" stroke-width="2"/>
<line x1="500.0" y1="807.768353718"  x2="580.901699437" y2="748.989828488" stroke="Black" stroke-width="2"/>
<line x1="580.901699437" y1="748.989828488"  x2="550.0" y2="653.884176859" stroke="Black" stroke-width="2"/>
<line x1="580.901699437" y1="558.778525229"  x2="550.0" y2="653.884176859" stroke="Black" stroke-width="2"/>
<line x1="550.0" y1="653.884176859"  x2="630.901699437" y2="712.662702088" stroke="Black" stroke-width="2"/>
<line x1="630.901699437" y1="712.662702088"  x2="711.803398875" y2="653.884176859" stroke="Black" stroke-width="2"/>
<line x1="711.803398875" y1="653.884176859"  x2="680.901699437" y2="558.778525229" stroke="Black" stroke-width="2"/>
<line x1="680.901699437" y1="558.778525229"  x2="580.901699437" y2="558.778525229" stroke="Black" stroke-width="2"/>
<line x1="419.098300563" y1="558.778525229"  x2="500.0" y2="500.0" stroke="Black" stroke-width="2"/>
<line x1="500.0" y1="500.0"  x2="469.098300563" y2="404.89434837" stroke="Black" stroke-width="2"/>
<line x1="469.098300563" y1="404.89434837"  x2="369.098300563" y2="404.89434837" stroke="Black" stroke-width="2"/>
<line x1="369.098300563" y1="404.89434837"  x2="338.196601125" y2="500.0" stroke="Black" stroke-width="2"/>
<line x1="338.196601125" y1="500.0"  x2="419.098300563" y2="558.778525229" stroke="Black" stroke-width="2"/>
<line x1="500.0" y1="500.0"  x2="419.098300563" y2="558.778525229" stroke="Black" stroke-width="2"/>
<line x1="419.098300563" y1="558.778525229"  x2="450.0" y2="653.884176859" stroke="Black" stroke-width="2"/>
<line x1="450.0" y1="653.884176859"  x2="550.0" y2="653.884176859" stroke="Black" stroke-width="2"/>
<line x1="550.0" y1="653.884176859"  x2="580.901699437" y2="558.778525229" stroke="Black" stroke-width="2"/>
<line x1="580.901699437" y1="558.778525229"  x2="500.0" y2="500.0" stroke="Black" stroke-width="2"/>
<line x1="469.098300563" y1="404.89434837"  x2="500.0" y2="500.0" stroke="Black" stroke-width="2"/>
<line x1="500.0" y1="500.0"  x2="600.0" y2="500.0" stroke="Black" stroke-width="2"/>
<line x1="600.0" y1="500.0"  x2="630.901699437" y2="404.89434837" stroke="Black" stroke-width="2"/>
<line x1="630.901699437" y1="404.89434837"  x2="550.0" y2="346.115823141" stroke="Black" stroke-width="2"/>
<line x1="550.0" y1="346.115823141"  x2="469.098300563" y2="404.89434837" stroke="Black" stroke-width="2"/>
<line x1="369.098300563" y1="404.89434837"  x2="469.098300563" y2="404.89434837" stroke="Black" stroke-width="2"/>
<line x1="469.098300563" y1="404.89434837"  x2="500.0" y2="309.788696741" stroke="Black" stroke-width="2"/>
<line x1="500.0" y1="309.788696741"  x2="419.098300563" y2="251.010171512" stroke="Black" stroke-width="2"/>
<line x1="419.098300563" y1="251.010171512"  x2="338.196601125" y2="309.788696741" stroke="Black" stroke-width="2"/>
<line x1="338.196601125" y1="309.788696741"  x2="369.098300563" y2="404.89434837" stroke="Black" stroke-width="2"/>
<line x1="338.196601125" y1="500.0"  x2="369.098300563" y2="404.89434837" stroke="Black" stroke-width="2"/>
<line x1="369.098300563" y1="404.89434837"  x2="288.196601125" y2="346.115823141" stroke="Black" stroke-width="2"/>
<line x1="288.196601125" y1="346.115823141"  x2="207.294901688" y2="404.89434837" stroke="Black" stroke-width="2"/>
<line x1="207.294901688" y1="404.89434837"  x2="238.196601125" y2="500.0" stroke="Black" stroke-width="2"/>
<line x1="238.196601125" y1="500.0"  x2="338.196601125" y2="500.0" stroke="Black" stroke-width="2"/>
<line x1="419.098300563" y1="558.778525229"  x2="338.196601125" y2="500.0" stroke="Black" stroke-width="2"/>
<line x1="338.196601125" y1="500.0"  x2="257.294901688" y2="558.778525229" stroke="Black" stroke-width="2"/>
<line x1="257.294901688" y1="558.778525229"  x2="288.196601125" y2="653.884176859" stroke="Black" stroke-width="2"/>
<line x1="288.196601125" y1="653.884176859"  x2="388.196601125" y2="653.884176859" stroke="Black" stroke-width="2"/>
<line x1="388.196601125" y1="653.884176859"  x2="419.098300563" y2="558.778525229" stroke="Black" stroke-width="2"/>
<line x1="469.098300563" y1="404.89434837"  x2="500.0" y2="500.0" stroke="Black" stroke-width="2"/>
<line x1="500.0" y1="500.0"  x2="600.0" y2="500.0" stroke="Black" stroke-width="2"/>
<line x1="600.0" y1="500.0"  x2="630.901699437" y2="404.89434837" stroke="Black" stroke-width="2"/>
<line x1="630.901699437" y1="404.89434837"  x2="550.0" y2="346.115823141" stroke="Black" stroke-width="2"/>
<line x1="550.0" y1="346.115823141"  x2="469.098300563" y2="404.89434837" stroke="Black" stroke-width="2"/>
<line x1="500.0" y1="500.0"  x2="469.098300563" y2="404.89434837" stroke="Black" stroke-width="2"/>
<line x1="469.098300563" y1="404.89434837"  x2="369.098300563" y2="404.89434837" stroke="Black" stroke-width="2"/>
<line x1="369.098300563" y1="404.89434837"  x2="338.196601125" y2="500.0" stroke="Black" stroke-width="2"/>
<line x1="338.196601125" y1="500.0"  x2="419.098300563" y2="558.778525229" stroke="Black" stroke-width="2"/>
<line x1="419.098300563" y1="558.778525229"  x2="500.0" y2="500.0" stroke="Black" stroke-width="2"/>
<line x1="600.0" y1="500.0"  x2="500.0" y2="500.0" stroke="Black" stroke-width="2"/>
<line x1="500.0" y1="500.0"  x2="469.098300563" y2="595.10565163" stroke="Black" stroke-width="2"/>
<line x1="469.098300563" y1="595.10565163"  x2="550.0" y2="653.884176859" stroke="Black" stroke-width="2"/>
<line x1="550.0" y1="653.884176859"  x2="630.901699437" y2="595.10565163" stroke="Black" stroke-width="2"/>
<line x1="630.901699437" y1="595.10565163"  x2="600.0" y2="500.0" stroke="Black" stroke-width="2"/>
<line x1="630.901699437" y1="404.89434837"  x2="600.0" y2="500.0" stroke="Black" stroke-width="2"/>
<line x1="600.0" y1="500.0"  x2="680.901699437" y2="558.778525229" stroke="Black" stroke-width="2"/>
<line x1="680.901699437" y1="558.778525229"  x2="761.803398875" y2="500.0" stroke="Black" stroke-width="2"/>
<line x1="761.803398875" y1="500.0"  x2="730.901699437" y2="404.89434837" stroke="Black" stroke-width="2"/>
<line x1="730.901699437" y1="404.89434837"  x2="630.901699437" y2="404.89434837" stroke="Black" stroke-width="2"/>
<line x1="550.0" y1="346.115823141"  x2="630.901699437" y2="404.89434837" stroke="Black" stroke-width="2"/>
<line x1="630.901699437" y1="404.89434837"  x2="711.803398875" y2="346.115823141" stroke="Black" stroke-width="2"/>
<line x1="711.803398875" y1="346.115823141"  x2="680.901699437" y2="251.010171512" stroke="Black" stroke-width="2"/>
<line x1="680.901699437" y1="251.010171512"  x2="580.901699437" y2="251.010171512" stroke="Black" stroke-width="2"/>
<line x1="580.901699437" y1="251.010171512"  x2="550.0" y2="346.115823141" stroke="Black" stroke-width="2"/>
<line x1="469.098300563" y1="404.89434837"  x2="550.0" y2="346.115823141" stroke="Black" stroke-width="2"/>
<line x1="550.0" y1="346.115823141"  x2="519.098300563" y2="251.010171512" stroke="Black" stroke-width="2"/>
<line x1="519.098300563" y1="251.010171512"  x2="419.098300563" y2="251.010171512" stroke="Black" stroke-width="2"/>
<line x1="419.098300563" y1="251.010171512"  x2="388.196601125" y2="346.115823141" stroke="Black" stroke-width="2"/>
<line x1="388.196601125" y1="346.115823141"  x2="469.098300563" y2="404.89434837" stroke="Black" stroke-width="2"/>
</svg>
