<svg version="1.1"
     baseProfile="full"
     width="200" height="200"
     xmlns="http://www.w3.org/2000/svg">
<line x1="400" y1="100"  x2="200" y2="100" stroke="Black" stroke-width="2"/>
<line x1="300" y1="0"  x2="300" y2="200" stroke="Black" stroke-width="2"/>
<circle cx="198.681793261" cy="206.774895731" r="1" stroke="Black" fill="Black" stroke-width="2"  />
<circle cx="199.974155749" cy="202.153913074" r="1" stroke="Black" fill="Black" stroke-width="2"  />
<circle cx="200.682622339" cy="199.544184977" r="1" stroke="Black" fill="Black" stroke-width="2"  />
<circle cx="200.326368694" cy="202.25818325" r="1" stroke="Black" fill="Black" stroke-width="2"  />
<circle cx="200.710272629" cy="198.516583516" r="1" stroke="Black" fill="Black" stroke-width="2"  />
<circle cx="200.378245694" cy="200.508035197" r="1" stroke="Black" fill="Black" stroke-width="2"  />
<circle cx="199.566827501" cy="201.43505318" r="1" stroke="Black" fill="Black" stroke-width="2"  />
<circle cx="201.869873026" cy="198.687004362" r="1" stroke="Black" fill="Black" stroke-width="2"  />
<circle cx="201.640663264" cy="197.094110082" r="1" stroke="Black" fill="Black" stroke-width="2"  />
<circle cx="199.160039336" cy="204.465459634" r="1" stroke="Black" fill="Black" stroke-width="2"  />
<circle cx="200.293467546" cy="198.965203011" r="1" stroke="Black" fill="Black" stroke-width="2"  />
<circle cx="199.944544259" cy="202.136668078" r="1" stroke="Black" fill="Black" stroke-width="2"  />
<circle cx="198.935531516" cy="206.907333256" r="1" stroke="Black" fill="Black" stroke-width="2"  />
<circle cx="198.22233832" cy="203.555161849" r="1" stroke="Black" fill="Black" stroke-width="2"  />
<circle cx="199.41957426" cy="201.61957971" r="1" stroke="Black" fill="Black" stroke-width="2"  />
<circle cx="200.73551762" cy="199.748045505" r="1" stroke="Black" fill="Black" stroke-width="2"  />
<circle cx="201.192226534" cy="197.545295297" r="1" stroke="Black" fill="Black" stroke-width="2"  />
<circle cx="198.142169265" cy="205.15114669" r="1" stroke="Black" fill="Black" stroke-width="2"  />
<circle cx="199.278439494" cy="202.422771373" r="1" stroke="Black" fill="Black" stroke-width="2"  />
<circle cx="200.821288252" cy="199.688239629" r="1" stroke="Black" fill="Black" stroke-width="2"  />
<circle cx="199.068515306" cy="204.99708454" r="1" stroke="Black" fill="Black" stroke-width="2"  />
<circle cx="199.836418331" cy="202.076058925" r="1" stroke="Black" fill="Black" stroke-width="2"  />
<circle cx="201.377898141" cy="197.004517411" r="1" stroke="Black" fill="Black" stroke-width="2"  />
<circle cx="200.755415633" cy="199.583914151" r="1" stroke="Black" fill="Black" stroke-width="2"  />
<circle cx="198.482045341" cy="205.459865814" r="1" stroke="Black" fill="Black" stroke-width="2"  />
<circle cx="198.84389631" cy="203.612251413" r="1" stroke="Black" fill="Black" stroke-width="2"  />
<circle cx="201.753784811" cy="196.409103561" r="1" stroke="Black" fill="Black" stroke-width="2"  />
<circle cx="200.317609597" cy="201.511895086" r="1" stroke="Black" fill="Black" stroke-width="2"  />
<circle cx="201.342920155" cy="198.387961985" r="1" stroke="Black" fill="Black" stroke-width="2"  />
<circle cx="198.840991904" cy="205.054828338" r="1" stroke="Black" fill="Black" stroke-width="2"  />
<circle cx="198.562059563" cy="204.337630002" r="1" stroke="Black" fill="Black" stroke-width="2"  />
<circle cx="200.183019191" cy="201.369318799" r="1" stroke="Black" fill="Black" stroke-width="2"  />
<circle cx="199.944045796" cy="202.336747922" r="1" stroke="Black" fill="Black" stroke-width="2"  />
<circle cx="200.950647447" cy="200.864372124" r="1" stroke="Black" fill="Black" stroke-width="2"  />
<circle cx="201.595060725" cy="197.984265824" r="1" stroke="Black" fill="Black" stroke-width="2"  />
<circle cx="198.363683757" cy="204.946467529" r="1" stroke="Black" fill="Black" stroke-width="2"  />
<circle cx="199.415481157" cy="203.206311772" r="1" stroke="Black" fill="Black" stroke-width="2"  />
<circle cx="198.189944478" cy="204.299112101" r="1" stroke="Black" fill="Black" stroke-width="2"  />
<circle cx="201.799597877" cy="197.114632154" r="1" stroke="Black" fill="Black" stroke-width="2"  />
<circle cx="199.391168742" cy="200.565111043" r="1" stroke="Black" fill="Black" stroke-width="2"  />
<circle cx="200.925968951" cy="196.638366684" r="1" stroke="Black" fill="Black" stroke-width="2"  />
<circle cx="200.6017463" cy="199.318544194" r="1" stroke="Black" fill="Black" stroke-width="2"  />
<circle cx="201.851639135" cy="198.108514867" r="1" stroke="Black" fill="Black" stroke-width="2"  />
<circle cx="198.829476204" cy="204.917672481" r="1" stroke="Black" fill="Black" stroke-width="2"  />
<circle cx="198.293542817" cy="204.769366336" r="1" stroke="Black" fill="Black" stroke-width="2"  />
<circle cx="198.026799524" cy="206.422001415" r="1" stroke="Black" fill="Black" stroke-width="2"  />
<circle cx="199.936267755" cy="202.756232753" r="1" stroke="Black" fill="Black" stroke-width="2"  />
<circle cx="198.600875252" cy="203.590225509" r="1" stroke="Black" fill="Black" stroke-width="2"  />
<circle cx="198.169875248" cy="206.105310449" r="1" stroke="Black" fill="Black" stroke-width="2"  />
<circle cx="201.756290276" cy="196.405951948" r="1" stroke="Black" fill="Black" stroke-width="2"  />
<circle cx="201.335416615" cy="198.335265495" r="1" stroke="Black" fill="Black" stroke-width="2"  />
<circle cx="200.16456803" cy="201.430024252" r="1" stroke="Black" fill="Black" stroke-width="2"  />
<circle cx="200.982186795" cy="198.997829849" r="1" stroke="Black" fill="Black" stroke-width="2"  />
<circle cx="198.362624343" cy="204.293363465" r="1" stroke="Black" fill="Black" stroke-width="2"  />
<circle cx="198.204729456" cy="207.137846626" r="1" stroke="Black" fill="Black" stroke-width="2"  />
<circle cx="200.121238906" cy="202.207909652" r="1" stroke="Black" fill="Black" stroke-width="2"  />
<circle cx="198.044684918" cy="206.505158092" r="1" stroke="Black" fill="Black" stroke-width="2"  />
<circle cx="198.012446946" cy="206.400128206" r="1" stroke="Black" fill="Black" stroke-width="2"  />
<circle cx="201.28064705" cy="199.178773613" r="1" stroke="Black" fill="Black" stroke-width="2"  />
<circle cx="201.980355159" cy="197.059832914" r="1" stroke="Black" fill="Black" stroke-width="2"  />
<circle cx="198.553370375" cy="204.916661083" r="1" stroke="Black" fill="Black" stroke-width="2"  />
<circle cx="201.977262925" cy="197.08078665" r="1" stroke="Black" fill="Black" stroke-width="2"  />
<circle cx="199.719407816" cy="202.247214183" r="1" stroke="Black" fill="Black" stroke-width="2"  />
<circle cx="198.583134894" cy="203.798837859" r="1" stroke="Black" fill="Black" stroke-width="2"  />
<circle cx="199.59651213" cy="202.756725177" r="1" stroke="Black" fill="Black" stroke-width="2"  />
<circle cx="201.372402601" cy="199.542045123" r="1" stroke="Black" fill="Black" stroke-width="2"  />
<circle cx="200.42768334" cy="200.80601616" r="1" stroke="Black" fill="Black" stroke-width="2"  />
<circle cx="198.009519632" cy="207.716705403" r="1" stroke="Black" fill="Black" stroke-width="2"  />
<circle cx="201.849775348" cy="197.183057363" r="1" stroke="Black" fill="Black" stroke-width="2"  />
<circle cx="200.29765277" cy="201.102708805" r="1" stroke="Black" fill="Black" stroke-width="2"  />
<circle cx="200.730121078" cy="200.247273418" r="1" stroke="Black" fill="Black" stroke-width="2"  />
<circle cx="199.539611721" cy="201.104050984" r="1" stroke="Black" fill="Black" stroke-width="2"  />
<circle cx="198.423490729" cy="205.009594077" r="1" stroke="Black" fill="Black" stroke-width="2"  />
<circle cx="200.806164789" cy="198.861397589" r="1" stroke="Black" fill="Black" stroke-width="2"  />
<circle cx="199.64484089" cy="201.207343804" r="1" stroke="Black" fill="Black" stroke-width="2"  />
<circle cx="199.329492489" cy="203.903047832" r="1" stroke="Black" fill="Black" stroke-width="2"  />
<circle cx="199.676628267" cy="202.386821197" r="1" stroke="Black" fill="Black" stroke-width="2"  />
<circle cx="200.61839289" cy="198.297422423" r="1" stroke="Black" fill="Black" stroke-width="2"  />
<circle cx="201.991612984" cy="196.549575505" r="1" stroke="Black" fill="Black" stroke-width="2"  />
<circle cx="198.331982838" cy="205.032739343" r="1" stroke="Black" fill="Black" stroke-width="2"  />
<circle cx="199.941547731" cy="202.349677338" r="1" stroke="Black" fill="Black" stroke-width="2"  />
<circle cx="200.207516999" cy="201.493246374" r="1" stroke="Black" fill="Black" stroke-width="2"  />
<circle cx="201.107656567" cy="198.017554902" r="1" stroke="Black" fill="Black" stroke-width="2"  />
<circle cx="198.926599202" cy="203.255906113" r="1" stroke="Black" fill="Black" stroke-width="2"  />
<circle cx="198.870059239" cy="205.280611994" r="1" stroke="Black" fill="Black" stroke-width="2"  />
<circle cx="200.573258877" cy="198.607651903" r="1" stroke="Black" fill="Black" stroke-width="2"  />
<circle cx="198.586303718" cy="204.465642334" r="1" stroke="Black" fill="Black" stroke-width="2"  />
<circle cx="201.091495461" cy="198.548761718" r="1" stroke="Black" fill="Black" stroke-width="2"  />
<circle cx="201.767058996" cy="196.750903186" r="1" stroke="Black" fill="Black" stroke-width="2"  />
<circle cx="201.225599585" cy="196.882780735" r="1" stroke="Black" fill="Black" stroke-width="2"  />
<circle cx="198.50622148" cy="206.12665039" r="1" stroke="Black" fill="Black" stroke-width="2"  />
<circle cx="201.577322262" cy="198.52826641" r="1" stroke="Black" fill="Black" stroke-width="2"  />
<circle cx="200.379776122" cy="200.490733993" r="1" stroke="Black" fill="Black" stroke-width="2"  />
<circle cx="201.733536513" cy="199.522873742" r="1" stroke="Black" fill="Black" stroke-width="2"  />
<circle cx="198.263898874" cy="205.879611179" r="1" stroke="Black" fill="Black" stroke-width="2"  />
<circle cx="200.65511888" cy="199.408808857" r="1" stroke="Black" fill="Black" stroke-width="2"  />
<circle cx="198.703144369" cy="204.71675569" r="1" stroke="Black" fill="Black" stroke-width="2"  />
<circle cx="201.684513544" cy="196.267764554" r="1" stroke="Black" fill="Black" stroke-width="2"  />
<circle cx="198.745770326" cy="204.72882585" r="1" stroke="Black" fill="Black" stroke-width="2"  />
<circle cx="200.287878558" cy="200.317712806" r="1" stroke="Black" fill="Black" stroke-width="2"  />
</svg>
