<svg version="1.1"
     baseProfile="full"
     width="200" height="200"
     xmlns="http://www.w3.org/2000/svg">
<line x1="-1150.0" y1="100.0"  x2="1350.0" y2="100.0" stroke="Black" stroke-width="2"/>
<line x1="100.0" y1="1350.0"  x2="100.0" y2="-1150.0" stroke="Black" stroke-width="2"/>
<circle cx="116.477584234" cy="15.3138033579" r="1" stroke="Black" fill="Black" stroke-width="2"  />
<circle cx="100.323053137" cy="73.076086569" r="1" stroke="Black" fill="Black" stroke-width="2"  />
<circle cx="91.4672207577" cy="105.697687782" r="1" stroke="Black" fill="Black" stroke-width="2"  />
<circle cx="95.9203913208" cy="71.7727093806" r="1" stroke="Black" fill="Black" stroke-width="2"  />
<circle cx="91.1215921375" cy="118.542706049" r="1" stroke="Black" fill="Black" stroke-width="2"  />
<circle cx="95.2719288212" cy="93.6495600379" r="1" stroke="Black" fill="Black" stroke-width="2"  />
<circle cx="105.414656239" cy="82.0618352479" r="1" stroke="Black" fill="Black" stroke-width="2"  />
<circle cx="76.6265871737" cy="116.412445469" r="1" stroke="Black" fill="Black" stroke-width="2"  />
<circle cx="79.4917092036" cy="136.32362398" r="1" stroke="Black" fill="Black" stroke-width="2"  />
<circle cx="110.499508297" cy="44.181754578" r="1" stroke="Black" fill="Black" stroke-width="2"  />
<circle cx="96.3316556698" cy="112.934962364" r="1" stroke="Black" fill="Black" stroke-width="2"  />
<circle cx="100.693196761" cy="73.2916490261" r="1" stroke="Black" fill="Black" stroke-width="2"  />
<circle cx="113.305856045" cy="13.6583343026" r="1" stroke="Black" fill="Black" stroke-width="2"  />
<circle cx="122.220770994" cy="55.56047689" r="1" stroke="Black" fill="Black" stroke-width="2"  />
<circle cx="107.255321749" cy="79.7552536199" r="1" stroke="Black" fill="Black" stroke-width="2"  />
<circle cx="90.8060297489" cy="103.14943119" r="1" stroke="Black" fill="Black" stroke-width="2"  />
<circle cx="85.0971683257" cy="130.683808783" r="1" stroke="Black" fill="Black" stroke-width="2"  />
<circle cx="123.222884182" cy="35.6106663782" r="1" stroke="Black" fill="Black" stroke-width="2"  />
<circle cx="109.019506323" cy="69.7153578419" r="1" stroke="Black" fill="Black" stroke-width="2"  />
<circle cx="89.733896845" cy="103.897004637" r="1" stroke="Black" fill="Black" stroke-width="2"  />
<circle cx="111.643558681" cy="37.5364432514" r="1" stroke="Black" fill="Black" stroke-width="2"  />
<circle cx="102.044770857" cy="74.0492634341" r="1" stroke="Black" fill="Black" stroke-width="2"  />
<circle cx="82.7762732327" cy="137.443532358" r="1" stroke="Black" fill="Black" stroke-width="2"  />
<circle cx="90.5573045822" cy="105.201073112" r="1" stroke="Black" fill="Black" stroke-width="2"  />
<circle cx="118.974433244" cy="31.7516773277" r="1" stroke="Black" fill="Black" stroke-width="2"  />
<circle cx="114.451296121" cy="54.8468573313" r="1" stroke="Black" fill="Black" stroke-width="2"  />
<circle cx="78.0776898616" cy="144.886205489" r="1" stroke="Black" fill="Black" stroke-width="2"  />
<circle cx="96.0298800417" cy="81.1013114232" r="1" stroke="Black" fill="Black" stroke-width="2"  />
<circle cx="83.2134980591" cy="120.150475193" r="1" stroke="Black" fill="Black" stroke-width="2"  />
<circle cx="114.487601195" cy="36.8146457801" r="1" stroke="Black" fill="Black" stroke-width="2"  />
<circle cx="117.974255462" cy="45.7796249811" r="1" stroke="Black" fill="Black" stroke-width="2"  />
<circle cx="97.7122601185" cy="82.8835150165" r="1" stroke="Black" fill="Black" stroke-width="2"  />
<circle cx="100.699427544" cy="70.7906509716" r="1" stroke="Black" fill="Black" stroke-width="2"  />
<circle cx="88.1169069111" cy="89.1953484454" r="1" stroke="Black" fill="Black" stroke-width="2"  />
<circle cx="80.0617409386" cy="125.196677194" r="1" stroke="Black" fill="Black" stroke-width="2"  />
<circle cx="120.453953036" cy="38.1691558929" r="1" stroke="Black" fill="Black" stroke-width="2"  />
<circle cx="107.306485538" cy="59.9211028518" r="1" stroke="Black" fill="Black" stroke-width="2"  />
<circle cx="122.62569403" cy="46.2610987338" r="1" stroke="Black" fill="Black" stroke-width="2"  />
<circle cx="77.5050265374" cy="136.067098074" r="1" stroke="Black" fill="Black" stroke-width="2"  />
<circle cx="107.610390722" cy="92.9361119569" r="1" stroke="Black" fill="Black" stroke-width="2"  />
<circle cx="88.4253881074" cy="142.020416456" r="1" stroke="Black" fill="Black" stroke-width="2"  />
<circle cx="92.4781712471" cy="108.518197571" r="1" stroke="Black" fill="Black" stroke-width="2"  />
<circle cx="76.8545108162" cy="123.643564165" r="1" stroke="Black" fill="Black" stroke-width="2"  />
<circle cx="114.631547445" cy="38.5290939861" r="1" stroke="Black" fill="Black" stroke-width="2"  />
<circle cx="121.330714784" cy="40.3829207985" r="1" stroke="Black" fill="Black" stroke-width="2"  />
<circle cx="124.665005947" cy="19.7249823138" r="1" stroke="Black" fill="Black" stroke-width="2"  />
<circle cx="100.796653061" cy="65.5470905881" r="1" stroke="Black" fill="Black" stroke-width="2"  />
<circle cx="117.489059344" cy="55.1221811315" r="1" stroke="Black" fill="Black" stroke-width="2"  />
<circle cx="122.876559404" cy="23.6836193834" r="1" stroke="Black" fill="Black" stroke-width="2"  />
<circle cx="78.0463715453" cy="144.925600648" r="1" stroke="Black" fill="Black" stroke-width="2"  />
<circle cx="83.3072923109" cy="120.80918131" r="1" stroke="Black" fill="Black" stroke-width="2"  />
<circle cx="97.9428996262" cy="82.1246968534" r="1" stroke="Black" fill="Black" stroke-width="2"  />
<circle cx="87.72266506" cy="112.527126888" r="1" stroke="Black" fill="Black" stroke-width="2"  />
<circle cx="120.467195711" cy="46.332956692" r="1" stroke="Black" fill="Black" stroke-width="2"  />
<circle cx="122.440881797" cy="10.7769171785" r="1" stroke="Black" fill="Black" stroke-width="2"  />
<circle cx="98.4845136799" cy="72.4011293471" r="1" stroke="Black" fill="Black" stroke-width="2"  />
<circle cx="124.441438525" cy="18.685523851" r="1" stroke="Black" fill="Black" stroke-width="2"  />
<circle cx="124.84441318" cy="19.9983974254" r="1" stroke="Black" fill="Black" stroke-width="2"  />
<circle cx="83.9919118776" cy="110.265329833" r="1" stroke="Black" fill="Black" stroke-width="2"  />
<circle cx="75.245560508" cy="136.752088569" r="1" stroke="Black" fill="Black" stroke-width="2"  />
<circle cx="118.082870314" cy="38.5417364571" r="1" stroke="Black" fill="Black" stroke-width="2"  />
<circle cx="75.2842134374" cy="136.490166876" r="1" stroke="Black" fill="Black" stroke-width="2"  />
<circle cx="103.507402298" cy="71.9098227108" r="1" stroke="Black" fill="Black" stroke-width="2"  />
<circle cx="117.71081383" cy="52.5145267577" r="1" stroke="Black" fill="Black" stroke-width="2"  />
<circle cx="105.04359838" cy="65.5409352849" r="1" stroke="Black" fill="Black" stroke-width="2"  />
<circle cx="82.8449674879" cy="105.724435957" r="1" stroke="Black" fill="Black" stroke-width="2"  />
<circle cx="94.6539582526" cy="89.9247979956" r="1" stroke="Black" fill="Black" stroke-width="2"  />
<circle cx="124.881004594" cy="3.54118245669" r="1" stroke="Black" fill="Black" stroke-width="2"  />
<circle cx="76.8778081442" cy="135.211782957" r="1" stroke="Black" fill="Black" stroke-width="2"  />
<circle cx="96.2793403794" cy="86.2161399382" r="1" stroke="Black" fill="Black" stroke-width="2"  />
<circle cx="90.8734865247" cy="96.9090822706" r="1" stroke="Black" fill="Black" stroke-width="2"  />
<circle cx="105.754853483" cy="86.1993627022" r="1" stroke="Black" fill="Black" stroke-width="2"  />
<circle cx="119.706365888" cy="37.3800740346" r="1" stroke="Black" fill="Black" stroke-width="2"  />
<circle cx="89.9229401332" cy="114.23253014" r="1" stroke="Black" fill="Black" stroke-width="2"  />
<circle cx="104.439488871" cy="84.9082024514" r="1" stroke="Black" fill="Black" stroke-width="2"  />
<circle cx="108.381343884" cy="51.2119020975" r="1" stroke="Black" fill="Black" stroke-width="2"  />
<circle cx="104.042146663" cy="70.1647350356" r="1" stroke="Black" fill="Black" stroke-width="2"  />
<circle cx="92.2700888791" cy="121.282219711" r="1" stroke="Black" fill="Black" stroke-width="2"  />
<circle cx="75.1048376987" cy="143.130306185" r="1" stroke="Black" fill="Black" stroke-width="2"  />
<circle cx="120.850214525" cy="37.0907582162" r="1" stroke="Black" fill="Black" stroke-width="2"  />
<circle cx="100.730653365" cy="70.6290332695" r="1" stroke="Black" fill="Black" stroke-width="2"  />
<circle cx="97.4060375148" cy="81.3344203276" r="1" stroke="Black" fill="Black" stroke-width="2"  />
<circle cx="86.1542929095" cy="124.780563728" r="1" stroke="Black" fill="Black" stroke-width="2"  />
<circle cx="113.417509973" cy="59.301173584" r="1" stroke="Black" fill="Black" stroke-width="2"  />
<circle cx="114.124259507" cy="33.9923500789" r="1" stroke="Black" fill="Black" stroke-width="2"  />
<circle cx="92.8342640341" cy="117.404351207" r="1" stroke="Black" fill="Black" stroke-width="2"  />
<circle cx="117.671203522" cy="44.1794708205" r="1" stroke="Black" fill="Black" stroke-width="2"  />
<circle cx="86.356306738" cy="118.140478529" r="1" stroke="Black" fill="Black" stroke-width="2"  />
<circle cx="77.9117625482" cy="140.613710177" r="1" stroke="Black" fill="Black" stroke-width="2"  />
<circle cx="84.6800051864" cy="138.96524081" r="1" stroke="Black" fill="Black" stroke-width="2"  />
<circle cx="118.672231504" cy="23.4168701212" r="1" stroke="Black" fill="Black" stroke-width="2"  />
<circle cx="80.2834717225" cy="118.39666988" r="1" stroke="Black" fill="Black" stroke-width="2"  />
<circle cx="95.2527984781" cy="93.8658250879" r="1" stroke="Black" fill="Black" stroke-width="2"  />
<circle cx="78.330793583" cy="105.96407822" r="1" stroke="Black" fill="Black" stroke-width="2"  />
<circle cx="121.701264079" cy="26.5048602641" r="1" stroke="Black" fill="Black" stroke-width="2"  />
<circle cx="91.811014001" cy="107.389889287" r="1" stroke="Black" fill="Black" stroke-width="2"  />
<circle cx="116.21069539" cy="41.0405538777" r="1" stroke="Black" fill="Black" stroke-width="2"  />
<circle cx="78.9435807004" cy="146.652943081" r="1" stroke="Black" fill="Black" stroke-width="2"  />
<circle cx="115.67787093" cy="40.8896768743" r="1" stroke="Black" fill="Black" stroke-width="2"  />
<circle cx="96.4015180309" cy="96.028589926" r="1" stroke="Black" fill="Black" stroke-width="2"  />
</svg>
