<svg version="1.1"
     baseProfile="full"
     width="200" height="200"
     xmlns="http://www.w3.org/2000/svg">
<line x1="-4900.0" y1="100.0"  x2="5100.0" y2="100.0" stroke="Black" stroke-width="2"/>
<line x1="100.0" y1="5100.0"  x2="100.0" y2="-4900.0" stroke="Black" stroke-width="2"/>
<circle cx="165.910336935" cy="-238.744786568" r="1" stroke="Black" fill="Black" stroke-width="2"  />
<circle cx="101.292212549" cy="-7.69565372383" r="1" stroke="Black" fill="Black" stroke-width="2"  />
<circle cx="65.868883031" cy="122.790751128" r="1" stroke="Black" fill="Black" stroke-width="2"  />
<circle cx="83.6815652832" cy="-12.9091624774" r="1" stroke="Black" fill="Black" stroke-width="2"  />
<circle cx="64.4863685499" cy="174.170824198" r="1" stroke="Black" fill="Black" stroke-width="2"  />
<circle cx="81.0877152848" cy="74.5982401516" r="1" stroke="Black" fill="Black" stroke-width="2"  />
<circle cx="121.658624955" cy="28.2473409915" r="1" stroke="Black" fill="Black" stroke-width="2"  />
<circle cx="6.50634869497" cy="165.649781878" r="1" stroke="Black" fill="Black" stroke-width="2"  />
<circle cx="17.9668368143" cy="245.294495919" r="1" stroke="Black" fill="Black" stroke-width="2"  />
<circle cx="141.99803319" cy="-123.272981688" r="1" stroke="Black" fill="Black" stroke-width="2"  />
<circle cx="85.3266226793" cy="151.739849455" r="1" stroke="Black" fill="Black" stroke-width="2"  />
<circle cx="102.772787043" cy="-6.83340389547" r="1" stroke="Black" fill="Black" stroke-width="2"  />
<circle cx="153.223424178" cy="-245.36666279" r="1" stroke="Black" fill="Black" stroke-width="2"  />
<circle cx="188.883083975" cy="-77.7580924401" r="1" stroke="Black" fill="Black" stroke-width="2"  />
<circle cx="129.021286996" cy="19.0210144797" r="1" stroke="Black" fill="Black" stroke-width="2"  />
<circle cx="63.2241189955" cy="112.59772476" r="1" stroke="Black" fill="Black" stroke-width="2"  />
<circle cx="40.388673303" cy="222.735235133" r="1" stroke="Black" fill="Black" stroke-width="2"  />
<circle cx="192.891536727" cy="-157.557334487" r="1" stroke="Black" fill="Black" stroke-width="2"  />
<circle cx="136.078025292" cy="-21.1385686322" r="1" stroke="Black" fill="Black" stroke-width="2"  />
<circle cx="58.9355873801" cy="115.588018547" r="1" stroke="Black" fill="Black" stroke-width="2"  />
<circle cx="146.574234724" cy="-149.854226994" r="1" stroke="Black" fill="Black" stroke-width="2"  />
<circle cx="108.179083427" cy="-3.80294626344" r="1" stroke="Black" fill="Black" stroke-width="2"  />
<circle cx="31.1050929309" cy="249.774129433" r="1" stroke="Black" fill="Black" stroke-width="2"  />
<circle cx="62.2292183289" cy="120.804292449" r="1" stroke="Black" fill="Black" stroke-width="2"  />
<circle cx="175.897732975" cy="-172.993290689" r="1" stroke="Black" fill="Black" stroke-width="2"  />
<circle cx="157.805184483" cy="-80.6125706748" r="1" stroke="Black" fill="Black" stroke-width="2"  />
<circle cx="12.3107594465" cy="279.544821956" r="1" stroke="Black" fill="Black" stroke-width="2"  />
<circle cx="84.1195201667" cy="24.4052456928" r="1" stroke="Black" fill="Black" stroke-width="2"  />
<circle cx="32.8539922363" cy="180.601900771" r="1" stroke="Black" fill="Black" stroke-width="2"  />
<circle cx="157.950404781" cy="-152.74141688" r="1" stroke="Black" fill="Black" stroke-width="2"  />
<circle cx="171.897021848" cy="-116.881500076" r="1" stroke="Black" fill="Black" stroke-width="2"  />
<circle cx="90.8490404741" cy="31.5340600658" r="1" stroke="Black" fill="Black" stroke-width="2"  />
<circle cx="102.797710177" cy="-16.8373961136" r="1" stroke="Black" fill="Black" stroke-width="2"  />
<circle cx="52.4676276444" cy="56.7813937817" r="1" stroke="Black" fill="Black" stroke-width="2"  />
<circle cx="20.2469637543" cy="200.786708777" r="1" stroke="Black" fill="Black" stroke-width="2"  />
<circle cx="181.815812145" cy="-147.323376428" r="1" stroke="Black" fill="Black" stroke-width="2"  />
<circle cx="129.22594215" cy="-60.3155885927" r="1" stroke="Black" fill="Black" stroke-width="2"  />
<circle cx="190.502776121" cy="-114.955605065" r="1" stroke="Black" fill="Black" stroke-width="2"  />
<circle cx="10.0201061495" cy="244.268392294" r="1" stroke="Black" fill="Black" stroke-width="2"  />
<circle cx="130.441562888" cy="71.7444478276" r="1" stroke="Black" fill="Black" stroke-width="2"  />
<circle cx="53.7015524297" cy="268.081665824" r="1" stroke="Black" fill="Black" stroke-width="2"  />
<circle cx="69.9126849884" cy="134.072790285" r="1" stroke="Black" fill="Black" stroke-width="2"  />
<circle cx="7.41804326496" cy="194.574256661" r="1" stroke="Black" fill="Black" stroke-width="2"  />
<circle cx="158.526189779" cy="-145.883624055" r="1" stroke="Black" fill="Black" stroke-width="2"  />
<circle cx="185.322859136" cy="-138.468316806" r="1" stroke="Black" fill="Black" stroke-width="2"  />
<circle cx="198.660023789" cy="-221.100070745" r="1" stroke="Black" fill="Black" stroke-width="2"  />
<circle cx="103.186612244" cy="-37.8116376476" r="1" stroke="Black" fill="Black" stroke-width="2"  />
<circle cx="169.956237376" cy="-79.5112754742" r="1" stroke="Black" fill="Black" stroke-width="2"  />
<circle cx="191.506237618" cy="-205.265522466" r="1" stroke="Black" fill="Black" stroke-width="2"  />
<circle cx="12.1854861812" cy="279.702402592" r="1" stroke="Black" fill="Black" stroke-width="2"  />
<circle cx="33.2291692438" cy="183.236725241" r="1" stroke="Black" fill="Black" stroke-width="2"  />
<circle cx="91.771598505" cy="28.4987874137" r="1" stroke="Black" fill="Black" stroke-width="2"  />
<circle cx="50.8906602402" cy="150.108507551" r="1" stroke="Black" fill="Black" stroke-width="2"  />
<circle cx="181.868782842" cy="-114.668173232" r="1" stroke="Black" fill="Black" stroke-width="2"  />
<circle cx="189.763527187" cy="-256.892331286" r="1" stroke="Black" fill="Black" stroke-width="2"  />
<circle cx="93.9380547197" cy="-10.3954826114" r="1" stroke="Black" fill="Black" stroke-width="2"  />
<circle cx="197.765754099" cy="-225.257904596" r="1" stroke="Black" fill="Black" stroke-width="2"  />
<circle cx="199.37765272" cy="-220.006410298" r="1" stroke="Black" fill="Black" stroke-width="2"  />
<circle cx="35.9676475103" cy="141.061319333" r="1" stroke="Black" fill="Black" stroke-width="2"  />
<circle cx="0.982242031809" cy="247.008354276" r="1" stroke="Black" fill="Black" stroke-width="2"  />
<circle cx="172.331481254" cy="-145.833054172" r="1" stroke="Black" fill="Black" stroke-width="2"  />
<circle cx="1.13685374974" cy="245.960667503" r="1" stroke="Black" fill="Black" stroke-width="2"  />
<circle cx="114.029609194" cy="-12.360709157" r="1" stroke="Black" fill="Black" stroke-width="2"  />
<circle cx="170.84325532" cy="-89.9418929694" r="1" stroke="Black" fill="Black" stroke-width="2"  />
<circle cx="120.174393521" cy="-37.8362588605" r="1" stroke="Black" fill="Black" stroke-width="2"  />
<circle cx="31.3798699515" cy="122.897743826" r="1" stroke="Black" fill="Black" stroke-width="2"  />
<circle cx="78.6158330105" cy="59.6991919826" r="1" stroke="Black" fill="Black" stroke-width="2"  />
<circle cx="199.524018376" cy="-285.835270173" r="1" stroke="Black" fill="Black" stroke-width="2"  />
<circle cx="7.51123257696" cy="240.847131827" r="1" stroke="Black" fill="Black" stroke-width="2"  />
<circle cx="85.1173615177" cy="44.8645597526" r="1" stroke="Black" fill="Black" stroke-width="2"  />
<circle cx="63.4939460988" cy="87.6363290826" r="1" stroke="Black" fill="Black" stroke-width="2"  />
<circle cx="123.019413932" cy="44.797450809" r="1" stroke="Black" fill="Black" stroke-width="2"  />
<circle cx="178.825463552" cy="-150.479703862" r="1" stroke="Black" fill="Black" stroke-width="2"  />
<circle cx="59.6917605327" cy="156.93012056" r="1" stroke="Black" fill="Black" stroke-width="2"  />
<circle cx="117.757955483" cy="39.6328098055" r="1" stroke="Black" fill="Black" stroke-width="2"  />
<circle cx="133.525375537" cy="-95.1523916101" r="1" stroke="Black" fill="Black" stroke-width="2"  />
<circle cx="116.168586653" cy="-19.3410598575" r="1" stroke="Black" fill="Black" stroke-width="2"  />
<circle cx="69.0803555166" cy="185.128878842" r="1" stroke="Black" fill="Black" stroke-width="2"  />
<circle cx="0.419350794726" cy="272.521224741" r="1" stroke="Black" fill="Black" stroke-width="2"  />
<circle cx="183.400858101" cy="-151.636967135" r="1" stroke="Black" fill="Black" stroke-width="2"  />
<circle cx="102.92261346" cy="-17.4838669218" r="1" stroke="Black" fill="Black" stroke-width="2"  />
<circle cx="89.6241500592" cy="25.3376813103" r="1" stroke="Black" fill="Black" stroke-width="2"  />
<circle cx="44.617171638" cy="199.122254911" r="1" stroke="Black" fill="Black" stroke-width="2"  />
<circle cx="153.670039893" cy="-62.795305664" r="1" stroke="Black" fill="Black" stroke-width="2"  />
<circle cx="156.497038028" cy="-164.030599684" r="1" stroke="Black" fill="Black" stroke-width="2"  />
<circle cx="71.3370561364" cy="169.617404829" r="1" stroke="Black" fill="Black" stroke-width="2"  />
<circle cx="170.684814088" cy="-123.282116718" r="1" stroke="Black" fill="Black" stroke-width="2"  />
<circle cx="45.4252269521" cy="172.561914115" r="1" stroke="Black" fill="Black" stroke-width="2"  />
<circle cx="11.647050193" cy="262.454840709" r="1" stroke="Black" fill="Black" stroke-width="2"  />
<circle cx="38.7200207455" cy="255.860963241" r="1" stroke="Black" fill="Black" stroke-width="2"  />
<circle cx="174.688926016" cy="-206.332519515" r="1" stroke="Black" fill="Black" stroke-width="2"  />
<circle cx="21.13388689" cy="173.58667952" r="1" stroke="Black" fill="Black" stroke-width="2"  />
<circle cx="81.0111939124" cy="75.4633003518" r="1" stroke="Black" fill="Black" stroke-width="2"  />
<circle cx="13.3231743319" cy="123.856312882" r="1" stroke="Black" fill="Black" stroke-width="2"  />
<circle cx="186.805056317" cy="-193.980558944" r="1" stroke="Black" fill="Black" stroke-width="2"  />
<circle cx="67.2440560039" cy="129.559557149" r="1" stroke="Black" fill="Black" stroke-width="2"  />
<circle cx="164.84278156" cy="-135.837784489" r="1" stroke="Black" fill="Black" stroke-width="2"  />
<circle cx="15.7743228018" cy="286.611772322" r="1" stroke="Black" fill="Black" stroke-width="2"  />
<circle cx="162.711483718" cy="-136.441292503" r="1" stroke="Black" fill="Black" stroke-width="2"  />
<circle cx="85.6060721238" cy="84.1143597039" r="1" stroke="Black" fill="Black" stroke-width="2"  />
</svg>
