<svg version="1.1"
     baseProfile="full"
     width="200" height="200"
     xmlns="http://www.w3.org/2000/svg">
<line x1="-10467.2631146" y1="100.0"  x2="10667.2631146" y2="100.0" stroke="Black" stroke-width="2"/>
<line x1="100.0" y1="10667.2631146"  x2="100.0" y2="-10467.2631146" stroke="Black" stroke-width="2"/>
<circle cx="74.0945923357" cy="136.623631485" r="1" stroke="black" fill="black" stroke-width="2"  />
<circle cx="12.2844680614" cy="173.585096864" r="1" stroke="green" fill="green" stroke-width="2"  />
<circle cx="115.788736753" cy="9.6001772936" r="1" stroke="grey" fill="grey" stroke-width="2"  />
<circle cx="80.2698555025" cy="138.382958825" r="1" stroke="red" fill="red" stroke-width="2"  />
<circle cx="16.9055361262" cy="169.979236945" r="1" stroke="green" fill="green" stroke-width="2"  />
<circle cx="116.776840839" cy="8.38069214025" r="1" stroke="grey" fill="grey" stroke-width="2"  />
<circle cx="73.6520492513" cy="139.348633121" r="1" stroke="black" fill="black" stroke-width="2"  />
<circle cx="16.6623915166" cy="168.203464199" r="1" stroke="green" fill="green" stroke-width="2"  />
<circle cx="117.623701582" cy="3.65900707425" r="1" stroke="grey" fill="grey" stroke-width="2"  />
<circle cx="75.3532169058" cy="137.865893524" r="1" stroke="black" fill="black" stroke-width="2"  />
<circle cx="15.2683146591" cy="165.017769463" r="1" stroke="green" fill="green" stroke-width="2"  />
<circle cx="112.585481679" cy="1.36042437485" r="1" stroke="grey" fill="grey" stroke-width="2"  />
<circle cx="70.1269911546" cy="135.389686301" r="1" stroke="black" fill="black" stroke-width="2"  />
<circle cx="20.6882153386" cy="174.032388979" r="1" stroke="green" fill="green" stroke-width="2"  />
<circle cx="113.668564419" cy="9.46540975816" r="1" stroke="grey" fill="grey" stroke-width="2"  />
<circle cx="76.3675813726" cy="138.828871821" r="1" stroke="red" fill="red" stroke-width="2"  />
<circle cx="18.9891259324" cy="168.873715284" r="1" stroke="green" fill="green" stroke-width="2"  />
<circle cx="108.384108208" cy="0.568194319241" r="1" stroke="grey" fill="grey" stroke-width="2"  />
<circle cx="74.5501558651" cy="142.649729697" r="1" stroke="black" fill="black" stroke-width="2"  />
<circle cx="17.5024676017" cy="165.53985731" r="1" stroke="green" fill="green" stroke-width="2"  />
<circle cx="110.572448005" cy="7.34297954483" r="1" stroke="grey" fill="grey" stroke-width="2"  />
<circle cx="70.104225688" cy="142.576254119" r="1" stroke="black" fill="black" stroke-width="2"  />
<circle cx="12.8549006471" cy="167.730089877" r="1" stroke="green" fill="green" stroke-width="2"  />
<circle cx="117.966225653" cy="5.90069005924" r="1" stroke="grey" fill="grey" stroke-width="2"  />
<circle cx="76.810677473" cy="136.054301874" r="1" stroke="red" fill="red" stroke-width="2"  />
<circle cx="16.1552081564" cy="173.178886799" r="1" stroke="green" fill="green" stroke-width="2"  />
<circle cx="112.678145565" cy="6.77527187501" r="1" stroke="grey" fill="grey" stroke-width="2"  />
<circle cx="73.5986064391" cy="134.08384541" r="1" stroke="black" fill="black" stroke-width="2"  />
<circle cx="17.7491264065" cy="166.100426858" r="1" stroke="green" fill="green" stroke-width="2"  />
<circle cx="110.772713891" cy="6.03772130131" r="1" stroke="grey" fill="grey" stroke-width="2"  />
<circle cx="74.7328714305" cy="138.02532663" r="1" stroke="black" fill="black" stroke-width="2"  />
<circle cx="16.228163491" cy="165.164973152" r="1" stroke="green" fill="green" stroke-width="2"  />
<circle cx="111.413747563" cy="8.40256707159" r="1" stroke="grey" fill="grey" stroke-width="2"  />
<circle cx="72.8729275611" cy="141.267728031" r="1" stroke="black" fill="black" stroke-width="2"  />
<circle cx="20.8701299377" cy="167.643090755" r="1" stroke="green" fill="green" stroke-width="2"  />
<circle cx="109.590240239" cy="0.35883866706" r="1" stroke="grey" fill="grey" stroke-width="2"  />
<circle cx="74.8744243381" cy="137.616976757" r="1" stroke="black" fill="black" stroke-width="2"  />
<circle cx="18.0949750533" cy="166.480938233" r="1" stroke="green" fill="green" stroke-width="2"  />
<circle cx="114.333729949" cy="8.32903165028" r="1" stroke="grey" fill="grey" stroke-width="2"  />
<circle cx="69.9487821616" cy="141.327315079" r="1" stroke="black" fill="black" stroke-width="2"  />
<circle cx="19.4764350969" cy="172.355609597" r="1" stroke="green" fill="green" stroke-width="2"  />
<circle cx="116.104527478" cy="9.27892696242" r="1" stroke="grey" fill="grey" stroke-width="2"  />
<circle cx="76.9258851951" cy="142.514602869" r="1" stroke="red" fill="red" stroke-width="2"  />
<circle cx="18.082735411" cy="169.209630665" r="1" stroke="green" fill="green" stroke-width="2"  />
<circle cx="114.522469746" cy="0.462359474372" r="1" stroke="grey" fill="grey" stroke-width="2"  />
<circle cx="78.0179020323" cy="142.740055891" r="1" stroke="red" fill="red" stroke-width="2"  />
<circle cx="16.4611249725" cy="174.245201818" r="1" stroke="green" fill="green" stroke-width="2"  />
<circle cx="112.087978215" cy="4.66431363003" r="1" stroke="grey" fill="grey" stroke-width="2"  />
<circle cx="71.2501917438" cy="135.640872841" r="1" stroke="black" fill="black" stroke-width="2"  />
<circle cx="19.0145957814" cy="173.216448693" r="1" stroke="green" fill="green" stroke-width="2"  />
<circle cx="111.076249007" cy="4.42020907592" r="1" stroke="grey" fill="grey" stroke-width="2"  />
<circle cx="74.5025607022" cy="136.715379655" r="1" stroke="black" fill="black" stroke-width="2"  />
<circle cx="20.656170454" cy="166.433561739" r="1" stroke="green" fill="green" stroke-width="2"  />
<circle cx="109.940847362" cy="6.9706399223" r="1" stroke="grey" fill="grey" stroke-width="2"  />
<circle cx="79.338089559" cy="136.44319466" r="1" stroke="red" fill="red" stroke-width="2"  />
<circle cx="21.3373537251" cy="165.770973653" r="1" stroke="green" fill="green" stroke-width="2"  />
<circle cx="108.20765277" cy="4.11544244444" r="1" stroke="grey" fill="grey" stroke-width="2"  />
<circle cx="75.2055496849" cy="136.519406499" r="1" stroke="black" fill="black" stroke-width="2"  />
<circle cx="13.193894921" cy="169.315783014" r="1" stroke="green" fill="green" stroke-width="2"  />
<circle cx="107.951788286" cy="5.98012215075" r="1" stroke="grey" fill="grey" stroke-width="2"  />
<circle cx="73.2837721117" cy="140.260820238" r="1" stroke="black" fill="black" stroke-width="2"  />
<circle cx="14.6496808362" cy="173.437950574" r="1" stroke="green" fill="green" stroke-width="2"  />
<circle cx="117.321316256" cy="6.53874698561" r="1" stroke="grey" fill="grey" stroke-width="2"  />
<circle cx="73.0158820529" cy="142.433371554" r="1" stroke="black" fill="black" stroke-width="2"  />
<circle cx="21.6931274626" cy="170.582481828" r="1" stroke="green" fill="green" stroke-width="2"  />
<circle cx="112.882639381" cy="3.86993111349" r="1" stroke="grey" fill="grey" stroke-width="2"  />
<circle cx="80.0302894323" cy="135.577923915" r="1" stroke="red" fill="red" stroke-width="2"  />
<circle cx="14.2142500457" cy="173.119669362" r="1" stroke="green" fill="green" stroke-width="2"  />
<circle cx="113.010804029" cy="4.6584658738" r="1" stroke="grey" fill="grey" stroke-width="2"  />
<circle cx="79.2824081391" cy="134.706815993" r="1" stroke="red" fill="red" stroke-width="2"  />
<circle cx="13.3923968477" cy="167.212290368" r="1" stroke="green" fill="green" stroke-width="2"  />
<circle cx="117.388961915" cy="6.09852276807" r="1" stroke="grey" fill="grey" stroke-width="2"  />
<circle cx="76.3450357116" cy="138.657815533" r="1" stroke="red" fill="red" stroke-width="2"  />
<circle cx="14.224899456" cy="171.065716213" r="1" stroke="green" fill="green" stroke-width="2"  />
<circle cx="110.687993621" cy="5.99217039349" r="1" stroke="grey" fill="grey" stroke-width="2"  />
<circle cx="76.2129245049" cy="135.151142912" r="1" stroke="red" fill="red" stroke-width="2"  />
<circle cx="15.8499898596" cy="173.41882157" r="1" stroke="green" fill="green" stroke-width="2"  />
<circle cx="111.311780483" cy="1.8804458583" r="1" stroke="grey" fill="grey" stroke-width="2"  />
<circle cx="73.7101518824" cy="142.527880133" r="1" stroke="black" fill="black" stroke-width="2"  />
<circle cx="15.5603884963" cy="171.280356541" r="1" stroke="green" fill="green" stroke-width="2"  />
<circle cx="115.548068822" cy="0.23592771518" r="1" stroke="grey" fill="grey" stroke-width="2"  />
<circle cx="77.4636062065" cy="133.81096647" r="1" stroke="red" fill="red" stroke-width="2"  />
<circle cx="18.7591267779" cy="166.314926983" r="1" stroke="green" fill="green" stroke-width="2"  />
<circle cx="115.354599217" cy="4.26100175622" r="1" stroke="grey" fill="grey" stroke-width="2"  />
<circle cx="74.8894357305" cy="138.199020108" r="1" stroke="black" fill="black" stroke-width="2"  />
<circle cx="22.3118885839" cy="170.899110105" r="1" stroke="green" fill="green" stroke-width="2"  />
<circle cx="113.708115846" cy="0.0" r="1" stroke="grey" fill="grey" stroke-width="2"  />
<circle cx="74.0691686197" cy="142.194005615" r="1" stroke="black" fill="black" stroke-width="2"  />
<circle cx="16.0820708748" cy="171.476430593" r="1" stroke="green" fill="green" stroke-width="2"  />
<circle cx="114.605294494" cy="7.1468119316" r="1" stroke="grey" fill="grey" stroke-width="2"  />
<circle cx="79.9117963155" cy="142.830488419" r="1" stroke="red" fill="red" stroke-width="2"  />
<circle cx="18.0040864139" cy="169.57198589" r="1" stroke="green" fill="green" stroke-width="2"  />
<circle cx="111.650174143" cy="6.47875814413" r="1" stroke="grey" fill="grey" stroke-width="2"  />
<circle cx="79.4553783332" cy="138.492416413" r="1" stroke="red" fill="red" stroke-width="2"  />
<circle cx="14.2266186828" cy="169.378032308" r="1" stroke="green" fill="green" stroke-width="2"  />
<circle cx="115.133800228" cy="7.1777600705" r="1" stroke="grey" fill="grey" stroke-width="2"  />
<circle cx="75.563529821" cy="135.665604612" r="1" stroke="black" fill="black" stroke-width="2"  />
<circle cx="22.1807400118" cy="173.453424449" r="1" stroke="green" fill="green" stroke-width="2"  />
<circle cx="114.679992093" cy="9.75932544022" r="1" stroke="grey" fill="grey" stroke-width="2"  />
<circle cx="71.9509344605" cy="137.242378317" r="1" stroke="black" fill="black" stroke-width="2"  />
</svg>
