<svg version="1.1"
     baseProfile="full"
     width="400" height="400"
     xmlns="http://www.w3.org/2000/svg">
<line x1="0" y1="200"  x2="200" y2="200" stroke="Black" stroke-width="2"/>
<line x1="20" y1="200"  x2="200" y2="220" stroke="Black" stroke-width="2"/>
<line x1="40" y1="200"  x2="200" y2="240" stroke="Black" stroke-width="2"/>
<line x1="60" y1="200"  x2="200" y2="260" stroke="Black" stroke-width="2"/>
<line x1="80" y1="200"  x2="200" y2="280" stroke="Black" stroke-width="2"/>
<line x1="100" y1="200"  x2="200" y2="300" stroke="Black" stroke-width="2"/>
<line x1="120" y1="200"  x2="200" y2="320" stroke="Black" stroke-width="2"/>
<line x1="140" y1="200"  x2="200" y2="340" stroke="Black" stroke-width="2"/>
<line x1="160" y1="200"  x2="200" y2="360" stroke="Black" stroke-width="2"/>
<line x1="180" y1="200"  x2="200" y2="380" stroke="Black" stroke-width="2"/>
<line x1="200" y1="200"  x2="200" y2="400" stroke="Black" stroke-width="2"/>
<line x1="0" y1="200"  x2="200" y2="200" stroke="Black" stroke-width="2"/>
<line x1="20" y1="200"  x2="200" y2="180" stroke="Black" stroke-width="2"/>
<line x1="40" y1="200"  x2="200" y2="160" stroke="Black" stroke-width="2"/>
<line x1="60" y1="200"  x2="200" y2="140" stroke="Black" stroke-width="2"/>
<line x1="80" y1="200"  x2="200" y2="120" stroke="Black" stroke-width="2"/>
<line x1="100" y1="200"  x2="200" y2="100" stroke="Black" stroke-width="2"/>
<line x1="120" y1="200"  x2="200" y2="80" stroke="Black" stroke-width="2"/>
<line x1="140" y1="200"  x2="200" y2="60" stroke="Black" stroke-width="2"/>
<line x1="160" y1="200"  x2="200" y2="40" stroke="Black" stroke-width="2"/>
<line x1="180" y1="200"  x2="200" y2="20" stroke="Black" stroke-width="2"/>
<line x1="200" y1="200"  x2="200" y2="0" stroke="Black" stroke-width="2"/>
<line x1="400" y1="200"  x2="200" y2="200" stroke="Black" stroke-width="2"/>
<line x1="380" y1="200"  x2="200" y2="220" stroke="Black" stroke-width="2"/>
<line x1="360" y1="200"  x2="200" y2="240" stroke="Black" stroke-width="2"/>
<line x1="340" y1="200"  x2="200" y2="260" stroke="Black" stroke-width="2"/>
<line x1="320" y1="200"  x2="200" y2="280" stroke="Black" stroke-width="2"/>
<line x1="300" y1="200"  x2="200" y2="300" stroke="Black" stroke-width="2"/>
<line x1="280" y1="200"  x2="200" y2="320" stroke="Black" stroke-width="2"/>
<line x1="260" y1="200"  x2="200" y2="340" stroke="Black" stroke-width="2"/>
<line x1="240" y1="200"  x2="200" y2="360" stroke="Black" stroke-width="2"/>
<line x1="220" y1="200"  x2="200" y2="380" stroke="Black" stroke-width="2"/>
<line x1="200" y1="200"  x2="200" y2="400" stroke="Black" stroke-width="2"/>
<line x1="400" y1="200"  x2="200" y2="200" stroke="Black" stroke-width="2"/>
<line x1="380" y1="200"  x2="200" y2="180" stroke="Black" stroke-width="2"/>
<line x1="360" y1="200"  x2="200" y2="160" stroke="Black" stroke-width="2"/>
<line x1="340" y1="200"  x2="200" y2="140" stroke="Black" stroke-width="2"/>
<line x1="320" y1="200"  x2="200" y2="120" stroke="Black" stroke-width="2"/>
<line x1="300" y1="200"  x2="200" y2="100" stroke="Black" stroke-width="2"/>
<line x1="280" y1="200"  x2="200" y2="80" stroke="Black" stroke-width="2"/>
<line x1="260" y1="200"  x2="200" y2="60" stroke="Black" stroke-width="2"/>
<line x1="240" y1="200"  x2="200" y2="40" stroke="Black" stroke-width="2"/>
<line x1="220" y1="200"  x2="200" y2="20" stroke="Black" stroke-width="2"/>
<line x1="200" y1="200"  x2="200" y2="0" stroke="Black" stroke-width="2"/>
</svg>
