<svg version="1.1"
     baseProfile="full"
     width="400" height="400"
     xmlns="http://www.w3.org/2000/svg">
<circle cx="252.254933432" cy="289.910925976" r="5" stroke="Black" fill="Black" stroke-width="2"  />
<circle cx="16.158416491" cy="211.671933964" r="5" stroke="Black" fill="Black" stroke-width="2"  />
<circle cx="15.5122535519" cy="97.44387185" r="5" stroke="Black" fill="Black" stroke-width="2"  />
<circle cx="232.154903027" cy="54.9404969658" r="5" stroke="Black" fill="Black" stroke-width="2"  />
<circle cx="43.8741443093" cy="337.361082762" r="5" stroke="Black" fill="Black" stroke-width="2"  />
<circle cx="219.52064826" cy="118.725987852" r="5" stroke="Black" fill="Black" stroke-width="2"  />
<circle cx="372.264769729" cy="388.763120431" r="5" stroke="Black" fill="Black" stroke-width="2"  />
<circle cx="173.629549232" cy="266.572966825" r="5" stroke="Black" fill="Black" stroke-width="2"  />
<circle cx="128.970706301" cy="213.725746992" r="5" stroke="Black" fill="Black" stroke-width="2"  />
<circle cx="215.34212953" cy="285.887404464" r="5" stroke="Black" fill="Black" stroke-width="2"  />
<circle cx="287.170986739" cy="284.625823618" r="5" stroke="Black" fill="Black" stroke-width="2"  />
<circle cx="307.630450248" cy="81.4362519107" r="5" stroke="Black" fill="Black" stroke-width="2"  />
<circle cx="257.946414058" cy="72.5880147495" r="5" stroke="Black" fill="Black" stroke-width="2"  />
<circle cx="22.7109322493" cy="61.622607415" r="5" stroke="Black" fill="Black" stroke-width="2"  />
<circle cx="232.423659275" cy="265.230072328" r="5" stroke="Black" fill="Black" stroke-width="2"  />
<circle cx="259.08714902" cy="270.668496951" r="5" stroke="Black" fill="Black" stroke-width="2"  />
<circle cx="109.503407452" cy="86.3543548244" r="5" stroke="Black" fill="Black" stroke-width="2"  />
<circle cx="258.981753393" cy="94.2408480375" r="5" stroke="Black" fill="Black" stroke-width="2"  />
<circle cx="399.159403757" cy="391.152995792" r="5" stroke="Black" fill="Black" stroke-width="2"  />
<circle cx="196.1781392" cy="369.921586152" r="5" stroke="Black" fill="Black" stroke-width="2"  />
<circle cx="342.123058647" cy="11.4074266231" r="5" stroke="Black" fill="Black" stroke-width="2"  />
<circle cx="283.879197154" cy="31.0289733381" r="5" stroke="Black" fill="Black" stroke-width="2"  />
<circle cx="34.1967171413" cy="374.426578887" r="5" stroke="Black" fill="Black" stroke-width="2"  />
<circle cx="11.7195384543" cy="70.9422689467" r="5" stroke="Black" fill="Black" stroke-width="2"  />
<circle cx="73.017987066" cy="143.865873311" r="5" stroke="Black" fill="Black" stroke-width="2"  />
<circle cx="37.7286858146" cy="293.049772823" r="5" stroke="Black" fill="Black" stroke-width="2"  />
<circle cx="160.364837581" cy="117.589962661" r="5" stroke="Black" fill="Black" stroke-width="2"  />
<circle cx="387.128945007" cy="47.9733366595" r="5" stroke="Black" fill="Black" stroke-width="2"  />
<circle cx="285.151620762" cy="263.912259863" r="5" stroke="Black" fill="Black" stroke-width="2"  />
<circle cx="208.625838005" cy="84.8067514433" r="5" stroke="Black" fill="Black" stroke-width="2"  />
<circle cx="179.53877835" cy="204.248675011" r="5" stroke="Black" fill="Black" stroke-width="2"  />
<circle cx="107.223356459" cy="298.305708366" r="5" stroke="Black" fill="Black" stroke-width="2"  />
<circle cx="186.016791336" cy="122.445670112" r="5" stroke="Black" fill="Black" stroke-width="2"  />
<circle cx="263.608571089" cy="89.444009314" r="5" stroke="Black" fill="Black" stroke-width="2"  />
<circle cx="297.82553599" cy="34.9478144692" r="5" stroke="Black" fill="Black" stroke-width="2"  />
<circle cx="247.362745229" cy="28.7257355013" r="5" stroke="Black" fill="Black" stroke-width="2"  />
<circle cx="122.801893347" cy="85.0845309704" r="5" stroke="Black" fill="Black" stroke-width="2"  />
<circle cx="223.947101523" cy="219.995670866" r="5" stroke="Black" fill="Black" stroke-width="2"  />
<circle cx="179.785653935" cy="323.330034295" r="5" stroke="Black" fill="Black" stroke-width="2"  />
<circle cx="362.457751056" cy="166.128331433" r="5" stroke="Black" fill="Black" stroke-width="2"  />
<circle cx="11.7195384543" cy="70.9422689467" r="10" stroke="Black" fill="Blue" stroke-width="2"  />
<line x1="11.7195384543" y1="70.9422689467"  x2="16.158416491" y2="211.671933964" stroke="Black" stroke-width="2"/>
<line x1="16.158416491" y1="211.671933964"  x2="34.1967171413" y2="374.426578887" stroke="Black" stroke-width="2"/>
<line x1="34.1967171413" y1="374.426578887"  x2="399.159403757" y2="391.152995792" stroke="Black" stroke-width="2"/>
<line x1="399.159403757" y1="391.152995792"  x2="399.159403757" y2="391.152995792" stroke="Black" stroke-width="2"/>
<line x1="399.159403757" y1="391.152995792"  x2="399.159403757" y2="391.152995792" stroke="Black" stroke-width="2"/>
<line x1="399.159403757" y1="391.152995792"  x2="399.159403757" y2="391.152995792" stroke="Black" stroke-width="2"/>
<line x1="399.159403757" y1="391.152995792"  x2="399.159403757" y2="391.152995792" stroke="Black" stroke-width="2"/>
<line x1="399.159403757" y1="391.152995792"  x2="399.159403757" y2="391.152995792" stroke="Black" stroke-width="2"/>
<line x1="399.159403757" y1="391.152995792"  x2="399.159403757" y2="391.152995792" stroke="Black" stroke-width="2"/>
<line x1="399.159403757" y1="391.152995792"  x2="399.159403757" y2="391.152995792" stroke="Black" stroke-width="2"/>
<line x1="399.159403757" y1="391.152995792"  x2="399.159403757" y2="391.152995792" stroke="Black" stroke-width="2"/>
<line x1="399.159403757" y1="391.152995792"  x2="399.159403757" y2="391.152995792" stroke="Black" stroke-width="2"/>
<line x1="399.159403757" y1="391.152995792"  x2="399.159403757" y2="391.152995792" stroke="Black" stroke-width="2"/>
<line x1="399.159403757" y1="391.152995792"  x2="399.159403757" y2="391.152995792" stroke="Black" stroke-width="2"/>
<line x1="399.159403757" y1="391.152995792"  x2="399.159403757" y2="391.152995792" stroke="Black" stroke-width="2"/>
<line x1="399.159403757" y1="391.152995792"  x2="399.159403757" y2="391.152995792" stroke="Black" stroke-width="2"/>
<line x1="399.159403757" y1="391.152995792"  x2="399.159403757" y2="391.152995792" stroke="Black" stroke-width="2"/>
<line x1="399.159403757" y1="391.152995792"  x2="399.159403757" y2="391.152995792" stroke="Black" stroke-width="2"/>
<line x1="399.159403757" y1="391.152995792"  x2="399.159403757" y2="391.152995792" stroke="Black" stroke-width="2"/>
<line x1="399.159403757" y1="391.152995792"  x2="399.159403757" y2="391.152995792" stroke="Black" stroke-width="2"/>
<line x1="399.159403757" y1="391.152995792"  x2="399.159403757" y2="391.152995792" stroke="Black" stroke-width="2"/>
<line x1="399.159403757" y1="391.152995792"  x2="399.159403757" y2="391.152995792" stroke="Black" stroke-width="2"/>
<line x1="399.159403757" y1="391.152995792"  x2="399.159403757" y2="391.152995792" stroke="Black" stroke-width="2"/>
<line x1="399.159403757" y1="391.152995792"  x2="399.159403757" y2="391.152995792" stroke="Black" stroke-width="2"/>
<line x1="399.159403757" y1="391.152995792"  x2="399.159403757" y2="391.152995792" stroke="Black" stroke-width="2"/>
<line x1="399.159403757" y1="391.152995792"  x2="399.159403757" y2="391.152995792" stroke="Black" stroke-width="2"/>
<line x1="399.159403757" y1="391.152995792"  x2="399.159403757" y2="391.152995792" stroke="Black" stroke-width="2"/>
<line x1="399.159403757" y1="391.152995792"  x2="399.159403757" y2="391.152995792" stroke="Black" stroke-width="2"/>
<line x1="399.159403757" y1="391.152995792"  x2="399.159403757" y2="391.152995792" stroke="Black" stroke-width="2"/>
<line x1="399.159403757" y1="391.152995792"  x2="399.159403757" y2="391.152995792" stroke="Black" stroke-width="2"/>
<line x1="399.159403757" y1="391.152995792"  x2="399.159403757" y2="391.152995792" stroke="Black" stroke-width="2"/>
<line x1="399.159403757" y1="391.152995792"  x2="399.159403757" y2="391.152995792" stroke="Black" stroke-width="2"/>
<line x1="399.159403757" y1="391.152995792"  x2="399.159403757" y2="391.152995792" stroke="Black" stroke-width="2"/>
<line x1="399.159403757" y1="391.152995792"  x2="399.159403757" y2="391.152995792" stroke="Black" stroke-width="2"/>
<line x1="399.159403757" y1="391.152995792"  x2="399.159403757" y2="391.152995792" stroke="Black" stroke-width="2"/>
<line x1="399.159403757" y1="391.152995792"  x2="399.159403757" y2="391.152995792" stroke="Black" stroke-width="2"/>
<line x1="399.159403757" y1="391.152995792"  x2="399.159403757" y2="391.152995792" stroke="Black" stroke-width="2"/>
<line x1="399.159403757" y1="391.152995792"  x2="399.159403757" y2="391.152995792" stroke="Black" stroke-width="2"/>
<line x1="399.159403757" y1="391.152995792"  x2="399.159403757" y2="391.152995792" stroke="Black" stroke-width="2"/>
<line x1="399.159403757" y1="391.152995792"  x2="399.159403757" y2="391.152995792" stroke="Black" stroke-width="2"/>
<line x1="399.159403757" y1="391.152995792"  x2="399.159403757" y2="391.152995792" stroke="Black" stroke-width="2"/>
<line x1="399.159403757" y1="391.152995792"  x2="399.159403757" y2="391.152995792" stroke="Black" stroke-width="2"/>
<line x1="399.159403757" y1="391.152995792"  x2="399.159403757" y2="391.152995792" stroke="Black" stroke-width="2"/>
<line x1="399.159403757" y1="391.152995792"  x2="399.159403757" y2="391.152995792" stroke="Black" stroke-width="2"/>
<line x1="399.159403757" y1="391.152995792"  x2="399.159403757" y2="391.152995792" stroke="Black" stroke-width="2"/>
<line x1="399.159403757" y1="391.152995792"  x2="399.159403757" y2="391.152995792" stroke="Black" stroke-width="2"/>
<line x1="399.159403757" y1="391.152995792"  x2="399.159403757" y2="391.152995792" stroke="Black" stroke-width="2"/>
<line x1="399.159403757" y1="391.152995792"  x2="399.159403757" y2="391.152995792" stroke="Black" stroke-width="2"/>
<line x1="399.159403757" y1="391.152995792"  x2="399.159403757" y2="391.152995792" stroke="Black" stroke-width="2"/>
<line x1="399.159403757" y1="391.152995792"  x2="399.159403757" y2="391.152995792" stroke="Black" stroke-width="2"/>
<line x1="399.159403757" y1="391.152995792"  x2="399.159403757" y2="391.152995792" stroke="Black" stroke-width="2"/>
<line x1="399.159403757" y1="391.152995792"  x2="399.159403757" y2="391.152995792" stroke="Black" stroke-width="2"/>
<line x1="399.159403757" y1="391.152995792"  x2="399.159403757" y2="391.152995792" stroke="Black" stroke-width="2"/>
<line x1="399.159403757" y1="391.152995792"  x2="399.159403757" y2="391.152995792" stroke="Black" stroke-width="2"/>
<line x1="399.159403757" y1="391.152995792"  x2="399.159403757" y2="391.152995792" stroke="Black" stroke-width="2"/>
<line x1="399.159403757" y1="391.152995792"  x2="399.159403757" y2="391.152995792" stroke="Black" stroke-width="2"/>
<line x1="399.159403757" y1="391.152995792"  x2="399.159403757" y2="391.152995792" stroke="Black" stroke-width="2"/>
<line x1="399.159403757" y1="391.152995792"  x2="399.159403757" y2="391.152995792" stroke="Black" stroke-width="2"/>
<line x1="399.159403757" y1="391.152995792"  x2="399.159403757" y2="391.152995792" stroke="Black" stroke-width="2"/>
<line x1="399.159403757" y1="391.152995792"  x2="399.159403757" y2="391.152995792" stroke="Black" stroke-width="2"/>
<line x1="399.159403757" y1="391.152995792"  x2="399.159403757" y2="391.152995792" stroke="Black" stroke-width="2"/>
<line x1="399.159403757" y1="391.152995792"  x2="399.159403757" y2="391.152995792" stroke="Black" stroke-width="2"/>
<line x1="399.159403757" y1="391.152995792"  x2="399.159403757" y2="391.152995792" stroke="Black" stroke-width="2"/>
<line x1="399.159403757" y1="391.152995792"  x2="399.159403757" y2="391.152995792" stroke="Black" stroke-width="2"/>
<line x1="399.159403757" y1="391.152995792"  x2="399.159403757" y2="391.152995792" stroke="Black" stroke-width="2"/>
<line x1="399.159403757" y1="391.152995792"  x2="399.159403757" y2="391.152995792" stroke="Black" stroke-width="2"/>
<line x1="399.159403757" y1="391.152995792"  x2="399.159403757" y2="391.152995792" stroke="Black" stroke-width="2"/>
<line x1="399.159403757" y1="391.152995792"  x2="399.159403757" y2="391.152995792" stroke="Black" stroke-width="2"/>
<line x1="399.159403757" y1="391.152995792"  x2="399.159403757" y2="391.152995792" stroke="Black" stroke-width="2"/>
<line x1="399.159403757" y1="391.152995792"  x2="399.159403757" y2="391.152995792" stroke="Black" stroke-width="2"/>
<line x1="399.159403757" y1="391.152995792"  x2="399.159403757" y2="391.152995792" stroke="Black" stroke-width="2"/>
<line x1="399.159403757" y1="391.152995792"  x2="399.159403757" y2="391.152995792" stroke="Black" stroke-width="2"/>
<line x1="399.159403757" y1="391.152995792"  x2="399.159403757" y2="391.152995792" stroke="Black" stroke-width="2"/>
<line x1="399.159403757" y1="391.152995792"  x2="399.159403757" y2="391.152995792" stroke="Black" stroke-width="2"/>
<line x1="399.159403757" y1="391.152995792"  x2="399.159403757" y2="391.152995792" stroke="Black" stroke-width="2"/>
<line x1="399.159403757" y1="391.152995792"  x2="399.159403757" y2="391.152995792" stroke="Black" stroke-width="2"/>
<line x1="399.159403757" y1="391.152995792"  x2="399.159403757" y2="391.152995792" stroke="Black" stroke-width="2"/>
<line x1="399.159403757" y1="391.152995792"  x2="387.128945007" y2="47.9733366595" stroke="Black" stroke-width="2"/>
<line x1="387.128945007" y1="47.9733366595"  x2="342.123058647" y2="11.4074266231" stroke="Black" stroke-width="2"/>
<line x1="342.123058647" y1="11.4074266231"  x2="342.123058647" y2="11.4074266231" stroke="Black" stroke-width="2"/>
<line x1="342.123058647" y1="11.4074266231"  x2="342.123058647" y2="11.4074266231" stroke="Black" stroke-width="2"/>
<line x1="342.123058647" y1="11.4074266231"  x2="342.123058647" y2="11.4074266231" stroke="Black" stroke-width="2"/>
<line x1="342.123058647" y1="11.4074266231"  x2="342.123058647" y2="11.4074266231" stroke="Black" stroke-width="2"/>
<line x1="342.123058647" y1="11.4074266231"  x2="342.123058647" y2="11.4074266231" stroke="Black" stroke-width="2"/>
<line x1="342.123058647" y1="11.4074266231"  x2="342.123058647" y2="11.4074266231" stroke="Black" stroke-width="2"/>
<line x1="342.123058647" y1="11.4074266231"  x2="342.123058647" y2="11.4074266231" stroke="Black" stroke-width="2"/>
<line x1="342.123058647" y1="11.4074266231"  x2="342.123058647" y2="11.4074266231" stroke="Black" stroke-width="2"/>
<line x1="342.123058647" y1="11.4074266231"  x2="342.123058647" y2="11.4074266231" stroke="Black" stroke-width="2"/>
<line x1="342.123058647" y1="11.4074266231"  x2="342.123058647" y2="11.4074266231" stroke="Black" stroke-width="2"/>
<line x1="342.123058647" y1="11.4074266231"  x2="342.123058647" y2="11.4074266231" stroke="Black" stroke-width="2"/>
<line x1="342.123058647" y1="11.4074266231"  x2="342.123058647" y2="11.4074266231" stroke="Black" stroke-width="2"/>
<line x1="342.123058647" y1="11.4074266231"  x2="342.123058647" y2="11.4074266231" stroke="Black" stroke-width="2"/>
<line x1="342.123058647" y1="11.4074266231"  x2="342.123058647" y2="11.4074266231" stroke="Black" stroke-width="2"/>
<line x1="342.123058647" y1="11.4074266231"  x2="342.123058647" y2="11.4074266231" stroke="Black" stroke-width="2"/>
<line x1="342.123058647" y1="11.4074266231"  x2="342.123058647" y2="11.4074266231" stroke="Black" stroke-width="2"/>
<line x1="342.123058647" y1="11.4074266231"  x2="342.123058647" y2="11.4074266231" stroke="Black" stroke-width="2"/>
<line x1="342.123058647" y1="11.4074266231"  x2="342.123058647" y2="11.4074266231" stroke="Black" stroke-width="2"/>
<line x1="342.123058647" y1="11.4074266231"  x2="342.123058647" y2="11.4074266231" stroke="Black" stroke-width="2"/>
<line x1="342.123058647" y1="11.4074266231"  x2="342.123058647" y2="11.4074266231" stroke="Black" stroke-width="2"/>
<line x1="342.123058647" y1="11.4074266231"  x2="342.123058647" y2="11.4074266231" stroke="Black" stroke-width="2"/>
<line x1="342.123058647" y1="11.4074266231"  x2="342.123058647" y2="11.4074266231" stroke="Black" stroke-width="2"/>
<line x1="342.123058647" y1="11.4074266231"  x2="342.123058647" y2="11.4074266231" stroke="Black" stroke-width="2"/>
<line x1="342.123058647" y1="11.4074266231"  x2="342.123058647" y2="11.4074266231" stroke="Black" stroke-width="2"/>
<line x1="342.123058647" y1="11.4074266231"  x2="342.123058647" y2="11.4074266231" stroke="Black" stroke-width="2"/>
<line x1="342.123058647" y1="11.4074266231"  x2="342.123058647" y2="11.4074266231" stroke="Black" stroke-width="2"/>
<line x1="342.123058647" y1="11.4074266231"  x2="342.123058647" y2="11.4074266231" stroke="Black" stroke-width="2"/>
<line x1="342.123058647" y1="11.4074266231"  x2="342.123058647" y2="11.4074266231" stroke="Black" stroke-width="2"/>
<line x1="342.123058647" y1="11.4074266231"  x2="342.123058647" y2="11.4074266231" stroke="Black" stroke-width="2"/>
<line x1="342.123058647" y1="11.4074266231"  x2="342.123058647" y2="11.4074266231" stroke="Black" stroke-width="2"/>
<line x1="342.123058647" y1="11.4074266231"  x2="342.123058647" y2="11.4074266231" stroke="Black" stroke-width="2"/>
<line x1="342.123058647" y1="11.4074266231"  x2="342.123058647" y2="11.4074266231" stroke="Black" stroke-width="2"/>
<line x1="342.123058647" y1="11.4074266231"  x2="342.123058647" y2="11.4074266231" stroke="Black" stroke-width="2"/>
<line x1="342.123058647" y1="11.4074266231"  x2="342.123058647" y2="11.4074266231" stroke="Black" stroke-width="2"/>
<line x1="342.123058647" y1="11.4074266231"  x2="342.123058647" y2="11.4074266231" stroke="Black" stroke-width="2"/>
<line x1="342.123058647" y1="11.4074266231"  x2="22.7109322493" y2="61.622607415" stroke="Black" stroke-width="2"/>
<line x1="22.7109322493" y1="61.622607415"  x2="11.7195384543" y2="70.9422689467" stroke="Black" stroke-width="2"/>
<line x1="11.7195384543" y1="70.9422689467"  x2="11.7195384543" y2="70.9422689467" stroke="Black" stroke-width="2"/>
<line x1="11.7195384543" y1="70.9422689467"  x2="11.7195384543" y2="70.9422689467" stroke="Black" stroke-width="2"/>
<line x1="11.7195384543" y1="70.9422689467"  x2="11.7195384543" y2="70.9422689467" stroke="Black" stroke-width="2"/>
<line x1="11.7195384543" y1="70.9422689467"  x2="11.7195384543" y2="70.9422689467" stroke="Black" stroke-width="2"/>
<line x1="11.7195384543" y1="70.9422689467"  x2="11.7195384543" y2="70.9422689467" stroke="Black" stroke-width="2"/>
<line x1="11.7195384543" y1="70.9422689467"  x2="11.7195384543" y2="70.9422689467" stroke="Black" stroke-width="2"/>
<line x1="11.7195384543" y1="70.9422689467"  x2="11.7195384543" y2="70.9422689467" stroke="Black" stroke-width="2"/>
<line x1="11.7195384543" y1="70.9422689467"  x2="11.7195384543" y2="70.9422689467" stroke="Black" stroke-width="2"/>
<line x1="11.7195384543" y1="70.9422689467"  x2="11.7195384543" y2="70.9422689467" stroke="Black" stroke-width="2"/>
<line x1="11.7195384543" y1="70.9422689467"  x2="11.7195384543" y2="70.9422689467" stroke="Black" stroke-width="2"/>
<line x1="11.7195384543" y1="70.9422689467"  x2="11.7195384543" y2="70.9422689467" stroke="Black" stroke-width="2"/>
<line x1="11.7195384543" y1="70.9422689467"  x2="11.7195384543" y2="70.9422689467" stroke="Black" stroke-width="2"/>
<line x1="11.7195384543" y1="70.9422689467"  x2="11.7195384543" y2="70.9422689467" stroke="Black" stroke-width="2"/>
<line x1="11.7195384543" y1="70.9422689467"  x2="11.7195384543" y2="70.9422689467" stroke="Black" stroke-width="2"/>
<line x1="11.7195384543" y1="70.9422689467"  x2="11.7195384543" y2="70.9422689467" stroke="Black" stroke-width="2"/>
<line x1="11.7195384543" y1="70.9422689467"  x2="11.7195384543" y2="70.9422689467" stroke="Black" stroke-width="2"/>
<line x1="11.7195384543" y1="70.9422689467"  x2="11.7195384543" y2="70.9422689467" stroke="Black" stroke-width="2"/>
<line x1="11.7195384543" y1="70.9422689467"  x2="11.7195384543" y2="70.9422689467" stroke="Black" stroke-width="2"/>
<line x1="11.7195384543" y1="70.9422689467"  x2="11.7195384543" y2="70.9422689467" stroke="Black" stroke-width="2"/>
<line x1="11.7195384543" y1="70.9422689467"  x2="11.7195384543" y2="70.9422689467" stroke="Black" stroke-width="2"/>
<line x1="11.7195384543" y1="70.9422689467"  x2="11.7195384543" y2="70.9422689467" stroke="Black" stroke-width="2"/>
<line x1="11.7195384543" y1="70.9422689467"  x2="11.7195384543" y2="70.9422689467" stroke="Black" stroke-width="2"/>
<line x1="11.7195384543" y1="70.9422689467"  x2="11.7195384543" y2="70.9422689467" stroke="Black" stroke-width="2"/>
<line x1="11.7195384543" y1="70.9422689467"  x2="11.7195384543" y2="70.9422689467" stroke="Black" stroke-width="2"/>
<line x1="11.7195384543" y1="70.9422689467"  x2="11.7195384543" y2="70.9422689467" stroke="Black" stroke-width="2"/>
<line x1="11.7195384543" y1="70.9422689467"  x2="11.7195384543" y2="70.9422689467" stroke="Black" stroke-width="2"/>
<line x1="11.7195384543" y1="70.9422689467"  x2="11.7195384543" y2="70.9422689467" stroke="Black" stroke-width="2"/>
<line x1="11.7195384543" y1="70.9422689467"  x2="11.7195384543" y2="70.9422689467" stroke="Black" stroke-width="2"/>
<line x1="11.7195384543" y1="70.9422689467"  x2="11.7195384543" y2="70.9422689467" stroke="Black" stroke-width="2"/>
<line x1="11.7195384543" y1="70.9422689467"  x2="11.7195384543" y2="70.9422689467" stroke="Black" stroke-width="2"/>
<line x1="11.7195384543" y1="70.9422689467"  x2="11.7195384543" y2="70.9422689467" stroke="Black" stroke-width="2"/>
<line x1="11.7195384543" y1="70.9422689467"  x2="11.7195384543" y2="70.9422689467" stroke="Black" stroke-width="2"/>
<line x1="11.7195384543" y1="70.9422689467"  x2="11.7195384543" y2="70.9422689467" stroke="Black" stroke-width="2"/>
<circle cx="15.5122535519" cy="97.44387185" r="10" stroke="Black" fill="Blue" stroke-width="2"  />
<line x1="15.5122535519" y1="97.44387185"  x2="37.7286858146" y2="293.049772823" stroke="Black" stroke-width="2"/>
<line x1="37.7286858146" y1="293.049772823"  x2="43.8741443093" y2="337.361082762" stroke="Black" stroke-width="2"/>
<line x1="43.8741443093" y1="337.361082762"  x2="196.1781392" y2="369.921586152" stroke="Black" stroke-width="2"/>
<line x1="196.1781392" y1="369.921586152"  x2="372.264769729" y2="388.763120431" stroke="Black" stroke-width="2"/>
<line x1="372.264769729" y1="388.763120431"  x2="372.264769729" y2="388.763120431" stroke="Black" stroke-width="2"/>
<line x1="372.264769729" y1="388.763120431"  x2="372.264769729" y2="388.763120431" stroke="Black" stroke-width="2"/>
<line x1="372.264769729" y1="388.763120431"  x2="372.264769729" y2="388.763120431" stroke="Black" stroke-width="2"/>
<line x1="372.264769729" y1="388.763120431"  x2="372.264769729" y2="388.763120431" stroke="Black" stroke-width="2"/>
<line x1="372.264769729" y1="388.763120431"  x2="372.264769729" y2="388.763120431" stroke="Black" stroke-width="2"/>
<line x1="372.264769729" y1="388.763120431"  x2="372.264769729" y2="388.763120431" stroke="Black" stroke-width="2"/>
<line x1="372.264769729" y1="388.763120431"  x2="372.264769729" y2="388.763120431" stroke="Black" stroke-width="2"/>
<line x1="372.264769729" y1="388.763120431"  x2="372.264769729" y2="388.763120431" stroke="Black" stroke-width="2"/>
<line x1="372.264769729" y1="388.763120431"  x2="372.264769729" y2="388.763120431" stroke="Black" stroke-width="2"/>
<line x1="372.264769729" y1="388.763120431"  x2="372.264769729" y2="388.763120431" stroke="Black" stroke-width="2"/>
<line x1="372.264769729" y1="388.763120431"  x2="372.264769729" y2="388.763120431" stroke="Black" stroke-width="2"/>
<line x1="372.264769729" y1="388.763120431"  x2="372.264769729" y2="388.763120431" stroke="Black" stroke-width="2"/>
<line x1="372.264769729" y1="388.763120431"  x2="372.264769729" y2="388.763120431" stroke="Black" stroke-width="2"/>
<line x1="372.264769729" y1="388.763120431"  x2="372.264769729" y2="388.763120431" stroke="Black" stroke-width="2"/>
<line x1="372.264769729" y1="388.763120431"  x2="372.264769729" y2="388.763120431" stroke="Black" stroke-width="2"/>
<line x1="372.264769729" y1="388.763120431"  x2="372.264769729" y2="388.763120431" stroke="Black" stroke-width="2"/>
<line x1="372.264769729" y1="388.763120431"  x2="372.264769729" y2="388.763120431" stroke="Black" stroke-width="2"/>
<line x1="372.264769729" y1="388.763120431"  x2="372.264769729" y2="388.763120431" stroke="Black" stroke-width="2"/>
<line x1="372.264769729" y1="388.763120431"  x2="372.264769729" y2="388.763120431" stroke="Black" stroke-width="2"/>
<line x1="372.264769729" y1="388.763120431"  x2="372.264769729" y2="388.763120431" stroke="Black" stroke-width="2"/>
<line x1="372.264769729" y1="388.763120431"  x2="372.264769729" y2="388.763120431" stroke="Black" stroke-width="2"/>
<line x1="372.264769729" y1="388.763120431"  x2="372.264769729" y2="388.763120431" stroke="Black" stroke-width="2"/>
<line x1="372.264769729" y1="388.763120431"  x2="372.264769729" y2="388.763120431" stroke="Black" stroke-width="2"/>
<line x1="372.264769729" y1="388.763120431"  x2="372.264769729" y2="388.763120431" stroke="Black" stroke-width="2"/>
<line x1="372.264769729" y1="388.763120431"  x2="372.264769729" y2="388.763120431" stroke="Black" stroke-width="2"/>
<line x1="372.264769729" y1="388.763120431"  x2="372.264769729" y2="388.763120431" stroke="Black" stroke-width="2"/>
<line x1="372.264769729" y1="388.763120431"  x2="372.264769729" y2="388.763120431" stroke="Black" stroke-width="2"/>
<line x1="372.264769729" y1="388.763120431"  x2="372.264769729" y2="388.763120431" stroke="Black" stroke-width="2"/>
<line x1="372.264769729" y1="388.763120431"  x2="372.264769729" y2="388.763120431" stroke="Black" stroke-width="2"/>
<line x1="372.264769729" y1="388.763120431"  x2="372.264769729" y2="388.763120431" stroke="Black" stroke-width="2"/>
<line x1="372.264769729" y1="388.763120431"  x2="372.264769729" y2="388.763120431" stroke="Black" stroke-width="2"/>
<line x1="372.264769729" y1="388.763120431"  x2="372.264769729" y2="388.763120431" stroke="Black" stroke-width="2"/>
<line x1="372.264769729" y1="388.763120431"  x2="372.264769729" y2="388.763120431" stroke="Black" stroke-width="2"/>
<line x1="372.264769729" y1="388.763120431"  x2="372.264769729" y2="388.763120431" stroke="Black" stroke-width="2"/>
<line x1="372.264769729" y1="388.763120431"  x2="372.264769729" y2="388.763120431" stroke="Black" stroke-width="2"/>
<line x1="372.264769729" y1="388.763120431"  x2="372.264769729" y2="388.763120431" stroke="Black" stroke-width="2"/>
<line x1="372.264769729" y1="388.763120431"  x2="372.264769729" y2="388.763120431" stroke="Black" stroke-width="2"/>
<line x1="372.264769729" y1="388.763120431"  x2="372.264769729" y2="388.763120431" stroke="Black" stroke-width="2"/>
<line x1="372.264769729" y1="388.763120431"  x2="372.264769729" y2="388.763120431" stroke="Black" stroke-width="2"/>
<line x1="372.264769729" y1="388.763120431"  x2="372.264769729" y2="388.763120431" stroke="Black" stroke-width="2"/>
<line x1="372.264769729" y1="388.763120431"  x2="372.264769729" y2="388.763120431" stroke="Black" stroke-width="2"/>
<line x1="372.264769729" y1="388.763120431"  x2="372.264769729" y2="388.763120431" stroke="Black" stroke-width="2"/>
<line x1="372.264769729" y1="388.763120431"  x2="372.264769729" y2="388.763120431" stroke="Black" stroke-width="2"/>
<line x1="372.264769729" y1="388.763120431"  x2="372.264769729" y2="388.763120431" stroke="Black" stroke-width="2"/>
<line x1="372.264769729" y1="388.763120431"  x2="372.264769729" y2="388.763120431" stroke="Black" stroke-width="2"/>
<line x1="372.264769729" y1="388.763120431"  x2="372.264769729" y2="388.763120431" stroke="Black" stroke-width="2"/>
<line x1="372.264769729" y1="388.763120431"  x2="372.264769729" y2="388.763120431" stroke="Black" stroke-width="2"/>
<line x1="372.264769729" y1="388.763120431"  x2="372.264769729" y2="388.763120431" stroke="Black" stroke-width="2"/>
<line x1="372.264769729" y1="388.763120431"  x2="372.264769729" y2="388.763120431" stroke="Black" stroke-width="2"/>
<line x1="372.264769729" y1="388.763120431"  x2="372.264769729" y2="388.763120431" stroke="Black" stroke-width="2"/>
<line x1="372.264769729" y1="388.763120431"  x2="372.264769729" y2="388.763120431" stroke="Black" stroke-width="2"/>
<line x1="372.264769729" y1="388.763120431"  x2="372.264769729" y2="388.763120431" stroke="Black" stroke-width="2"/>
<line x1="372.264769729" y1="388.763120431"  x2="372.264769729" y2="388.763120431" stroke="Black" stroke-width="2"/>
<line x1="372.264769729" y1="388.763120431"  x2="372.264769729" y2="388.763120431" stroke="Black" stroke-width="2"/>
<line x1="372.264769729" y1="388.763120431"  x2="372.264769729" y2="388.763120431" stroke="Black" stroke-width="2"/>
<line x1="372.264769729" y1="388.763120431"  x2="372.264769729" y2="388.763120431" stroke="Black" stroke-width="2"/>
<line x1="372.264769729" y1="388.763120431"  x2="372.264769729" y2="388.763120431" stroke="Black" stroke-width="2"/>
<line x1="372.264769729" y1="388.763120431"  x2="372.264769729" y2="388.763120431" stroke="Black" stroke-width="2"/>
<line x1="372.264769729" y1="388.763120431"  x2="362.457751056" y2="166.128331433" stroke="Black" stroke-width="2"/>
<line x1="362.457751056" y1="166.128331433"  x2="297.82553599" y2="34.9478144692" stroke="Black" stroke-width="2"/>
<line x1="297.82553599" y1="34.9478144692"  x2="283.879197154" y2="31.0289733381" stroke="Black" stroke-width="2"/>
<line x1="283.879197154" y1="31.0289733381"  x2="247.362745229" y2="28.7257355013" stroke="Black" stroke-width="2"/>
<line x1="247.362745229" y1="28.7257355013"  x2="247.362745229" y2="28.7257355013" stroke="Black" stroke-width="2"/>
<line x1="247.362745229" y1="28.7257355013"  x2="247.362745229" y2="28.7257355013" stroke="Black" stroke-width="2"/>
<line x1="247.362745229" y1="28.7257355013"  x2="247.362745229" y2="28.7257355013" stroke="Black" stroke-width="2"/>
<line x1="247.362745229" y1="28.7257355013"  x2="247.362745229" y2="28.7257355013" stroke="Black" stroke-width="2"/>
<line x1="247.362745229" y1="28.7257355013"  x2="247.362745229" y2="28.7257355013" stroke="Black" stroke-width="2"/>
<line x1="247.362745229" y1="28.7257355013"  x2="247.362745229" y2="28.7257355013" stroke="Black" stroke-width="2"/>
<line x1="247.362745229" y1="28.7257355013"  x2="247.362745229" y2="28.7257355013" stroke="Black" stroke-width="2"/>
<line x1="247.362745229" y1="28.7257355013"  x2="247.362745229" y2="28.7257355013" stroke="Black" stroke-width="2"/>
<line x1="247.362745229" y1="28.7257355013"  x2="247.362745229" y2="28.7257355013" stroke="Black" stroke-width="2"/>
<line x1="247.362745229" y1="28.7257355013"  x2="247.362745229" y2="28.7257355013" stroke="Black" stroke-width="2"/>
<line x1="247.362745229" y1="28.7257355013"  x2="247.362745229" y2="28.7257355013" stroke="Black" stroke-width="2"/>
<line x1="247.362745229" y1="28.7257355013"  x2="247.362745229" y2="28.7257355013" stroke="Black" stroke-width="2"/>
<line x1="247.362745229" y1="28.7257355013"  x2="247.362745229" y2="28.7257355013" stroke="Black" stroke-width="2"/>
<line x1="247.362745229" y1="28.7257355013"  x2="247.362745229" y2="28.7257355013" stroke="Black" stroke-width="2"/>
<line x1="247.362745229" y1="28.7257355013"  x2="247.362745229" y2="28.7257355013" stroke="Black" stroke-width="2"/>
<line x1="247.362745229" y1="28.7257355013"  x2="247.362745229" y2="28.7257355013" stroke="Black" stroke-width="2"/>
<line x1="247.362745229" y1="28.7257355013"  x2="247.362745229" y2="28.7257355013" stroke="Black" stroke-width="2"/>
<line x1="247.362745229" y1="28.7257355013"  x2="247.362745229" y2="28.7257355013" stroke="Black" stroke-width="2"/>
<line x1="247.362745229" y1="28.7257355013"  x2="247.362745229" y2="28.7257355013" stroke="Black" stroke-width="2"/>
<line x1="247.362745229" y1="28.7257355013"  x2="247.362745229" y2="28.7257355013" stroke="Black" stroke-width="2"/>
<line x1="247.362745229" y1="28.7257355013"  x2="247.362745229" y2="28.7257355013" stroke="Black" stroke-width="2"/>
<line x1="247.362745229" y1="28.7257355013"  x2="247.362745229" y2="28.7257355013" stroke="Black" stroke-width="2"/>
<line x1="247.362745229" y1="28.7257355013"  x2="247.362745229" y2="28.7257355013" stroke="Black" stroke-width="2"/>
<line x1="247.362745229" y1="28.7257355013"  x2="247.362745229" y2="28.7257355013" stroke="Black" stroke-width="2"/>
<line x1="247.362745229" y1="28.7257355013"  x2="247.362745229" y2="28.7257355013" stroke="Black" stroke-width="2"/>
<line x1="247.362745229" y1="28.7257355013"  x2="15.5122535519" y2="97.44387185" stroke="Black" stroke-width="2"/>
<line x1="15.5122535519" y1="97.44387185"  x2="15.5122535519" y2="97.44387185" stroke="Black" stroke-width="2"/>
<line x1="15.5122535519" y1="97.44387185"  x2="15.5122535519" y2="97.44387185" stroke="Black" stroke-width="2"/>
<line x1="15.5122535519" y1="97.44387185"  x2="15.5122535519" y2="97.44387185" stroke="Black" stroke-width="2"/>
<line x1="15.5122535519" y1="97.44387185"  x2="15.5122535519" y2="97.44387185" stroke="Black" stroke-width="2"/>
<line x1="15.5122535519" y1="97.44387185"  x2="15.5122535519" y2="97.44387185" stroke="Black" stroke-width="2"/>
<line x1="15.5122535519" y1="97.44387185"  x2="15.5122535519" y2="97.44387185" stroke="Black" stroke-width="2"/>
<line x1="15.5122535519" y1="97.44387185"  x2="15.5122535519" y2="97.44387185" stroke="Black" stroke-width="2"/>
<line x1="15.5122535519" y1="97.44387185"  x2="15.5122535519" y2="97.44387185" stroke="Black" stroke-width="2"/>
<line x1="15.5122535519" y1="97.44387185"  x2="15.5122535519" y2="97.44387185" stroke="Black" stroke-width="2"/>
<line x1="15.5122535519" y1="97.44387185"  x2="15.5122535519" y2="97.44387185" stroke="Black" stroke-width="2"/>
<line x1="15.5122535519" y1="97.44387185"  x2="15.5122535519" y2="97.44387185" stroke="Black" stroke-width="2"/>
<line x1="15.5122535519" y1="97.44387185"  x2="15.5122535519" y2="97.44387185" stroke="Black" stroke-width="2"/>
<line x1="15.5122535519" y1="97.44387185"  x2="15.5122535519" y2="97.44387185" stroke="Black" stroke-width="2"/>
<line x1="15.5122535519" y1="97.44387185"  x2="15.5122535519" y2="97.44387185" stroke="Black" stroke-width="2"/>
<line x1="15.5122535519" y1="97.44387185"  x2="15.5122535519" y2="97.44387185" stroke="Black" stroke-width="2"/>
<line x1="15.5122535519" y1="97.44387185"  x2="15.5122535519" y2="97.44387185" stroke="Black" stroke-width="2"/>
<line x1="15.5122535519" y1="97.44387185"  x2="15.5122535519" y2="97.44387185" stroke="Black" stroke-width="2"/>
<line x1="15.5122535519" y1="97.44387185"  x2="15.5122535519" y2="97.44387185" stroke="Black" stroke-width="2"/>
<line x1="15.5122535519" y1="97.44387185"  x2="15.5122535519" y2="97.44387185" stroke="Black" stroke-width="2"/>
<line x1="15.5122535519" y1="97.44387185"  x2="15.5122535519" y2="97.44387185" stroke="Black" stroke-width="2"/>
<line x1="15.5122535519" y1="97.44387185"  x2="15.5122535519" y2="97.44387185" stroke="Black" stroke-width="2"/>
<line x1="15.5122535519" y1="97.44387185"  x2="15.5122535519" y2="97.44387185" stroke="Black" stroke-width="2"/>
<line x1="15.5122535519" y1="97.44387185"  x2="15.5122535519" y2="97.44387185" stroke="Black" stroke-width="2"/>
<line x1="15.5122535519" y1="97.44387185"  x2="15.5122535519" y2="97.44387185" stroke="Black" stroke-width="2"/>
<circle cx="73.017987066" cy="143.865873311" r="10" stroke="Black" fill="Blue" stroke-width="2"  />
<line x1="73.017987066" y1="143.865873311"  x2="107.223356459" y2="298.305708366" stroke="Black" stroke-width="2"/>
<line x1="107.223356459" y1="298.305708366"  x2="179.785653935" y2="323.330034295" stroke="Black" stroke-width="2"/>
<line x1="179.785653935" y1="323.330034295"  x2="179.785653935" y2="323.330034295" stroke="Black" stroke-width="2"/>
<line x1="179.785653935" y1="323.330034295"  x2="179.785653935" y2="323.330034295" stroke="Black" stroke-width="2"/>
<line x1="179.785653935" y1="323.330034295"  x2="179.785653935" y2="323.330034295" stroke="Black" stroke-width="2"/>
<line x1="179.785653935" y1="323.330034295"  x2="179.785653935" y2="323.330034295" stroke="Black" stroke-width="2"/>
<line x1="179.785653935" y1="323.330034295"  x2="179.785653935" y2="323.330034295" stroke="Black" stroke-width="2"/>
<line x1="179.785653935" y1="323.330034295"  x2="179.785653935" y2="323.330034295" stroke="Black" stroke-width="2"/>
<line x1="179.785653935" y1="323.330034295"  x2="179.785653935" y2="323.330034295" stroke="Black" stroke-width="2"/>
<line x1="179.785653935" y1="323.330034295"  x2="179.785653935" y2="323.330034295" stroke="Black" stroke-width="2"/>
<line x1="179.785653935" y1="323.330034295"  x2="179.785653935" y2="323.330034295" stroke="Black" stroke-width="2"/>
<line x1="179.785653935" y1="323.330034295"  x2="179.785653935" y2="323.330034295" stroke="Black" stroke-width="2"/>
<line x1="179.785653935" y1="323.330034295"  x2="179.785653935" y2="323.330034295" stroke="Black" stroke-width="2"/>
<line x1="179.785653935" y1="323.330034295"  x2="179.785653935" y2="323.330034295" stroke="Black" stroke-width="2"/>
<line x1="179.785653935" y1="323.330034295"  x2="179.785653935" y2="323.330034295" stroke="Black" stroke-width="2"/>
<line x1="179.785653935" y1="323.330034295"  x2="179.785653935" y2="323.330034295" stroke="Black" stroke-width="2"/>
<line x1="179.785653935" y1="323.330034295"  x2="179.785653935" y2="323.330034295" stroke="Black" stroke-width="2"/>
<line x1="179.785653935" y1="323.330034295"  x2="179.785653935" y2="323.330034295" stroke="Black" stroke-width="2"/>
<line x1="179.785653935" y1="323.330034295"  x2="179.785653935" y2="323.330034295" stroke="Black" stroke-width="2"/>
<line x1="179.785653935" y1="323.330034295"  x2="179.785653935" y2="323.330034295" stroke="Black" stroke-width="2"/>
<line x1="179.785653935" y1="323.330034295"  x2="179.785653935" y2="323.330034295" stroke="Black" stroke-width="2"/>
<line x1="179.785653935" y1="323.330034295"  x2="179.785653935" y2="323.330034295" stroke="Black" stroke-width="2"/>
<line x1="179.785653935" y1="323.330034295"  x2="179.785653935" y2="323.330034295" stroke="Black" stroke-width="2"/>
<line x1="179.785653935" y1="323.330034295"  x2="179.785653935" y2="323.330034295" stroke="Black" stroke-width="2"/>
<line x1="179.785653935" y1="323.330034295"  x2="287.170986739" y2="284.625823618" stroke="Black" stroke-width="2"/>
<line x1="287.170986739" y1="284.625823618"  x2="307.630450248" y2="81.4362519107" stroke="Black" stroke-width="2"/>
<line x1="307.630450248" y1="81.4362519107"  x2="307.630450248" y2="81.4362519107" stroke="Black" stroke-width="2"/>
<line x1="307.630450248" y1="81.4362519107"  x2="307.630450248" y2="81.4362519107" stroke="Black" stroke-width="2"/>
<line x1="307.630450248" y1="81.4362519107"  x2="307.630450248" y2="81.4362519107" stroke="Black" stroke-width="2"/>
<line x1="307.630450248" y1="81.4362519107"  x2="307.630450248" y2="81.4362519107" stroke="Black" stroke-width="2"/>
<line x1="307.630450248" y1="81.4362519107"  x2="307.630450248" y2="81.4362519107" stroke="Black" stroke-width="2"/>
<line x1="307.630450248" y1="81.4362519107"  x2="307.630450248" y2="81.4362519107" stroke="Black" stroke-width="2"/>
<line x1="307.630450248" y1="81.4362519107"  x2="307.630450248" y2="81.4362519107" stroke="Black" stroke-width="2"/>
<line x1="307.630450248" y1="81.4362519107"  x2="307.630450248" y2="81.4362519107" stroke="Black" stroke-width="2"/>
<line x1="307.630450248" y1="81.4362519107"  x2="307.630450248" y2="81.4362519107" stroke="Black" stroke-width="2"/>
<line x1="307.630450248" y1="81.4362519107"  x2="307.630450248" y2="81.4362519107" stroke="Black" stroke-width="2"/>
<line x1="307.630450248" y1="81.4362519107"  x2="307.630450248" y2="81.4362519107" stroke="Black" stroke-width="2"/>
<line x1="307.630450248" y1="81.4362519107"  x2="307.630450248" y2="81.4362519107" stroke="Black" stroke-width="2"/>
<line x1="307.630450248" y1="81.4362519107"  x2="307.630450248" y2="81.4362519107" stroke="Black" stroke-width="2"/>
<line x1="307.630450248" y1="81.4362519107"  x2="307.630450248" y2="81.4362519107" stroke="Black" stroke-width="2"/>
<line x1="307.630450248" y1="81.4362519107"  x2="307.630450248" y2="81.4362519107" stroke="Black" stroke-width="2"/>
<line x1="307.630450248" y1="81.4362519107"  x2="307.630450248" y2="81.4362519107" stroke="Black" stroke-width="2"/>
<line x1="307.630450248" y1="81.4362519107"  x2="307.630450248" y2="81.4362519107" stroke="Black" stroke-width="2"/>
<line x1="307.630450248" y1="81.4362519107"  x2="307.630450248" y2="81.4362519107" stroke="Black" stroke-width="2"/>
<line x1="307.630450248" y1="81.4362519107"  x2="307.630450248" y2="81.4362519107" stroke="Black" stroke-width="2"/>
<line x1="307.630450248" y1="81.4362519107"  x2="307.630450248" y2="81.4362519107" stroke="Black" stroke-width="2"/>
<line x1="307.630450248" y1="81.4362519107"  x2="232.154903027" y2="54.9404969658" stroke="Black" stroke-width="2"/>
<line x1="232.154903027" y1="54.9404969658"  x2="232.154903027" y2="54.9404969658" stroke="Black" stroke-width="2"/>
<line x1="232.154903027" y1="54.9404969658"  x2="232.154903027" y2="54.9404969658" stroke="Black" stroke-width="2"/>
<line x1="232.154903027" y1="54.9404969658"  x2="232.154903027" y2="54.9404969658" stroke="Black" stroke-width="2"/>
<line x1="232.154903027" y1="54.9404969658"  x2="232.154903027" y2="54.9404969658" stroke="Black" stroke-width="2"/>
<line x1="232.154903027" y1="54.9404969658"  x2="232.154903027" y2="54.9404969658" stroke="Black" stroke-width="2"/>
<line x1="232.154903027" y1="54.9404969658"  x2="232.154903027" y2="54.9404969658" stroke="Black" stroke-width="2"/>
<line x1="232.154903027" y1="54.9404969658"  x2="232.154903027" y2="54.9404969658" stroke="Black" stroke-width="2"/>
<line x1="232.154903027" y1="54.9404969658"  x2="232.154903027" y2="54.9404969658" stroke="Black" stroke-width="2"/>
<line x1="232.154903027" y1="54.9404969658"  x2="232.154903027" y2="54.9404969658" stroke="Black" stroke-width="2"/>
<line x1="232.154903027" y1="54.9404969658"  x2="232.154903027" y2="54.9404969658" stroke="Black" stroke-width="2"/>
<line x1="232.154903027" y1="54.9404969658"  x2="232.154903027" y2="54.9404969658" stroke="Black" stroke-width="2"/>
<line x1="232.154903027" y1="54.9404969658"  x2="232.154903027" y2="54.9404969658" stroke="Black" stroke-width="2"/>
<line x1="232.154903027" y1="54.9404969658"  x2="232.154903027" y2="54.9404969658" stroke="Black" stroke-width="2"/>
<line x1="232.154903027" y1="54.9404969658"  x2="232.154903027" y2="54.9404969658" stroke="Black" stroke-width="2"/>
<line x1="232.154903027" y1="54.9404969658"  x2="232.154903027" y2="54.9404969658" stroke="Black" stroke-width="2"/>
<line x1="232.154903027" y1="54.9404969658"  x2="232.154903027" y2="54.9404969658" stroke="Black" stroke-width="2"/>
<line x1="232.154903027" y1="54.9404969658"  x2="232.154903027" y2="54.9404969658" stroke="Black" stroke-width="2"/>
<line x1="232.154903027" y1="54.9404969658"  x2="232.154903027" y2="54.9404969658" stroke="Black" stroke-width="2"/>
<line x1="232.154903027" y1="54.9404969658"  x2="232.154903027" y2="54.9404969658" stroke="Black" stroke-width="2"/>
<line x1="232.154903027" y1="54.9404969658"  x2="109.503407452" y2="86.3543548244" stroke="Black" stroke-width="2"/>
<line x1="109.503407452" y1="86.3543548244"  x2="73.017987066" y2="143.865873311" stroke="Black" stroke-width="2"/>
<line x1="73.017987066" y1="143.865873311"  x2="73.017987066" y2="143.865873311" stroke="Black" stroke-width="2"/>
<line x1="73.017987066" y1="143.865873311"  x2="73.017987066" y2="143.865873311" stroke="Black" stroke-width="2"/>
<line x1="73.017987066" y1="143.865873311"  x2="73.017987066" y2="143.865873311" stroke="Black" stroke-width="2"/>
<line x1="73.017987066" y1="143.865873311"  x2="73.017987066" y2="143.865873311" stroke="Black" stroke-width="2"/>
<line x1="73.017987066" y1="143.865873311"  x2="73.017987066" y2="143.865873311" stroke="Black" stroke-width="2"/>
<line x1="73.017987066" y1="143.865873311"  x2="73.017987066" y2="143.865873311" stroke="Black" stroke-width="2"/>
<line x1="73.017987066" y1="143.865873311"  x2="73.017987066" y2="143.865873311" stroke="Black" stroke-width="2"/>
<line x1="73.017987066" y1="143.865873311"  x2="73.017987066" y2="143.865873311" stroke="Black" stroke-width="2"/>
<line x1="73.017987066" y1="143.865873311"  x2="73.017987066" y2="143.865873311" stroke="Black" stroke-width="2"/>
<line x1="73.017987066" y1="143.865873311"  x2="73.017987066" y2="143.865873311" stroke="Black" stroke-width="2"/>
<line x1="73.017987066" y1="143.865873311"  x2="73.017987066" y2="143.865873311" stroke="Black" stroke-width="2"/>
<line x1="73.017987066" y1="143.865873311"  x2="73.017987066" y2="143.865873311" stroke="Black" stroke-width="2"/>
<line x1="73.017987066" y1="143.865873311"  x2="73.017987066" y2="143.865873311" stroke="Black" stroke-width="2"/>
<line x1="73.017987066" y1="143.865873311"  x2="73.017987066" y2="143.865873311" stroke="Black" stroke-width="2"/>
<line x1="73.017987066" y1="143.865873311"  x2="73.017987066" y2="143.865873311" stroke="Black" stroke-width="2"/>
<line x1="73.017987066" y1="143.865873311"  x2="73.017987066" y2="143.865873311" stroke="Black" stroke-width="2"/>
<line x1="73.017987066" y1="143.865873311"  x2="73.017987066" y2="143.865873311" stroke="Black" stroke-width="2"/>
<circle cx="122.801893347" cy="85.0845309704" r="10" stroke="Black" fill="Blue" stroke-width="2"  />
<line x1="122.801893347" y1="85.0845309704"  x2="128.970706301" y2="213.725746992" stroke="Black" stroke-width="2"/>
<line x1="128.970706301" y1="213.725746992"  x2="173.629549232" y2="266.572966825" stroke="Black" stroke-width="2"/>
<line x1="173.629549232" y1="266.572966825"  x2="215.34212953" y2="285.887404464" stroke="Black" stroke-width="2"/>
<line x1="215.34212953" y1="285.887404464"  x2="252.254933432" y2="289.910925976" stroke="Black" stroke-width="2"/>
<line x1="252.254933432" y1="289.910925976"  x2="252.254933432" y2="289.910925976" stroke="Black" stroke-width="2"/>
<line x1="252.254933432" y1="289.910925976"  x2="252.254933432" y2="289.910925976" stroke="Black" stroke-width="2"/>
<line x1="252.254933432" y1="289.910925976"  x2="252.254933432" y2="289.910925976" stroke="Black" stroke-width="2"/>
<line x1="252.254933432" y1="289.910925976"  x2="252.254933432" y2="289.910925976" stroke="Black" stroke-width="2"/>
<line x1="252.254933432" y1="289.910925976"  x2="252.254933432" y2="289.910925976" stroke="Black" stroke-width="2"/>
<line x1="252.254933432" y1="289.910925976"  x2="252.254933432" y2="289.910925976" stroke="Black" stroke-width="2"/>
<line x1="252.254933432" y1="289.910925976"  x2="252.254933432" y2="289.910925976" stroke="Black" stroke-width="2"/>
<line x1="252.254933432" y1="289.910925976"  x2="252.254933432" y2="289.910925976" stroke="Black" stroke-width="2"/>
<line x1="252.254933432" y1="289.910925976"  x2="252.254933432" y2="289.910925976" stroke="Black" stroke-width="2"/>
<line x1="252.254933432" y1="289.910925976"  x2="252.254933432" y2="289.910925976" stroke="Black" stroke-width="2"/>
<line x1="252.254933432" y1="289.910925976"  x2="252.254933432" y2="289.910925976" stroke="Black" stroke-width="2"/>
<line x1="252.254933432" y1="289.910925976"  x2="252.254933432" y2="289.910925976" stroke="Black" stroke-width="2"/>
<line x1="252.254933432" y1="289.910925976"  x2="252.254933432" y2="289.910925976" stroke="Black" stroke-width="2"/>
<line x1="252.254933432" y1="289.910925976"  x2="285.151620762" y2="263.912259863" stroke="Black" stroke-width="2"/>
<line x1="285.151620762" y1="263.912259863"  x2="285.151620762" y2="263.912259863" stroke="Black" stroke-width="2"/>
<line x1="285.151620762" y1="263.912259863"  x2="285.151620762" y2="263.912259863" stroke="Black" stroke-width="2"/>
<line x1="285.151620762" y1="263.912259863"  x2="285.151620762" y2="263.912259863" stroke="Black" stroke-width="2"/>
<line x1="285.151620762" y1="263.912259863"  x2="285.151620762" y2="263.912259863" stroke="Black" stroke-width="2"/>
<line x1="285.151620762" y1="263.912259863"  x2="285.151620762" y2="263.912259863" stroke="Black" stroke-width="2"/>
<line x1="285.151620762" y1="263.912259863"  x2="285.151620762" y2="263.912259863" stroke="Black" stroke-width="2"/>
<line x1="285.151620762" y1="263.912259863"  x2="285.151620762" y2="263.912259863" stroke="Black" stroke-width="2"/>
<line x1="285.151620762" y1="263.912259863"  x2="285.151620762" y2="263.912259863" stroke="Black" stroke-width="2"/>
<line x1="285.151620762" y1="263.912259863"  x2="285.151620762" y2="263.912259863" stroke="Black" stroke-width="2"/>
<line x1="285.151620762" y1="263.912259863"  x2="285.151620762" y2="263.912259863" stroke="Black" stroke-width="2"/>
<line x1="285.151620762" y1="263.912259863"  x2="285.151620762" y2="263.912259863" stroke="Black" stroke-width="2"/>
<line x1="285.151620762" y1="263.912259863"  x2="285.151620762" y2="263.912259863" stroke="Black" stroke-width="2"/>
<line x1="285.151620762" y1="263.912259863"  x2="263.608571089" y2="89.444009314" stroke="Black" stroke-width="2"/>
<line x1="263.608571089" y1="89.444009314"  x2="257.946414058" y2="72.5880147495" stroke="Black" stroke-width="2"/>
<line x1="257.946414058" y1="72.5880147495"  x2="257.946414058" y2="72.5880147495" stroke="Black" stroke-width="2"/>
<line x1="257.946414058" y1="72.5880147495"  x2="257.946414058" y2="72.5880147495" stroke="Black" stroke-width="2"/>
<line x1="257.946414058" y1="72.5880147495"  x2="257.946414058" y2="72.5880147495" stroke="Black" stroke-width="2"/>
<line x1="257.946414058" y1="72.5880147495"  x2="257.946414058" y2="72.5880147495" stroke="Black" stroke-width="2"/>
<line x1="257.946414058" y1="72.5880147495"  x2="257.946414058" y2="72.5880147495" stroke="Black" stroke-width="2"/>
<line x1="257.946414058" y1="72.5880147495"  x2="257.946414058" y2="72.5880147495" stroke="Black" stroke-width="2"/>
<line x1="257.946414058" y1="72.5880147495"  x2="257.946414058" y2="72.5880147495" stroke="Black" stroke-width="2"/>
<line x1="257.946414058" y1="72.5880147495"  x2="257.946414058" y2="72.5880147495" stroke="Black" stroke-width="2"/>
<line x1="257.946414058" y1="72.5880147495"  x2="257.946414058" y2="72.5880147495" stroke="Black" stroke-width="2"/>
<line x1="257.946414058" y1="72.5880147495"  x2="257.946414058" y2="72.5880147495" stroke="Black" stroke-width="2"/>
<line x1="257.946414058" y1="72.5880147495"  x2="122.801893347" y2="85.0845309704" stroke="Black" stroke-width="2"/>
<line x1="122.801893347" y1="85.0845309704"  x2="122.801893347" y2="85.0845309704" stroke="Black" stroke-width="2"/>
<line x1="122.801893347" y1="85.0845309704"  x2="122.801893347" y2="85.0845309704" stroke="Black" stroke-width="2"/>
<line x1="122.801893347" y1="85.0845309704"  x2="122.801893347" y2="85.0845309704" stroke="Black" stroke-width="2"/>
<line x1="122.801893347" y1="85.0845309704"  x2="122.801893347" y2="85.0845309704" stroke="Black" stroke-width="2"/>
<line x1="122.801893347" y1="85.0845309704"  x2="122.801893347" y2="85.0845309704" stroke="Black" stroke-width="2"/>
<line x1="122.801893347" y1="85.0845309704"  x2="122.801893347" y2="85.0845309704" stroke="Black" stroke-width="2"/>
<line x1="122.801893347" y1="85.0845309704"  x2="122.801893347" y2="85.0845309704" stroke="Black" stroke-width="2"/>
<line x1="122.801893347" y1="85.0845309704"  x2="122.801893347" y2="85.0845309704" stroke="Black" stroke-width="2"/>
<line x1="122.801893347" y1="85.0845309704"  x2="122.801893347" y2="85.0845309704" stroke="Black" stroke-width="2"/>
<circle cx="160.364837581" cy="117.589962661" r="10" stroke="Black" fill="Blue" stroke-width="2"  />
<line x1="160.364837581" y1="117.589962661"  x2="179.53877835" y2="204.248675011" stroke="Black" stroke-width="2"/>
<line x1="179.53877835" y1="204.248675011"  x2="232.423659275" y2="265.230072328" stroke="Black" stroke-width="2"/>
<line x1="232.423659275" y1="265.230072328"  x2="259.08714902" y2="270.668496951" stroke="Black" stroke-width="2"/>
<line x1="259.08714902" y1="270.668496951"  x2="259.08714902" y2="270.668496951" stroke="Black" stroke-width="2"/>
<line x1="259.08714902" y1="270.668496951"  x2="259.08714902" y2="270.668496951" stroke="Black" stroke-width="2"/>
<line x1="259.08714902" y1="270.668496951"  x2="259.08714902" y2="270.668496951" stroke="Black" stroke-width="2"/>
<line x1="259.08714902" y1="270.668496951"  x2="259.08714902" y2="270.668496951" stroke="Black" stroke-width="2"/>
<line x1="259.08714902" y1="270.668496951"  x2="259.08714902" y2="270.668496951" stroke="Black" stroke-width="2"/>
<line x1="259.08714902" y1="270.668496951"  x2="259.08714902" y2="270.668496951" stroke="Black" stroke-width="2"/>
<line x1="259.08714902" y1="270.668496951"  x2="259.08714902" y2="270.668496951" stroke="Black" stroke-width="2"/>
<line x1="259.08714902" y1="270.668496951"  x2="259.08714902" y2="270.668496951" stroke="Black" stroke-width="2"/>
<line x1="259.08714902" y1="270.668496951"  x2="259.08714902" y2="270.668496951" stroke="Black" stroke-width="2"/>
<line x1="259.08714902" y1="270.668496951"  x2="259.08714902" y2="270.668496951" stroke="Black" stroke-width="2"/>
<line x1="259.08714902" y1="270.668496951"  x2="259.08714902" y2="270.668496951" stroke="Black" stroke-width="2"/>
<line x1="259.08714902" y1="270.668496951"  x2="259.08714902" y2="270.668496951" stroke="Black" stroke-width="2"/>
<line x1="259.08714902" y1="270.668496951"  x2="258.981753393" y2="94.2408480375" stroke="Black" stroke-width="2"/>
<line x1="258.981753393" y1="94.2408480375"  x2="208.625838005" y2="84.8067514433" stroke="Black" stroke-width="2"/>
<line x1="208.625838005" y1="84.8067514433"  x2="208.625838005" y2="84.8067514433" stroke="Black" stroke-width="2"/>
<line x1="208.625838005" y1="84.8067514433"  x2="208.625838005" y2="84.8067514433" stroke="Black" stroke-width="2"/>
<line x1="208.625838005" y1="84.8067514433"  x2="208.625838005" y2="84.8067514433" stroke="Black" stroke-width="2"/>
<line x1="208.625838005" y1="84.8067514433"  x2="208.625838005" y2="84.8067514433" stroke="Black" stroke-width="2"/>
<line x1="208.625838005" y1="84.8067514433"  x2="160.364837581" y2="117.589962661" stroke="Black" stroke-width="2"/>
<line x1="160.364837581" y1="117.589962661"  x2="160.364837581" y2="117.589962661" stroke="Black" stroke-width="2"/>
<line x1="160.364837581" y1="117.589962661"  x2="160.364837581" y2="117.589962661" stroke="Black" stroke-width="2"/>
<line x1="160.364837581" y1="117.589962661"  x2="160.364837581" y2="117.589962661" stroke="Black" stroke-width="2"/>
<circle cx="186.016791336" cy="122.445670112" r="10" stroke="Black" fill="Blue" stroke-width="2"  />
<line x1="186.016791336" y1="122.445670112"  x2="223.947101523" y2="219.995670866" stroke="Black" stroke-width="2"/>
<line x1="223.947101523" y1="219.995670866"  x2="223.947101523" y2="219.995670866" stroke="Black" stroke-width="2"/>
<line x1="223.947101523" y1="219.995670866"  x2="223.947101523" y2="219.995670866" stroke="Black" stroke-width="2"/>
<line x1="223.947101523" y1="219.995670866"  x2="223.947101523" y2="219.995670866" stroke="Black" stroke-width="2"/>
<line x1="223.947101523" y1="219.995670866"  x2="223.947101523" y2="219.995670866" stroke="Black" stroke-width="2"/>
<line x1="223.947101523" y1="219.995670866"  x2="219.52064826" y2="118.725987852" stroke="Black" stroke-width="2"/>
<line x1="219.52064826" y1="118.725987852"  x2="219.52064826" y2="118.725987852" stroke="Black" stroke-width="2"/>
<line x1="219.52064826" y1="118.725987852"  x2="186.016791336" y2="122.445670112" stroke="Black" stroke-width="2"/>
</svg>
