<svg version="1.1"
     baseProfile="full"
     width="400" height="400"
     xmlns="http://www.w3.org/2000/svg">
<line x1="275.164655399" y1="245.808754918"  x2="211.856884217" y2="192.032556795" stroke="Black" stroke-width="2"/>
<line x1="13.4783363598" y1="203.2582164"  x2="290.124233222" y2="199.241967909" stroke="Black" stroke-width="2"/>
<line x1="98.925999492" y1="285.500745211"  x2="250.966065778" y2="86.6162409783" stroke="Black" stroke-width="2"/>
<line x1="53.8086994125" y1="263.256580319"  x2="218.704398919" y2="200.116089689" stroke="Black" stroke-width="2"/>
<line x1="143.256092337" y1="282.682015843"  x2="164.427090257" y2="243.609016682" stroke="Black" stroke-width="2"/>
<line x1="383.603618382" y1="103.995058179"  x2="398.547699662" y2="331.285935629" stroke="Black" stroke-width="2"/>
<line x1="298.460400418" y1="357.32583122"  x2="265.303503755" y2="275.873849604" stroke="Black" stroke-width="2"/>
<line x1="155.359484566" y1="362.820133901"  x2="324.099245969" y2="149.286290151" stroke="Black" stroke-width="2"/>
<line x1="300.22279929" y1="55.634386821"  x2="74.6111073925" y2="135.517195458" stroke="Black" stroke-width="2"/>
<line x1="339.291558699" y1="198.013078097"  x2="211.984363563" y2="244.919887116" stroke="Black" stroke-width="2"/>
<line x1="60.9865847495" y1="114.930095889"  x2="33.6589103588" y2="254.767168317" stroke="Black" stroke-width="2"/>
<line x1="277.075798751" y1="284.9503151"  x2="260.353117171" y2="70.1498701175" stroke="Black" stroke-width="2"/>
<line x1="89.698088973" y1="345.136157672"  x2="3.31871639568" y2="384.445760006" stroke="Black" stroke-width="2"/>
<line x1="99.0246979435" y1="54.6682000007"  x2="284.504929838" y2="50.4017846331" stroke="Black" stroke-width="2"/>
<line x1="240.051358174" y1="237.088584417"  x2="20.8193678463" y2="213.234213098" stroke="Black" stroke-width="2"/>
<line x1="163.542366975" y1="27.8895620625"  x2="246.271909774" y2="129.387292718" stroke="Black" stroke-width="2"/>
<line x1="150.689447343" y1="339.503369737"  x2="307.371280712" y2="223.778881548" stroke="Black" stroke-width="2"/>
<line x1="381.654311325" y1="347.040787571"  x2="146.629055714" y2="38.4704252773" stroke="Black" stroke-width="2"/>
<line x1="98.2508394648" y1="314.503375683"  x2="168.504402942" y2="266.79704645" stroke="Black" stroke-width="2"/>
<line x1="90.4351266149" y1="229.024103597"  x2="335.262721678" y2="184.154066738" stroke="Black" stroke-width="2"/>
<circle cx="221.516689043" cy="200.237988269" r="3" stroke="Black" fill="Red" stroke-width="2"  />
<circle cx="258.805715685" cy="231.912805547" r="3" stroke="Black" fill="Red" stroke-width="2"  />
<circle cx="255.320668474" cy="228.952464569" r="3" stroke="Black" fill="Red" stroke-width="2"  />
<circle cx="273.948090808" cy="244.775355427" r="3" stroke="Black" fill="Red" stroke-width="2"  />
<circle cx="226.128367176" cy="204.155335418" r="3" stroke="Black" fill="Red" stroke-width="2"  />
<circle cx="221.516689043" cy="200.237988269" r="3" stroke="Black" fill="Red" stroke-width="2"  />
<circle cx="163.462013691" cy="201.080805765" r="3" stroke="Black" fill="Red" stroke-width="2"  />
<circle cx="218.262680517" cy="200.285228828" r="3" stroke="Black" fill="Red" stroke-width="2"  />
<circle cx="284.559181823" cy="199.322759381" r="3" stroke="Black" fill="Red" stroke-width="2"  />
<circle cx="43.8111101512" cy="202.817855786" r="3" stroke="Black" fill="Red" stroke-width="2"  />
<circle cx="270.425481741" cy="199.527947501" r="3" stroke="Black" fill="Red" stroke-width="2"  />
<circle cx="269.312205073" cy="199.544109663" r="3" stroke="Black" fill="Red" stroke-width="2"  />
<circle cx="249.738416277" cy="199.828275091" r="3" stroke="Black" fill="Red" stroke-width="2"  />
<circle cx="163.462013691" cy="201.080805765" r="3" stroke="Black" fill="Red" stroke-width="2"  />
<circle cx="141.641471434" cy="229.624385329" r="3" stroke="Black" fill="Red" stroke-width="2"  />
<circle cx="231.82178624" cy="111.658985552" r="3" stroke="Black" fill="Red" stroke-width="2"  />
<circle cx="217.070699401" cy="130.954968935" r="3" stroke="Black" fill="Red" stroke-width="2"  />
<circle cx="218.262680517" cy="200.285228828" r="3" stroke="Black" fill="Red" stroke-width="2"  />
<circle cx="141.641471434" cy="229.624385329" r="3" stroke="Black" fill="Red" stroke-width="2"  />
<circle cx="148.238030489" cy="227.098485767" r="3" stroke="Black" fill="Red" stroke-width="2"  />
<circle cx="191.656418479" cy="210.473077534" r="3" stroke="Black" fill="Red" stroke-width="2"  />
<circle cx="258.805715685" cy="231.912805547" r="3" stroke="Black" fill="Red" stroke-width="2"  />
<circle cx="284.559181823" cy="199.322759381" r="3" stroke="Black" fill="Red" stroke-width="2"  />
<circle cx="263.537463631" cy="225.924955866" r="3" stroke="Black" fill="Red" stroke-width="2"  />
<circle cx="271.67849945" cy="215.62278016" r="3" stroke="Black" fill="Red" stroke-width="2"  />
<circle cx="206.16173346" cy="298.531791976" r="3" stroke="Black" fill="Red" stroke-width="2"  />
<circle cx="276.709515441" cy="209.256217984" r="3" stroke="Black" fill="Red" stroke-width="2"  />
<circle cx="289.989052545" cy="192.451461491" r="3" stroke="Black" fill="Red" stroke-width="2"  />
<circle cx="211.703485553" cy="86.9766073438" r="3" stroke="Black" fill="Red" stroke-width="2"  />
<circle cx="189.54889865" cy="94.8209287579" r="3" stroke="Black" fill="Red" stroke-width="2"  />
<circle cx="255.320668474" cy="228.952464569" r="3" stroke="Black" fill="Red" stroke-width="2"  />
<circle cx="263.537463631" cy="225.924955866" r="3" stroke="Black" fill="Red" stroke-width="2"  />
<circle cx="272.231167987" cy="222.721728197" r="3" stroke="Black" fill="Red" stroke-width="2"  />
<circle cx="234.792018454" cy="236.516321937" r="3" stroke="Black" fill="Red" stroke-width="2"  />
<circle cx="283.736755334" cy="218.482451794" r="3" stroke="Black" fill="Red" stroke-width="2"  />
<circle cx="43.8111101512" cy="202.817855786" r="3" stroke="Black" fill="Red" stroke-width="2"  />
<circle cx="41.3391601456" cy="215.466947217" r="3" stroke="Black" fill="Red" stroke-width="2"  />
<circle cx="273.948090808" cy="244.775355427" r="3" stroke="Black" fill="Red" stroke-width="2"  />
<circle cx="270.425481741" cy="199.527947501" r="3" stroke="Black" fill="Red" stroke-width="2"  />
<circle cx="271.67849945" cy="215.62278016" r="3" stroke="Black" fill="Red" stroke-width="2"  />
<circle cx="272.231167987" cy="222.721728197" r="3" stroke="Black" fill="Red" stroke-width="2"  />
<circle cx="274.219725876" cy="248.264468891" r="3" stroke="Black" fill="Red" stroke-width="2"  />
<circle cx="270.553631134" cy="201.17400807" r="3" stroke="Black" fill="Red" stroke-width="2"  />
<circle cx="270.157520632" cy="196.08602551" r="3" stroke="Black" fill="Red" stroke-width="2"  />
<circle cx="183.780251537" cy="52.7186531803" r="3" stroke="Black" fill="Red" stroke-width="2"  />
<circle cx="157.934155338" cy="53.3131649559" r="3" stroke="Black" fill="Red" stroke-width="2"  />
<circle cx="148.238030489" cy="227.098485767" r="3" stroke="Black" fill="Red" stroke-width="2"  />
<circle cx="234.792018454" cy="236.516321937" r="3" stroke="Black" fill="Red" stroke-width="2"  />
<circle cx="41.3391601456" cy="215.466947217" r="3" stroke="Black" fill="Red" stroke-width="2"  />
<circle cx="118.561190875" cy="223.869384253" r="3" stroke="Black" fill="Red" stroke-width="2"  />
<circle cx="231.82178624" cy="111.658985552" r="3" stroke="Black" fill="Red" stroke-width="2"  />
<circle cx="211.703485553" cy="86.9766073438" r="3" stroke="Black" fill="Red" stroke-width="2"  />
<circle cx="183.780251537" cy="52.7186531803" r="3" stroke="Black" fill="Red" stroke-width="2"  />
<circle cx="206.16173346" cy="298.531791976" r="3" stroke="Black" fill="Red" stroke-width="2"  />
<circle cx="274.219725876" cy="248.264468891" r="3" stroke="Black" fill="Red" stroke-width="2"  />
<circle cx="294.827451831" cy="233.043696402" r="3" stroke="Black" fill="Red" stroke-width="2"  />
<circle cx="269.312205073" cy="199.544109663" r="3" stroke="Black" fill="Red" stroke-width="2"  />
<circle cx="217.070699401" cy="130.954968935" r="3" stroke="Black" fill="Red" stroke-width="2"  />
<circle cx="276.709515441" cy="209.256217984" r="3" stroke="Black" fill="Red" stroke-width="2"  />
<circle cx="189.54889865" cy="94.8209287579" r="3" stroke="Black" fill="Red" stroke-width="2"  />
<circle cx="283.736755334" cy="218.482451794" r="3" stroke="Black" fill="Red" stroke-width="2"  />
<circle cx="270.553631134" cy="201.17400807" r="3" stroke="Black" fill="Red" stroke-width="2"  />
<circle cx="157.934155338" cy="53.3131649559" r="3" stroke="Black" fill="Red" stroke-width="2"  />
<circle cx="294.827451831" cy="233.043696402" r="3" stroke="Black" fill="Red" stroke-width="2"  />
<circle cx="267.104499024" cy="196.64555881" r="3" stroke="Black" fill="Red" stroke-width="2"  />
<circle cx="226.128367176" cy="204.155335418" r="3" stroke="Black" fill="Red" stroke-width="2"  />
<circle cx="249.738416277" cy="199.828275091" r="3" stroke="Black" fill="Red" stroke-width="2"  />
<circle cx="191.656418479" cy="210.473077534" r="3" stroke="Black" fill="Red" stroke-width="2"  />
<circle cx="289.989052545" cy="192.451461491" r="3" stroke="Black" fill="Red" stroke-width="2"  />
<circle cx="270.157520632" cy="196.08602551" r="3" stroke="Black" fill="Red" stroke-width="2"  />
<circle cx="118.561190875" cy="223.869384253" r="3" stroke="Black" fill="Red" stroke-width="2"  />
<circle cx="267.104499024" cy="196.64555881" r="3" stroke="Black" fill="Red" stroke-width="2"  />
</svg>
