<svg version="1.1"
     baseProfile="full"
     width="400" height="400"
     xmlns="http://www.w3.org/2000/svg">
<line x1="200.0" y1="0"  x2="200.0" y2="0" stroke="Black" stroke-width="2"/>
<line x1="0" y1="200.0"  x2="0" y2="200.0" stroke="Black" stroke-width="2"/>
<line x1="137.550020016" y1="10"  x2="262.449979984" y2="10" stroke="Black" stroke-width="2"/>
<line x1="10" y1="137.550020016"  x2="10" y2="262.449979984" stroke="Black" stroke-width="2"/>
<line x1="112.822021129" y1="20"  x2="287.177978871" y2="20" stroke="Black" stroke-width="2"/>
<line x1="20" y1="112.822021129"  x2="20" y2="287.177978871" stroke="Black" stroke-width="2"/>
<line x1="94.6434624715" y1="30"  x2="305.356537529" y2="30" stroke="Black" stroke-width="2"/>
<line x1="30" y1="94.6434624715"  x2="30" y2="305.356537529" stroke="Black" stroke-width="2"/>
<line x1="80.0" y1="40"  x2="320.0" y2="40" stroke="Black" stroke-width="2"/>
<line x1="40" y1="80.0"  x2="40" y2="320.0" stroke="Black" stroke-width="2"/>
<line x1="67.7124344468" y1="50"  x2="332.287565553" y2="50" stroke="Black" stroke-width="2"/>
<line x1="50" y1="67.7124344468"  x2="50" y2="332.287565553" stroke="Black" stroke-width="2"/>
<line x1="57.1714314291" y1="60"  x2="342.828568571" y2="60" stroke="Black" stroke-width="2"/>
<line x1="60" y1="57.1714314291"  x2="60" y2="342.828568571" stroke="Black" stroke-width="2"/>
<line x1="48.0131584643" y1="70"  x2="351.986841536" y2="70" stroke="Black" stroke-width="2"/>
<line x1="70" y1="48.0131584643"  x2="70" y2="351.986841536" stroke="Black" stroke-width="2"/>
<line x1="40.0" y1="80"  x2="360.0" y2="80" stroke="Black" stroke-width="2"/>
<line x1="80" y1="40.0"  x2="80" y2="360.0" stroke="Black" stroke-width="2"/>
<line x1="32.9670691151" y1="90"  x2="367.032930885" y2="90" stroke="Black" stroke-width="2"/>
<line x1="90" y1="32.9670691151"  x2="90" y2="367.032930885" stroke="Black" stroke-width="2"/>
<line x1="26.7949192431" y1="100"  x2="373.205080757" y2="100" stroke="Black" stroke-width="2"/>
<line x1="100" y1="26.7949192431"  x2="100" y2="373.205080757" stroke="Black" stroke-width="2"/>
<line x1="21.3942890051" y1="110"  x2="378.605710995" y2="110" stroke="Black" stroke-width="2"/>
<line x1="110" y1="21.3942890051"  x2="110" y2="378.605710995" stroke="Black" stroke-width="2"/>
<line x1="16.6969722018" y1="120"  x2="383.303027798" y2="120" stroke="Black" stroke-width="2"/>
<line x1="120" y1="16.6969722018"  x2="120" y2="383.303027798" stroke="Black" stroke-width="2"/>
<line x1="12.650060048" y1="130"  x2="387.349939952" y2="130" stroke="Black" stroke-width="2"/>
<line x1="130" y1="12.650060048"  x2="130" y2="387.349939952" stroke="Black" stroke-width="2"/>
<line x1="9.21215971661" y1="140"  x2="390.787840283" y2="140" stroke="Black" stroke-width="2"/>
<line x1="140" y1="9.21215971661"  x2="140" y2="390.787840283" stroke="Black" stroke-width="2"/>
<line x1="6.35083268963" y1="150"  x2="393.64916731" y2="150" stroke="Black" stroke-width="2"/>
<line x1="150" y1="6.35083268963"  x2="150" y2="393.64916731" stroke="Black" stroke-width="2"/>
<line x1="4.04082057735" y1="160"  x2="395.959179423" y2="160" stroke="Black" stroke-width="2"/>
<line x1="160" y1="4.04082057735"  x2="160" y2="395.959179423" stroke="Black" stroke-width="2"/>
<line x1="2.26280066715" y1="170"  x2="397.737199333" y2="170" stroke="Black" stroke-width="2"/>
<line x1="170" y1="2.26280066715"  x2="170" y2="397.737199333" stroke="Black" stroke-width="2"/>
<line x1="1.00251257868" y1="180"  x2="398.997487421" y2="180" stroke="Black" stroke-width="2"/>
<line x1="180" y1="1.00251257868"  x2="180" y2="398.997487421" stroke="Black" stroke-width="2"/>
<line x1="0.250156445618" y1="190"  x2="399.749843554" y2="190" stroke="Black" stroke-width="2"/>
<line x1="190" y1="0.250156445618"  x2="190" y2="399.749843554" stroke="Black" stroke-width="2"/>
<line x1="0.0" y1="200"  x2="400.0" y2="200" stroke="Black" stroke-width="2"/>
<line x1="200" y1="0.0"  x2="200" y2="400.0" stroke="Black" stroke-width="2"/>
<line x1="0.250156445618" y1="210"  x2="399.749843554" y2="210" stroke="Black" stroke-width="2"/>
<line x1="210" y1="0.250156445618"  x2="210" y2="399.749843554" stroke="Black" stroke-width="2"/>
<line x1="1.00251257868" y1="220"  x2="398.997487421" y2="220" stroke="Black" stroke-width="2"/>
<line x1="220" y1="1.00251257868"  x2="220" y2="398.997487421" stroke="Black" stroke-width="2"/>
<line x1="2.26280066715" y1="230"  x2="397.737199333" y2="230" stroke="Black" stroke-width="2"/>
<line x1="230" y1="2.26280066715"  x2="230" y2="397.737199333" stroke="Black" stroke-width="2"/>
<line x1="4.04082057735" y1="240"  x2="395.959179423" y2="240" stroke="Black" stroke-width="2"/>
<line x1="240" y1="4.04082057735"  x2="240" y2="395.959179423" stroke="Black" stroke-width="2"/>
<line x1="6.35083268963" y1="250"  x2="393.64916731" y2="250" stroke="Black" stroke-width="2"/>
<line x1="250" y1="6.35083268963"  x2="250" y2="393.64916731" stroke="Black" stroke-width="2"/>
<line x1="9.21215971661" y1="260"  x2="390.787840283" y2="260" stroke="Black" stroke-width="2"/>
<line x1="260" y1="9.21215971661"  x2="260" y2="390.787840283" stroke="Black" stroke-width="2"/>
<line x1="12.650060048" y1="270"  x2="387.349939952" y2="270" stroke="Black" stroke-width="2"/>
<line x1="270" y1="12.650060048"  x2="270" y2="387.349939952" stroke="Black" stroke-width="2"/>
<line x1="16.6969722018" y1="280"  x2="383.303027798" y2="280" stroke="Black" stroke-width="2"/>
<line x1="280" y1="16.6969722018"  x2="280" y2="383.303027798" stroke="Black" stroke-width="2"/>
<line x1="21.3942890051" y1="290"  x2="378.605710995" y2="290" stroke="Black" stroke-width="2"/>
<line x1="290" y1="21.3942890051"  x2="290" y2="378.605710995" stroke="Black" stroke-width="2"/>
<line x1="26.7949192431" y1="300"  x2="373.205080757" y2="300" stroke="Black" stroke-width="2"/>
<line x1="300" y1="26.7949192431"  x2="300" y2="373.205080757" stroke="Black" stroke-width="2"/>
<line x1="32.9670691151" y1="310"  x2="367.032930885" y2="310" stroke="Black" stroke-width="2"/>
<line x1="310" y1="32.9670691151"  x2="310" y2="367.032930885" stroke="Black" stroke-width="2"/>
<line x1="40.0" y1="320"  x2="360.0" y2="320" stroke="Black" stroke-width="2"/>
<line x1="320" y1="40.0"  x2="320" y2="360.0" stroke="Black" stroke-width="2"/>
<line x1="48.0131584643" y1="330"  x2="351.986841536" y2="330" stroke="Black" stroke-width="2"/>
<line x1="330" y1="48.0131584643"  x2="330" y2="351.986841536" stroke="Black" stroke-width="2"/>
<line x1="57.1714314291" y1="340"  x2="342.828568571" y2="340" stroke="Black" stroke-width="2"/>
<line x1="340" y1="57.1714314291"  x2="340" y2="342.828568571" stroke="Black" stroke-width="2"/>
<line x1="67.7124344468" y1="350"  x2="332.287565553" y2="350" stroke="Black" stroke-width="2"/>
<line x1="350" y1="67.7124344468"  x2="350" y2="332.287565553" stroke="Black" stroke-width="2"/>
<line x1="80.0" y1="360"  x2="320.0" y2="360" stroke="Black" stroke-width="2"/>
<line x1="360" y1="80.0"  x2="360" y2="320.0" stroke="Black" stroke-width="2"/>
<line x1="94.6434624715" y1="370"  x2="305.356537529" y2="370" stroke="Black" stroke-width="2"/>
<line x1="370" y1="94.6434624715"  x2="370" y2="305.356537529" stroke="Black" stroke-width="2"/>
<line x1="112.822021129" y1="380"  x2="287.177978871" y2="380" stroke="Black" stroke-width="2"/>
<line x1="380" y1="112.822021129"  x2="380" y2="287.177978871" stroke="Black" stroke-width="2"/>
<line x1="137.550020016" y1="390"  x2="262.449979984" y2="390" stroke="Black" stroke-width="2"/>
<line x1="390" y1="137.550020016"  x2="390" y2="262.449979984" stroke="Black" stroke-width="2"/>
</svg>
