<svg version="1.1"
     baseProfile="full"
     width="400" height="400"
     xmlns="http://www.w3.org/2000/svg">
<line x1="50" y1="300"  x2="250.0" y2="300.0" stroke="Black" stroke-width="2"/>
<line x1="250.0" y1="300.0"  x2="250.0" y2="100.0" stroke="Black" stroke-width="2"/>
<line x1="250.0" y1="100.0"  x2="50.0" y2="100.0" stroke="Black" stroke-width="2"/>
<line x1="50.0" y1="100.0"  x2="50.0" y2="300.0" stroke="Black" stroke-width="2"/>
<line x1="50.0" y1="300.0"  x2="90.0" y2="300.0" stroke="Black" stroke-width="2"/>
<line x1="90.0" y1="300.0"  x2="250.0" y2="260.0" stroke="Black" stroke-width="2"/>
<line x1="250.0" y1="260.0"  x2="210.0" y2="100.0" stroke="Black" stroke-width="2"/>
<line x1="210.0" y1="100.0"  x2="50.0" y2="140.0" stroke="Black" stroke-width="2"/>
<line x1="50.0" y1="140.0"  x2="90.0" y2="300.0" stroke="Black" stroke-width="2"/>
<line x1="90.0" y1="300.0"  x2="122.0" y2="292.0" stroke="Black" stroke-width="2"/>
<line x1="122.0" y1="292.0"  x2="242.0" y2="228.0" stroke="Black" stroke-width="2"/>
<line x1="242.0" y1="228.0"  x2="178.0" y2="108.0" stroke="Black" stroke-width="2"/>
<line x1="178.0" y1="108.0"  x2="58.0" y2="172.0" stroke="Black" stroke-width="2"/>
<line x1="58.0" y1="172.0"  x2="122.0" y2="292.0" stroke="Black" stroke-width="2"/>
<line x1="122.0" y1="292.0"  x2="146.0" y2="279.2" stroke="Black" stroke-width="2"/>
<line x1="146.0" y1="279.2"  x2="229.2" y2="204.0" stroke="Black" stroke-width="2"/>
<line x1="229.2" y1="204.0"  x2="154.0" y2="120.8" stroke="Black" stroke-width="2"/>
<line x1="154.0" y1="120.8"  x2="70.8" y2="196.0" stroke="Black" stroke-width="2"/>
<line x1="70.8" y1="196.0"  x2="146.0" y2="279.2" stroke="Black" stroke-width="2"/>
<line x1="146.0" y1="279.2"  x2="162.64" y2="264.16" stroke="Black" stroke-width="2"/>
<line x1="162.64" y1="264.16"  x2="214.16" y2="187.36" stroke="Black" stroke-width="2"/>
<line x1="214.16" y1="187.36"  x2="137.36" y2="135.84" stroke="Black" stroke-width="2"/>
<line x1="137.36" y1="135.84"  x2="85.84" y2="212.64" stroke="Black" stroke-width="2"/>
<line x1="85.84" y1="212.64"  x2="162.64" y2="264.16" stroke="Black" stroke-width="2"/>
<line x1="162.64" y1="264.16"  x2="172.944" y2="248.8" stroke="Black" stroke-width="2"/>
<line x1="172.944" y1="248.8"  x2="198.8" y2="177.056" stroke="Black" stroke-width="2"/>
<line x1="198.8" y1="177.056"  x2="127.056" y2="151.2" stroke="Black" stroke-width="2"/>
<line x1="127.056" y1="151.2"  x2="101.2" y2="222.944" stroke="Black" stroke-width="2"/>
<line x1="101.2" y1="222.944"  x2="172.944" y2="248.8" stroke="Black" stroke-width="2"/>
<line x1="172.944" y1="248.8"  x2="178.1152" y2="234.4512" stroke="Black" stroke-width="2"/>
<line x1="178.1152" y1="234.4512"  x2="184.4512" y2="171.8848" stroke="Black" stroke-width="2"/>
<line x1="184.4512" y1="171.8848"  x2="121.8848" y2="165.5488" stroke="Black" stroke-width="2"/>
<line x1="121.8848" y1="165.5488"  x2="115.5488" y2="228.1152" stroke="Black" stroke-width="2"/>
<line x1="115.5488" y1="228.1152"  x2="178.1152" y2="234.4512" stroke="Black" stroke-width="2"/>
<line x1="178.1152" y1="234.4512"  x2="179.3824" y2="221.93792" stroke="Black" stroke-width="2"/>
<line x1="179.3824" y1="221.93792"  x2="171.93792" y2="170.6176" stroke="Black" stroke-width="2"/>
<line x1="171.93792" y1="170.6176"  x2="120.6176" y2="178.06208" stroke="Black" stroke-width="2"/>
<line x1="120.6176" y1="178.06208"  x2="128.06208" y2="229.3824" stroke="Black" stroke-width="2"/>
<line x1="128.06208" y1="229.3824"  x2="179.3824" y2="221.93792" stroke="Black" stroke-width="2"/>
<line x1="179.3824" y1="221.93792"  x2="177.893504" y2="211.673856" stroke="Black" stroke-width="2"/>
<line x1="177.893504" y1="211.673856"  x2="161.673856" y2="172.106496" stroke="Black" stroke-width="2"/>
<line x1="161.673856" y1="172.106496"  x2="122.106496" y2="188.326144" stroke="Black" stroke-width="2"/>
<line x1="122.106496" y1="188.326144"  x2="138.326144" y2="227.893504" stroke="Black" stroke-width="2"/>
<line x1="138.326144" y1="227.893504"  x2="177.893504" y2="211.673856" stroke="Black" stroke-width="2"/>
<line x1="177.893504" y1="211.673856"  x2="174.6495744" y2="203.760384" stroke="Black" stroke-width="2"/>
<line x1="174.6495744" y1="203.760384"  x2="153.760384" y2="175.3504256" stroke="Black" stroke-width="2"/>
<line x1="153.760384" y1="175.3504256"  x2="125.3504256" y2="196.239616" stroke="Black" stroke-width="2"/>
<line x1="125.3504256" y1="196.239616"  x2="146.239616" y2="224.6495744" stroke="Black" stroke-width="2"/>
<line x1="146.239616" y1="224.6495744"  x2="174.6495744" y2="203.760384" stroke="Black" stroke-width="2"/>
<line x1="174.6495744" y1="203.760384"  x2="170.47173632" y2="198.07839232" stroke="Black" stroke-width="2"/>
<line x1="170.47173632" y1="198.07839232"  x2="148.07839232" y2="179.52826368" stroke="Black" stroke-width="2"/>
<line x1="148.07839232" y1="179.52826368"  x2="129.52826368" y2="201.92160768" stroke="Black" stroke-width="2"/>
<line x1="129.52826368" y1="201.92160768"  x2="151.92160768" y2="220.47173632" stroke="Black" stroke-width="2"/>
<line x1="151.92160768" y1="220.47173632"  x2="170.47173632" y2="198.07839232" stroke="Black" stroke-width="2"/>
<line x1="170.47173632" y1="198.07839232"  x2="165.99306752" y2="194.368366592" stroke="Black" stroke-width="2"/>
<line x1="165.99306752" y1="194.368366592"  x2="144.368366592" y2="184.00693248" stroke="Black" stroke-width="2"/>
<line x1="144.368366592" y1="184.00693248"  x2="134.00693248" y2="205.631633408" stroke="Black" stroke-width="2"/>
<line x1="134.00693248" y1="205.631633408"  x2="155.631633408" y2="215.99306752" stroke="Black" stroke-width="2"/>
<line x1="155.631633408" y1="215.99306752"  x2="165.99306752" y2="194.368366592" stroke="Black" stroke-width="2"/>
<line x1="165.99306752" y1="194.368366592"  x2="161.668127334" y2="192.29607977" stroke="Black" stroke-width="2"/>
<line x1="161.668127334" y1="192.29607977"  x2="142.29607977" y2="188.331872666" stroke="Black" stroke-width="2"/>
<line x1="142.29607977" y1="188.331872666"  x2="138.331872666" y2="207.70392023" stroke="Black" stroke-width="2"/>
<line x1="138.331872666" y1="207.70392023"  x2="157.70392023" y2="211.668127334" stroke="Black" stroke-width="2"/>
<line x1="157.70392023" y1="211.668127334"  x2="161.668127334" y2="192.29607977" stroke="Black" stroke-width="2"/>
<line x1="161.668127334" y1="192.29607977"  x2="157.793717821" y2="191.503238349" stroke="Black" stroke-width="2"/>
<line x1="157.793717821" y1="191.503238349"  x2="141.503238349" y2="192.206282179" stroke="Black" stroke-width="2"/>
<line x1="141.503238349" y1="192.206282179"  x2="142.206282179" y2="208.496761651" stroke="Black" stroke-width="2"/>
<line x1="142.206282179" y1="208.496761651"  x2="158.496761651" y2="207.793717821" stroke="Black" stroke-width="2"/>
<line x1="158.496761651" y1="207.793717821"  x2="157.793717821" y2="191.503238349" stroke="Black" stroke-width="2"/>
<line x1="157.793717821" y1="191.503238349"  x2="154.535621927" y2="191.643847115" stroke="Black" stroke-width="2"/>
<line x1="154.535621927" y1="191.643847115"  x2="141.643847115" y2="195.464378073" stroke="Black" stroke-width="2"/>
<line x1="141.643847115" y1="195.464378073"  x2="145.464378073" y2="208.356152885" stroke="Black" stroke-width="2"/>
<line x1="145.464378073" y1="208.356152885"  x2="158.356152885" y2="204.535621927" stroke="Black" stroke-width="2"/>
<line x1="158.356152885" y1="204.535621927"  x2="154.535621927" y2="191.643847115" stroke="Black" stroke-width="2"/>
<line x1="154.535621927" y1="191.643847115"  x2="151.957266964" y2="192.407953306" stroke="Black" stroke-width="2"/>
<line x1="151.957266964" y1="192.407953306"  x2="142.407953306" y2="198.042733036" stroke="Black" stroke-width="2"/>
<line x1="142.407953306" y1="198.042733036"  x2="148.042733036" y2="207.592046694" stroke="Black" stroke-width="2"/>
<line x1="148.042733036" y1="207.592046694"  x2="157.592046694" y2="201.957266964" stroke="Black" stroke-width="2"/>
<line x1="157.592046694" y1="201.957266964"  x2="151.957266964" y2="192.407953306" stroke="Black" stroke-width="2"/>
<line x1="151.957266964" y1="192.407953306"  x2="150.047404233" y2="193.534909252" stroke="Black" stroke-width="2"/>
<line x1="150.047404233" y1="193.534909252"  x2="143.534909252" y2="199.952595767" stroke="Black" stroke-width="2"/>
<line x1="143.534909252" y1="199.952595767"  x2="149.952595767" y2="206.465090748" stroke="Black" stroke-width="2"/>
<line x1="149.952595767" y1="206.465090748"  x2="156.465090748" y2="200.047404233" stroke="Black" stroke-width="2"/>
<line x1="156.465090748" y1="200.047404233"  x2="150.047404233" y2="193.534909252" stroke="Black" stroke-width="2"/>
<line x1="150.047404233" y1="193.534909252"  x2="148.744905237" y2="194.818446555" stroke="Black" stroke-width="2"/>
<line x1="148.744905237" y1="194.818446555"  x2="144.818446555" y2="201.255094763" stroke="Black" stroke-width="2"/>
<line x1="144.818446555" y1="201.255094763"  x2="151.255094763" y2="205.181553445" stroke="Black" stroke-width="2"/>
<line x1="151.255094763" y1="205.181553445"  x2="155.181553445" y2="198.744905237" stroke="Black" stroke-width="2"/>
<line x1="155.181553445" y1="198.744905237"  x2="148.744905237" y2="194.818446555" stroke="Black" stroke-width="2"/>
<line x1="148.744905237" y1="194.818446555"  x2="147.9596135" y2="196.105776197" stroke="Black" stroke-width="2"/>
<line x1="147.9596135" y1="196.105776197"  x2="146.105776197" y2="202.0403865" stroke="Black" stroke-width="2"/>
<line x1="146.105776197" y1="202.0403865"  x2="152.0403865" y2="203.894223803" stroke="Black" stroke-width="2"/>
<line x1="152.0403865" y1="203.894223803"  x2="153.894223803" y2="197.9596135" stroke="Black" stroke-width="2"/>
<line x1="153.894223803" y1="197.9596135"  x2="147.9596135" y2="196.105776197" stroke="Black" stroke-width="2"/>
<line x1="147.9596135" y1="196.105776197"  x2="147.58884604" y2="197.292698257" stroke="Black" stroke-width="2"/>
<line x1="147.58884604" y1="197.292698257"  x2="147.292698257" y2="202.41115396" stroke="Black" stroke-width="2"/>
<line x1="147.292698257" y1="202.41115396"  x2="152.41115396" y2="202.707301743" stroke="Black" stroke-width="2"/>
<line x1="152.41115396" y1="202.707301743"  x2="152.707301743" y2="197.58884604" stroke="Black" stroke-width="2"/>
<line x1="152.707301743" y1="197.58884604"  x2="147.58884604" y2="197.292698257" stroke="Black" stroke-width="2"/>
<line x1="147.58884604" y1="197.292698257"  x2="147.529616483" y2="198.316389398" stroke="Black" stroke-width="2"/>
</svg>
